  0
SECTION
  2
HEADER
  9
$ACADVER
  1
AC1015
  9
$ACADMAINTVER
 70
     6
  9
$DWGCODEPAGE
  3
ANSI_1252
  9
$INSBASE
 10
0.0
 20
0.0
 30
0.0
  9
$EXTMIN
 10
-17.0202697818
 20
-7.5
 30
0.0
  9
$EXTMAX
 10
20.3054132965
 20
7.5
 30
0.0
  9
$LIMMIN
 10
0.0
 20
0.0
  9
$LIMMAX
 10
12.0
 20
9.0
  9
$ORTHOMODE
 70
     0
  9
$REGENMODE
 70
     1
  9
$FILLMODE
 70
     1
  9
$QTEXTMODE
 70
     0
  9
$MIRRTEXT
 70
     1
  9
$LTSCALE
 40
1.0
  9
$ATTMODE
 70
     1
  9
$TEXTSIZE
 40
0.1377952756
  9
$TRACEWID
 40
0.05
  9
$TEXTSTYLE
  7
Standard
  9
$CLAYER
  8
0
  9
$CELTYPE
  6
ByLayer
  9
$CECOLOR
 62
   256
  9
$CELTSCALE
 40
1.0
  9
$DISPSILH
 70
     0
  9
$DIMSCALE
 40
1.0
  9
$DIMASZ
 40
0.13
  9
$DIMEXO
 40
0.0
  9
$DIMDLI
 40
0.38
  9
$DIMRND
 40
0.0
  9
$DIMDLE
 40
0.0
  9
$DIMEXE
 40
0.125
  9
$DIMTP
 40
0.0
  9
$DIMTM
 40
0.0
  9
$DIMTXT
 40
0.125
  9
$DIMCEN
 40
0.09
  9
$DIMTSZ
 40
0.0
  9
$DIMTOL
 70
     0
  9
$DIMLIM
 70
     0
  9
$DIMTIH
 70
     1
  9
$DIMTOH
 70
     1
  9
$DIMSE1
 70
     0
  9
$DIMSE2
 70
     0
  9
$DIMTAD
 70
     0
  9
$DIMZIN
 70
     0
  9
$DIMBLK
  1

  9
$DIMASO
 70
     1
  9
$DIMSHO
 70
     1
  9
$DIMPOST
  1

  9
$DIMAPOST
  1

  9
$DIMALT
 70
     0
  9
$DIMALTD
 70
     2
  9
$DIMALTF
 40
25.4
  9
$DIMLFAC
 40
1.0
  9
$DIMTOFL
 70
     0
  9
$DIMTVP
 40
0.0
  9
$DIMTIX
 70
     0
  9
$DIMSOXD
 70
     0
  9
$DIMSAH
 70
     0
  9
$DIMBLK1
  1

  9
$DIMBLK2
  1

  9
$DIMSTYLE
  2
Standard
  9
$DIMCLRD
 70
     0
  9
$DIMCLRE
 70
     0
  9
$DIMCLRT
 70
     0
  9
$DIMTFAC
 40
1.0
  9
$DIMGAP
 40
0.06
  9
$DIMJUST
 70
     0
  9
$DIMSD1
 70
     0
  9
$DIMSD2
 70
     0
  9
$DIMTOLJ
 70
     1
  9
$DIMTZIN
 70
     0
  9
$DIMALTZ
 70
     0
  9
$DIMALTTZ
 70
     0
  9
$DIMUPT
 70
     0
  9
$DIMDEC
 70
     2
  9
$DIMTDEC
 70
     2
  9
$DIMALTU
 70
     2
  9
$DIMALTTD
 70
     2
  9
$DIMTXSTY
  7
Standard
  9
$DIMAUNIT
 70
     0
  9
$DIMADEC
 70
     2
  9
$DIMALTRND
 40
0.0
  9
$DIMAZIN
 70
     0
  9
$DIMDSEP
 70
    46
  9
$DIMATFIT
 70
     3
  9
$DIMFRAC
 70
     0
  9
$DIMLDRBLK
  1

  9
$DIMLUNIT
 70
     2
  9
$DIMLWD
 70
    -2
  9
$DIMLWE
 70
    -2
  9
$DIMTMOVE
 70
     0
  9
$LUNITS
 70
     2
  9
$LUPREC
 70
     2
  9
$SKETCHINC
 40
0.1
  9
$FILLETRAD
 40
0.5
  9
$AUNITS
 70
     0
  9
$AUPREC
 70
     2
  9
$MENU
  1
.
  9
$ELEVATION
 40
0.0
  9
$PELEVATION
 40
0.0
  9
$THICKNESS
 40
0.0
  9
$LIMCHECK
 70
     0
  9
$CHAMFERA
 40
0.0
  9
$CHAMFERB
 40
0.0
  9
$CHAMFERC
 40
0.0
  9
$CHAMFERD
 40
0.0
  9
$SKPOLY
 70
     0
  9
$TDCREATE
 40
2459551.57576566
  9
$TDUCREATE
 40
2459551.784098993
  9
$TDUPDATE
 40
2459551.575955972
  9
$TDUUPDATE
 40
2459551.784289306
  9
$TDINDWG
 40
0.0000000116
  9
$TDUSRTIMER
 40
0.0000000116
  9
$USRTIMER
 70
     1
  9
$ANGBASE
 50
0.0
  9
$ANGDIR
 70
     0
  9
$PDMODE
 70
     0
  9
$PDSIZE
 40
-1.0
  9
$PLINEWID
 40
0.0
  9
$SPLFRAME
 70
     0
  9
$SPLINETYPE
 70
     6
  9
$SPLINESEGS
 70
     8
  9
$HANDSEED
  5
374
  9
$SURFTAB1
 70
     6
  9
$SURFTAB2
 70
     6
  9
$SURFTYPE
 70
     6
  9
$SURFU
 70
     6
  9
$SURFV
 70
     6
  9
$UCSBASE
  2

  9
$UCSNAME
  2

  9
$UCSORG
 10
0.0
 20
0.0
 30
0.0
  9
$UCSXDIR
 10
1.0
 20
0.0
 30
0.0
  9
$UCSYDIR
 10
0.0
 20
1.0
 30
0.0
  9
$UCSORTHOREF
  2

  9
$UCSORTHOVIEW
 70
     0
  9
$UCSORGTOP
 10
0.0
 20
0.0
 30
0.0
  9
$UCSORGBOTTOM
 10
0.0
 20
0.0
 30
0.0
  9
$UCSORGLEFT
 10
0.0
 20
0.0
 30
0.0
  9
$UCSORGRIGHT
 10
0.0
 20
0.0
 30
0.0
  9
$UCSORGFRONT
 10
0.0
 20
0.0
 30
0.0
  9
$UCSORGBACK
 10
0.0
 20
0.0
 30
0.0
  9
$PUCSBASE
  2

  9
$PUCSNAME
  2

  9
$PUCSORG
 10
0.0
 20
0.0
 30
0.0
  9
$PUCSXDIR
 10
1.0
 20
0.0
 30
0.0
  9
$PUCSYDIR
 10
0.0
 20
1.0
 30
0.0
  9
$PUCSORTHOREF
  2

  9
$PUCSORTHOVIEW
 70
     0
  9
$PUCSORGTOP
 10
0.0
 20
0.0
 30
0.0
  9
$PUCSORGBOTTOM
 10
0.0
 20
0.0
 30
0.0
  9
$PUCSORGLEFT
 10
0.0
 20
0.0
 30
0.0
  9
$PUCSORGRIGHT
 10
0.0
 20
0.0
 30
0.0
  9
$PUCSORGFRONT
 10
0.0
 20
0.0
 30
0.0
  9
$PUCSORGBACK
 10
0.0
 20
0.0
 30
0.0
  9
$USERI1
 70
     0
  9
$USERI2
 70
     0
  9
$USERI3
 70
     0
  9
$USERI4
 70
     0
  9
$USERI5
 70
     0
  9
$USERR1
 40
0.0
  9
$USERR2
 40
0.0
  9
$USERR3
 40
0.0
  9
$USERR4
 40
0.0
  9
$USERR5
 40
0.0
  9
$WORLDVIEW
 70
     1
  9
$SHADEDGE
 70
     3
  9
$SHADEDIF
 70
    70
  9
$TILEMODE
 70
     1
  9
$MAXACTVP
 70
    64
  9
$PINSBASE
 10
0.0
 20
0.0
 30
0.0
  9
$PLIMCHECK
 70
     0
  9
$PEXTMIN
 10
1.0000000000E+20
 20
1.0000000000E+20
 30
1.0000000000E+20
  9
$PEXTMAX
 10
-1.0000000000E+20
 20
-1.0000000000E+20
 30
-1.0000000000E+20
  9
$PLIMMIN
 10
0.0
 20
0.0
  9
$PLIMMAX
 10
12.0
 20
9.0
  9
$UNITMODE
 70
     0
  9
$VISRETAIN
 70
     1
  9
$PLINEGEN
 70
     0
  9
$PSLTSCALE
 70
     1
  9
$TREEDEPTH
 70
  3020
  9
$CMLSTYLE
  2
Standard
  9
$CMLJUST
 70
     0
  9
$CMLSCALE
 40
1.0
  9
$PROXYGRAPHICS
 70
     1
  9
$MEASUREMENT
 70
     0
  9
$CELWEIGHT
370
    -1
  9
$ENDCAPS
280
     0
  9
$JOINSTYLE
280
     0
  9
$LWDISPLAY
290
     1
  9
$INSUNITS
 70
     1
  9
$HYPERLINKBASE
  1

  9
$STYLESHEET
  1

  9
$XEDIT
290
     1
  9
$CEPSNTYPE
380
     0
  9
$PSTYLEMODE
290
     1
  9
$FINGERPRINTGUID
  2
{5aa62cec-6a7c-4821-be2f-c3b973cfaa42}
  9
$VERSIONGUID
  2
{FAEB1C32-E019-11D5-929B-00C0DF256EC4}
  9
$EXTNAMES
290
     1
  9
$PSVPSCALE
 40
0.0
  9
$OLESTARTUP
290
     0
  0
ENDSEC
  0
SECTION
  2
CLASSES
  0
CLASS
  1
ACDBDICTIONARYWDFLT
  2
AcDbDictionaryWithDefault
  3
ObjectDBX Classes
 90
        0
280
     0
281
     0
  0
CLASS
  1
VISUALSTYLE
  2
AcDbVisualStyle
  3
ObjectDBX Classes
 90
     4095
280
     0
281
     0
  0
CLASS
  1
MATERIAL
  2
AcDbMaterial
  3
ObjectDBX Classes
 90
     1153
280
     0
281
     0
  0
CLASS
  1
SCALE
  2
AcDbScale
  3
ObjectDBX Classes
 90
     1153
280
     0
281
     0
  0
CLASS
  1
TABLESTYLE
  2
AcDbTableStyle
  3
ObjectDBX Classes
 90
     4095
280
     0
281
     0
  0
CLASS
  1
MLEADERSTYLE
  2
AcDbMLeaderStyle
  3
ACDB_MLEADERSTYLE_CLASS
 90
     4095
280
     0
281
     0
  0
CLASS
  1
SUN
  2
AcDbSun
  3
SCENEOE
 90
     1153
280
     0
281
     0
  0
CLASS
  1
ACDBPLACEHOLDER
  2
AcDbPlaceHolder
  3
ObjectDBX Classes
 90
        0
280
     0
281
     0
  0
CLASS
  1
LAYOUT
  2
AcDbLayout
  3
ObjectDBX Classes
 90
        0
280
     0
281
     0
  0
ENDSEC
  0
SECTION
  2
TABLES
  0
TABLE
  2
VPORT
  5
8
330
0
100
AcDbSymbolTable
 70
     1
  0
VPORT
  5
29
330
8
100
AcDbSymbolTableRecord
100
AcDbViewportTableRecord
  2
*Active
 70
     0
 10
0.0
 20
0.0
 11
1.0
 21
1.0
 12
1.6425717574
 22
0.0
 13
0.0
 23
0.0
 14
0.5
 24
0.5
 15
0.5
 25
0.5
 16
0.0
 26
0.0
 36
1.0
 17
0.0
 27
0.0
 37
0.0
 40
15.3
 41
2.4883788719
 42
50.0
 43
0.0
 44
0.0
 50
0.0
 51
0.0
 71
     0
 72
   100
 73
     1
 74
     3
 75
     0
 76
     0
 77
     0
 78
     0
281
     0
 65
     1
110
0.0
120
0.0
130
0.0
111
1.0
121
0.0
131
0.0
112
0.0
122
1.0
132
0.0
 79
     0
146
0.0
  0
ENDTAB
  0
TABLE
  2
LTYPE
  5
5
330
0
100
AcDbSymbolTable
 70
     6
  0
LTYPE
  5
14
330
5
100
AcDbSymbolTableRecord
100
AcDbLinetypeTableRecord
  2
ByBlock
 70
     0
  3

 72
    65
 73
     0
 40
0.0
  0
LTYPE
  5
15
330
5
100
AcDbSymbolTableRecord
100
AcDbLinetypeTableRecord
  2
ByLayer
 70
     0
  3

 72
    65
 73
     0
 40
0.0
  0
LTYPE
  5
16
330
5
100
AcDbSymbolTableRecord
100
AcDbLinetypeTableRecord
  2
Continuous
 70
     0
  3
Solid line
 72
    65
 73
     0
 40
0.0
  0
LTYPE
  5
6E
330
5
100
AcDbSymbolTableRecord
100
AcDbLinetypeTableRecord
  2
HIDDEN
 70
     0
  3
Hidden __ __ __ __ __ __ __ __ __ __ __ __ __ __
 72
    65
 73
     2
 40
0.075
 49
0.05
 74
     0
 49
-0.025
 74
     0
  0
LTYPE
  5
6F
330
5
100
AcDbSymbolTableRecord
100
AcDbLinetypeTableRecord
  2
PHANTOM
 70
     0
  3
Phantom ______  __  __  ______  __  __  ______
 72
    65
 73
     6
 40
0.5
 49
0.25
 74
     0
 49
-0.05
 74
     0
 49
0.05
 74
     0
 49
-0.05
 74
     0
 49
0.05
 74
     0
 49
-0.05
 74
     0
  0
LTYPE
  5
70
330
5
100
AcDbSymbolTableRecord
100
AcDbLinetypeTableRecord
  2
CENTER
 70
     0
  3
Center ____ _ ____ _ ____ _ ____ _ ____ _ ____
 72
    65
 73
     4
 40
0.4
 49
0.25
 74
     0
 49
-0.05
 74
     0
 49
0.05
 74
     0
 49
-0.05
 74
     0
  0
LTYPE
  5
71
330
5
100
AcDbSymbolTableRecord
100
AcDbLinetypeTableRecord
  2
CENTERX2
 70
     0
  3
Center (2x) ________  __  ________  __  _____
 72
    65
 73
     4
 40
0.8
 49
0.5
 74
     0
 49
-0.1
 74
     0
 49
0.1
 74
     0
 49
-0.1
 74
     0
  0
LTYPE
  5
72
330
5
100
AcDbSymbolTableRecord
100
AcDbLinetypeTableRecord
  2
DOT2
 70
     0
  3
Dot (.5x) ........................................
 72
    65
 73
     2
 40
0.025
 49
0.0
 74
     0
 49
-0.025
 74
     0
  0
ENDTAB
  0
TABLE
  2
LAYER
  5
2
330
0
100
AcDbSymbolTable
 70
     1
  0
LAYER
  5
10
330
2
100
AcDbSymbolTableRecord
100
AcDbLayerTableRecord
  2
0
 70
     0
 62
     7
  6
Continuous
370
    -3
390
F
  0
ENDTAB
  0
TABLE
  2
STYLE
  5
3
330
0
100
AcDbSymbolTable
 70
     2
  0
STYLE
  5
11
330
3
100
AcDbSymbolTableRecord
100
AcDbTextStyleTableRecord
  2
Standard
 70
     0
 40
0.0
 41
1.0
 50
0.0
 71
     0
 42
0.1377952756
  3
txt
  4

  0
STYLE
  5
370
330
3
100
AcDbSymbolTableRecord
100
AcDbTextStyleTableRecord
  2
SLDTEXTSTYLE0
 70
     0
 40
0.0
 41
0.7
 50
0.0
 71
     0
 42
0.1377952756
  3
TXT
  4

  0
ENDTAB
  0
TABLE
  2
VIEW
  5
6
330
0
100
AcDbSymbolTable
 70
     0
  0
ENDTAB
  0
TABLE
  2
UCS
  5
7
330
0
100
AcDbSymbolTable
 70
     0
  0
ENDTAB
  0
TABLE
  2
APPID
  5
9
330
0
100
AcDbSymbolTable
 70
     1
  0
APPID
  5
12
330
9
100
AcDbSymbolTableRecord
100
AcDbRegAppTableRecord
  2
ACAD
 70
     0
  0
ENDTAB
  0
TABLE
  2
DIMSTYLE
  5
A
330
0
100
AcDbSymbolTable
 70
     1
100
AcDbDimStyleTable
  0
DIMSTYLE
105
27
330
A
100
AcDbSymbolTableRecord
100
AcDbDimStyleTableRecord
  2
Standard
 70
     0
178
     0
340
11
  0
ENDTAB
  0
TABLE
  2
BLOCK_RECORD
  5
1
330
0
100
AcDbSymbolTable
 70
     1
  0
BLOCK_RECORD
  5
1F
330
1
100
AcDbSymbolTableRecord
100
AcDbBlockTableRecord
  2
*Model_Space
340
22
  0
BLOCK_RECORD
  5
1B
330
1
100
AcDbSymbolTableRecord
100
AcDbBlockTableRecord
  2
*Paper_Space
340
1E
  0
BLOCK_RECORD
  5
23
330
1
100
AcDbSymbolTableRecord
100
AcDbBlockTableRecord
  2
*Paper_Space0
340
26
  0
ENDTAB
  0
ENDSEC
  0
SECTION
  2
BLOCKS
  0
BLOCK
  5
20
330
1F
100
AcDbEntity
  8
0
100
AcDbBlockBegin
  2
*Model_Space
 70
     0
 10
0.0
 20
0.0
 30
0.0
  3
*Model_Space
  1

  0
ENDBLK
  5
21
330
1F
100
AcDbEntity
  8
0
100
AcDbBlockEnd
  0
BLOCK
  5
1C
330
1B
100
AcDbEntity
 67
     1
  8
0
100
AcDbBlockBegin
  2
*Paper_Space
 70
     0
 10
0.0
 20
0.0
 30
0.0
  3
*Paper_Space
  1

  0
ENDBLK
  5
1D
330
1B
100
AcDbEntity
 67
     1
  8
0
100
AcDbBlockEnd
  0
BLOCK
  5
24
330
23
100
AcDbEntity
  8
0
100
AcDbBlockBegin
  2
*Paper_Space0
 70
     0
 10
0.0
 20
0.0
 30
0.0
  3
*Paper_Space0
  1

  0
ENDBLK
  5
25
330
23
100
AcDbEntity
  8
0
100
AcDbBlockEnd
  0
ENDSEC
  0
SECTION
  2
ENTITIES
  0
CIRCLE
  5
73
330
1F
100
AcDbEntity
  8
0
  6
Continuous
 62
     7
370
    25
100
AcDbCircle
 10
-16.1452697818
 20
-6.625
 30
0.0
 40
0.500000000022002
  0
CIRCLE
  5
74
330
1F
100
AcDbEntity
  8
0
  6
Continuous
 62
     7
370
    25
100
AcDbCircle
 10
-12.9707282426
 20
-7.1
 30
0.0
 40
0.1284999999779401
  0
CIRCLE
  5
7D
330
1F
100
AcDbEntity
  8
0
  6
Continuous
 62
     7
370
    25
100
AcDbCircle
 10
-13.7707282426
 20
-5.9
 30
0.0
 40
0.1285000000220533
  0
CIRCLE
  5
7E
330
1F
100
AcDbEntity
  8
0
  6
Continuous
 62
     7
370
    25
100
AcDbCircle
 10
-13.7707282426
 20
-6.9
 30
0.0
 40
0.1285000000220515
  0
CIRCLE
  5
7F
330
1F
100
AcDbEntity
  8
0
  6
Continuous
 62
     7
370
    25
100
AcDbCircle
 10
-16.1452697818
 20
6.625
 30
0.0
 40
0.5000000000220064
  0
CIRCLE
  5
88
330
1F
100
AcDbEntity
  8
0
  6
Continuous
 62
     7
370
    25
100
AcDbCircle
 10
-12.9707282426
 20
7.1
 30
0.0
 40
0.1284999999779401
  0
CIRCLE
  5
89
330
1F
100
AcDbEntity
  8
0
  6
Continuous
 62
     7
370
    25
100
AcDbCircle
 10
-13.7707282426
 20
5.9
 30
0.0
 40
0.1285000000220498
  0
CIRCLE
  5
8A
330
1F
100
AcDbEntity
  8
0
  6
Continuous
 62
     7
370
    25
100
AcDbCircle
 10
-13.7707282426
 20
6.9
 30
0.0
 40
0.1285000000220506
  0
CIRCLE
  5
8B
330
1F
100
AcDbEntity
  8
0
  6
Continuous
 62
     7
370
    25
100
AcDbCircle
 10
19.4304132965
 20
-6.625
 30
0.0
 40
0.5000000000220037
  0
CIRCLE
  5
94
330
1F
100
AcDbEntity
  8
0
  6
Continuous
 62
     7
370
    25
100
AcDbCircle
 10
16.2558717574
 20
-7.1
 30
0.0
 40
0.1285000000437986
  0
CIRCLE
  5
95
330
1F
100
AcDbEntity
  8
0
  6
Continuous
 62
     7
370
    25
100
AcDbCircle
 10
17.0558717574
 20
-5.9
 30
0.0
 40
0.1285000000220524
  0
CIRCLE
  5
96
330
1F
100
AcDbEntity
  8
0
  6
Continuous
 62
     7
370
    25
100
AcDbCircle
 10
17.0558717574
 20
-6.9
 30
0.0
 40
0.1285000000220471
  0
CIRCLE
  5
97
330
1F
100
AcDbEntity
  8
0
  6
Continuous
 62
     7
370
    25
100
AcDbCircle
 10
19.4304132965
 20
6.625
 30
0.0
 40
0.500000000022002
  0
CIRCLE
  5
98
330
1F
100
AcDbEntity
  8
0
  6
Continuous
 62
     7
370
    25
100
AcDbCircle
 10
16.2558717574
 20
7.1
 30
0.0
 40
0.1285000000438004
  0
CIRCLE
  5
A1
330
1F
100
AcDbEntity
  8
0
  6
Continuous
 62
     7
370
    25
100
AcDbCircle
 10
17.0558717574
 20
5.9
 30
0.0
 40
0.128500000022048
  0
CIRCLE
  5
A2
330
1F
100
AcDbEntity
  8
0
  6
Continuous
 62
     7
370
    25
100
AcDbCircle
 10
17.0558717574
 20
6.9
 30
0.0
 40
0.1285000000220524
  0
SPLINE
  5
A3
330
1F
100
AcDbEntity
  8
0
  6
Continuous
 62
     7
370
    25
100
AcDbSpline
210
0.0
220
0.0
230
1.0
 70
     8
 71
     3
 72
    10
 73
     6
 74
     0
 42
0.00000001
 43
0.00000001
 40
0.0
 40
0.0
 40
0.0
 40
0.0
 40
0.3241678288068364
 40
0.657500188162727
 40
0.9999999999999999
 40
0.9999999999999999
 40
0.9999999999999999
 40
0.9999999999999999
 10
-2.092265898949396
 20
0.6732457094521975
 30
0.0
 10
-2.114965757996643
 20
0.6894355769035608
 30
0.0
 10
-2.161007222536066
 20
0.7222730146430844
 30
0.0
 10
-2.231218345789718
 20
0.7719542551564931
 30
0.0
 10
-2.278782188054137
 20
0.8053700417209958
 30
0.0
 10
-2.302886703524392
 20
0.8223045723612448
 30
0.0
  0
SPLINE
  5
A4
330
1F
100
AcDbEntity
  8
0
  6
Continuous
 62
     7
370
    25
100
AcDbSpline
210
0.0
220
0.0
230
1.0
 70
     8
 71
     3
 72
     9
 73
     5
 74
     0
 42
0.00000001
 43
0.00000001
 40
0.4134777753750751
 40
0.4134777753750751
 40
0.4134777753750751
 40
0.4134777753750751
 40
0.4431685069010545
 40
1.0
 40
1.0
 40
1.0
 40
1.0
 10
-2.302886703526832
 20
1.588763661009235
 30
0.0
 10
-2.287275135702903
 20
1.567892852274346
 30
0.0
 10
-2.006837296781206
 20
1.154778001021302
 30
0.0
 10
-1.801095537550714
 20
0.4651508077069332
 30
0.0
 10
-2.092265898949391
 20
0.6732457094521964
 30
0.0
  0
SPLINE
  5
A6
330
1F
100
AcDbEntity
  8
0
  6
Continuous
 62
     7
370
    25
100
AcDbSpline
210
0.0
220
0.0
230
1.0
 70
     8
 71
     3
 72
     9
 73
     5
 74
     0
 42
0.00000001
 43
0.00000001
 40
0.0
 40
0.0
 40
0.0
 40
0.0
 40
0.3431685069010546
 40
0.3584876967175103
 40
0.3584876967175103
 40
0.3584876967175103
 40
0.3584876967175103
 10
-4.060193000709319
 20
2.657326131964677
 30
0.0
 10
-3.704605263364989
 20
2.514878678479947
 30
0.0
 10
-2.750321689707037
 20
2.005583269289168
 30
0.0
 10
-2.424895902332162
 20
1.720403521557516
 30
0.0
 10
-2.411969782125579
 20
1.708534651518628
 30
0.0
  0
SPLINE
  5
A8
330
1F
100
AcDbEntity
  8
0
  6
Continuous
 62
     7
370
    25
100
AcDbSpline
210
0.0
220
0.0
230
1.0
 70
     8
 71
     3
 72
    24
 73
    20
 74
     0
 42
0.00000001
 43
0.00000001
 40
0.0
 40
0.0
 40
0.0
 40
0.0
 40
0.0187774374318941
 40
0.0377867233248121
 40
0.0570280381865241
 40
0.0765015560724972
 40
0.0962074448852867
 40
0.159472989539974
 40
0.2234636843387999
 40
0.2996892840629899
 40
0.3758650062947566
 40
0.4626032152588284
 40
0.5484617476835653
 40
0.6432561588690877
 40
0.7364012907670829
 40
0.8369048778556427
 40
0.9349563400365949
 40
0.9676336201599149
 40
1.0
 40
1.0
 40
1.0
 40
1.0
 10
-2.411969781774045
 20
0.8984908485489456
 30
0.0
 10
-2.444042059395193
 20
0.9207570861547029
 30
0.0
 10
-2.508582616926671
 20
0.9655644866823273
 30
0.0
 10
-2.606256331527307
 20
1.032800040762665
 30
0.0
 10
-2.705313022572052
 20
1.100577995844075
 30
0.0
 10
-2.805772843244759
 20
1.168869424963896
 30
0.0
 10
-2.982280596611199
 20
1.288115112834838
 30
0.0
 10
-3.236507554242856
 20
1.457669672151161
 30
0.0
 10
-3.590564598199838
 20
1.689314971011584
 30
0.0
 10
-3.969390841955219
 20
1.932102323544923
 30
0.0
 10
-4.390772145187635
 20
2.196098952534193
 30
0.0
 10
-4.832126882923713
 20
2.465890395237741
 30
0.0
 10
-5.309970214651377
 20
2.750141046733244
 30
0.0
 10
-5.803006366850005
 20
3.034826780708555
 30
0.0
 10
-6.32663646288556
 20
3.327306464812268
 30
0.0
 10
-6.8606883936144
 20
3.614883728991764
 30
0.0
 10
-7.287916980175689
 20
3.835493995855063
 30
0.0
 10
-7.591035598079041
 20
3.987561816630947
 30
0.0
 10
-7.712394173291185
 20
4.047255566476162
 30
0.0
 10
-7.772783421749494
 20
4.07695977719641
 30
0.0
  0
SPLINE
  5
DA
330
1F
100
AcDbEntity
  8
0
  6
Continuous
 62
     7
370
    25
100
AcDbSpline
210
0.0
220
0.0
230
1.0
 70
     8
 71
     3
 72
    19
 73
    15
 74
     0
 42
0.00000001
 43
0.00000001
 40
0.0
 40
0.0
 40
0.0
 40
0.0
 40
0.0999049534734339
 40
0.1933587827233948
 40
0.2782285279672049
 40
0.3568008735515265
 40
0.4283142770874441
 40
0.4924556786958925
 40
0.5499357130483599
 40
0.6004840654498336
 40
0.6948916356895061
 40
0.7897981352427667
 40
0.8901067663889867
 40
1.0
 40
1.0
 40
1.0
 40
1.0
 10
4.266097041324366
 20
-0.6186121323529403
 30
0.0
 10
4.270471725485367
 20
-0.6170273289560585
 30
0.0
 10
4.278938609005762
 20
-0.6139600570638941
 30
0.0
 10
4.290978292941204
 20
-0.6091640238425265
 30
0.0
 10
4.30197459278506
 20
-0.6044490260116862
 30
0.0
 10
4.311894273223835
 20
-0.5998192397603727
 30
0.0
 10
4.320691630787847
 20
-0.5951096681806343
 30
0.0
 10
4.328489617161924
 20
-0.5906142765967431
 30
0.0
 10
4.335086765218008
 20
-0.5860471927649854
 30
0.0
 10
4.342540684618806
 20
-0.5802557109977305
 30
0.0
 10
4.349951598685682
 20
-0.5717250609181229
 30
0.0
 10
4.356259485147467
 20
-0.5596935330369545
 30
0.0
 10
4.36005580391474
 20
-0.5458594891919588
 30
0.0
 10
4.360461926763489
 20
-0.5360543969788318
 30
0.0
 10
4.360674247206718
 20
-0.5309283088235285
 30
0.0
  0
SPLINE
  5
DD
330
1F
100
AcDbEntity
  8
0
  6
Continuous
 62
     7
370
    25
100
AcDbSpline
210
0.0
220
0.0
230
1.0
 70
     8
 71
     3
 72
    23
 73
    19
 74
     0
 42
0.00000001
 43
0.00000001
 40
0.0
 40
0.0
 40
0.0
 40
0.0
 40
0.0599461644853668
 40
0.1184803972033942
 40
0.1753171637071629
 40
0.2317661819670309
 40
0.2873822600271381
 40
0.3434016554361531
 40
0.3997857897455434
 40
0.4575203455090322
 40
0.5161701567802776
 40
0.5774210959344713
 40
0.6403551394227559
 40
0.7057984011069064
 40
0.7743905263711466
 40
0.8463654007347751
 40
0.9216804577791177
 40
1.0
 40
1.0
 40
1.0
 40
1.0
 10
4.016556600147895
 20
-0.818382352941175
 30
0.0
 10
4.016656065932834
 20
-0.8138267640641025
 30
0.0
 10
4.016852654752302
 20
-0.8048228855960714
 30
0.0
 10
4.01860638173625
 20
-0.7916030068744195
 30
0.0
 10
4.021130027031495
 20
-0.7787807879324462
 30
0.0
 10
4.025069355666122
 20
-0.7665464535187292
 30
0.0
 10
4.029896888225016
 20
-0.7547141691644338
 30
0.0
 10
4.035828181598248
 20
-0.7433885966679108
 30
0.0
 10
4.042935039848205
 20
-0.7325725198536249
 30
0.0
 10
4.051073073511787
 20
-0.7222600840312305
 30
0.0
 10
4.060255444320757
 20
-0.7123502926913631
 30
0.0
 10
4.070596637029256
 20
-0.7030583736087547
 30
0.0
 10
4.081945227401397
 20
-0.6941678812859068
 30
0.0
 10
4.094440581413811
 20
-0.6859152148156218
 30
0.0
 10
4.107980955789997
 20
-0.6780582872662098
 30
0.0
 10
4.122598207982851
 20
-0.670608673648497
 30
0.0
 10
4.138303278658226
 20
-0.6637216521821097
 30
0.0
 10
4.149254935949457
 20
-0.6596859756652985
 30
0.0
 10
4.154837850147896
 20
-0.6576286764705869
 30
0.0
  0
SPLINE
  5
DE
330
1F
100
AcDbEntity
  8
0
  6
Continuous
 62
     7
370
    25
100
AcDbSpline
210
0.0
220
0.0
230
1.0
 70
     8
 71
     3
 72
    23
 73
    19
 74
     0
 42
0.00000001
 43
0.00000001
 40
0.0
 40
0.0
 40
0.0
 40
0.0
 40
0.0799872168080042
 40
0.1563794203705718
 40
0.2286755740509041
 40
0.2981484828735507
 40
0.365041996439265
 40
0.4293580659425961
 40
0.4920528248359272
 40
0.5535209987213578
 40
0.6133032602270476
 40
0.6701191983308903
 40
0.725469928064306
 40
0.7793896798019292
 40
0.8327491637127755
 40
0.8870253399168369
 40
0.9424739586179812
 40
1.0
 40
1.0
 40
1.0
 40
1.0
 10
4.271887482500833
 20
-1.006709558823528
 30
0.0
 10
4.262414142920224
 20
-1.006562413797595
 30
0.0
 10
4.243893241559876
 20
-1.006274737156452
 30
0.0
 10
4.21691767799946
 20
-1.00369787136429
 30
0.0
 10
4.191350284203001
 20
-0.9998444237758987
 30
0.0
 10
4.167335437043441
 20
-0.9939402400078542
 30
0.0
 10
4.144633050444552
 20
-0.9868153001055652
 30
0.0
 10
4.123586135824841
 20
-0.9775507144852198
 30
0.0
 10
4.1038905016615
 20
-0.9669980524779874
 30
0.0
 10
4.085844477334919
 20
-0.9547276842046439
 30
0.0
 10
4.069660613491441
 20
-0.9411616352967991
 30
0.0
 10
4.055405067515311
 20
-0.9265767960155257
 30
0.0
 10
4.043306580110605
 20
-0.9110022239392646
 30
0.0
 10
4.033642664027607
 20
-0.8942887653011609
 30
0.0
 10
4.025941588528141
 20
-0.876734937025415
 30
0.0
 10
4.020386586210788
 20
-0.8581877918773159
 30
0.0
 10
4.017206232792971
 20
-0.838574817975786
 30
0.0
 10
4.016775782791147
 20
-0.8251951846140313
 30
0.0
 10
4.016556600147895
 20
-0.8183823529411761
 30
0.0
  0
SPLINE
  5
DF
330
1F
100
AcDbEntity
  8
0
  6
Continuous
 62
     7
370
    25
100
AcDbSpline
210
0.0
220
0.0
230
1.0
 70
     8
 71
     3
 72
    15
 73
    11
 74
     0
 42
0.00000001
 43
0.00000001
 40
0.0
 40
0.0
 40
0.0
 40
0.0
 40
0.0807750753713488
 40
0.2267937649989767
 40
0.3638188584492786
 40
0.4925904651138222
 40
0.6131180433885945
 40
0.7257495870070617
 40
0.8298349760571008
 40
0.9263327403020081
 40
0.9263327403020081
 40
0.9263327403020081
 40
0.9263327403020081
 10
4.460663774565116
 20
-0.9747907332836957
 30
0.0
 10
4.455281965337636
 20
-0.9762648842450757
 30
0.0
 10
4.440157255105627
 20
-0.9803510038170933
 30
0.0
 10
4.415761309837324
 20
-0.9864065276372749
 30
0.0
 10
4.388003307271085
 20
-0.9926420420320295
 30
0.0
 10
4.361819026576615
 20
-0.9978355656292146
 30
0.0
 10
4.3371001194574
 20
-1.001622508580585
 30
0.0
 10
4.313994508653388
 20
-1.004627895702572
 30
0.0
 10
4.292410352198777
 20
-1.006346959649246
 30
0.0
 10
4.278553716933329
 20
-1.006591779432227
 30
0.0
 10
4.271887482500833
 20
-1.006709558823528
 30
0.0
  0
SPLINE
  5
E3
330
1F
100
AcDbEntity
  8
0
  6
Continuous
 62
     7
370
    25
100
AcDbSpline
210
0.0
220
0.0
230
1.0
 70
     8
 71
     3
 72
    15
 73
    11
 74
     0
 42
0.00000001
 43
0.00000001
 40
0.1353315964125156
 40
0.1353315964125156
 40
0.1353315964125156
 40
0.1353315964125156
 40
0.2251621789386838
 40
0.3245572699975858
 40
0.4340732649498105
 40
0.5527106736023414
 40
0.6824217094048568
 40
0.8225087738167877
 40
0.9737822952075474
 40
1.0
 40
1.0
 40
1.0
 40
1.0
 10
4.26830292367731
 20
-0.9184742647058807
 30
0.0
 10
4.27474318988974
 20
-0.9182960101163741
 30
0.0
 10
4.288309435124311
 20
-0.9179205216822566
 30
0.0
 10
4.309591863107361
 20
-0.9152790680670074
 30
0.0
 10
4.332685211320714
 20
-0.910976050181484
 30
0.0
 10
4.357614081395761
 20
-0.904883754975494
 30
0.0
 10
4.384475565127844
 20
-0.8975236863690766
 30
0.0
 10
4.413189567346119
 20
-0.8881819141413708
 30
0.0
 10
4.434600343379388
 20
-0.8804344109301024
 30
0.0
 10
4.446497447816989
 20
-0.8759230154935446
 30
0.0
 10
4.448253536947321
 20
-0.8752533096183115
 30
0.0
  0
SPLINE
  5
E4
330
1F
100
AcDbEntity
  8
0
  6
Continuous
 62
     7
370
    25
100
AcDbSpline
210
0.0
220
0.0
230
1.0
 70
     8
 71
     3
 72
    23
 73
    19
 74
     0
 42
0.00000001
 43
0.00000001
 40
0.0
 40
0.0
 40
0.0
 40
0.0
 40
0.0521230994926657
 40
0.102845671701723
 40
0.1526949563459384
 40
0.2023146687597526
 40
0.253468294315372
 40
0.3055127004176519
 40
0.3607975960792398
 40
0.4194186061848836
 40
0.4804472811192505
 40
0.5444725309244641
 40
0.6103058548483551
 40
0.6801022360502589
 40
0.7542352262019573
 40
0.8313984504870978
 40
0.9135026734215324
 40
1.0
 40
1.0
 40
1.0
 40
1.0
 10
4.13126248250084
 20
-0.832582720588234
 30
0.0
 10
4.131348011652386
 20
-0.8357187273180046
 30
0.0
 10
4.131516771820653
 20
-0.8419064775040751
 30
0.0
 10
4.133471842472938
 20
-0.8509025629161527
 30
0.0
 10
4.13611823070136
 20
-0.8595462861039478
 30
0.0
 10
4.140227119635195
 20
-0.8676565938036923
 30
0.0
 10
4.145499679218329
 20
-0.8751922916830467
 30
0.0
 10
4.15179131872038
 20
-0.882367256150563
 30
0.0
 10
4.159313748125659
 20
-0.8889376874888901
 30
0.0
 10
4.167811210709242
 20
-0.8951418145411253
 30
0.0
 10
4.177392907813289
 20
-0.9006484929067469
 30
0.0
 10
4.187823143090345
 20
-0.9054417344863694
 30
0.0
 10
4.1991364151483
 20
-0.9094598461986572
 30
0.0
 10
4.211308935667531
 20
-0.9127429648822778
 30
0.0
 10
4.224338603521308
 20
-0.9153598872934838
 30
0.0
 10
4.238255880739088
 20
-0.9171035385014231
 30
0.0
 10
4.252981316427766
 20
-0.9182236208561875
 30
0.0
 10
4.263107769209062
 20
-0.9183892779617053
 30
0.0
 10
4.26830292367731
 20
-0.9184742647058807
 30
0.0
  0
SPLINE
  5
E5
330
1F
100
AcDbEntity
  8
0
  6
Continuous
 62
     7
370
    25
100
AcDbSpline
210
0.0
220
0.0
230
1.0
 70
     8
 71
     3
 72
    19
 73
    15
 74
     0
 42
0.00000001
 43
0.00000001
 40
0.0
 40
0.0
 40
0.0
 40
0.0
 40
0.1166984872869831
 40
0.2241797611241093
 40
0.321036564849088
 40
0.4087975176510585
 40
0.4860292856017927
 40
0.5536264932246492
 40
0.6109323504324935
 40
0.6598750369435813
 40
0.7451687480805036
 40
0.8273189130212042
 40
0.9101991537657438
 40
1.0
 40
1.0
 40
1.0
 40
1.0
 10
4.247347041324367
 20
-0.7403492647058797
 30
0.0
 10
4.241543138343458
 20
-0.742474468146056
 30
0.0
 10
4.230393742887729
 20
-0.7465570197766281
 30
0.0
 10
4.214640679060245
 20
-0.7529539392451369
 30
0.0
 10
4.200315805150502
 20
-0.7588017168112903
 30
0.0
 10
4.187736366001685
 20
-0.7646388262860673
 30
0.0
 10
4.176593524598184
 20
-0.7699042266137275
 30
0.0
 10
4.167279681841682
 20
-0.7751879590843994
 30
0.0
 10
4.159396927514506
 20
-0.7799629049587923
 30
0.0
 10
4.151294494224904
 20
-0.7860807869404082
 30
0.0
 10
4.143056932974142
 20
-0.7941884660743459
 30
0.0
 10
4.136163735015666
 20
-0.8056584075722397
 30
0.0
 10
4.131984803889552
 20
-0.8186524891259338
 30
0.0
 10
4.131509604545262
 20
-0.8278168818189123
 30
0.0
 10
4.13126248250084
 20
-0.832582720588234
 30
0.0
  0
SPLINE
  5
E7
330
1F
100
AcDbEntity
  8
0
  6
Continuous
 62
     7
370
    25
100
AcDbSpline
210
0.0
220
0.0
230
1.0
 70
     8
 71
     3
 72
    23
 73
    19
 74
     0
 42
0.00000001
 43
0.00000001
 40
0.0
 40
0.0
 40
0.0
 40
0.0
 40
0.0591514232061241
 40
0.1154961227408068
 40
0.1693916595291982
 40
0.2219389949478819
 40
0.2727773044947284
 40
0.3231110307703053
 40
0.3730714905540256
 40
0.4236216827909699
 40
0.4767834081556543
 40
0.5352621547759073
 40
0.5986266576622097
 40
0.6671292372613014
 40
0.7414423916769718
 40
0.8219702258761951
 40
0.9081216135789172
 40
1.0
 40
1.0
 40
1.0
 40
1.0
 10
4.475380129559657
 20
-0.5469209558823527
 30
0.0
 10
4.475293882150846
 20
-0.5520284325392003
 30
0.0
 10
4.475125479756206
 20
-0.5620010370663877
 30
0.0
 10
4.473241700166826
 20
-0.57652037849342
 30
0.0
 10
4.470424710794267
 20
-0.5903044120755468
 30
0.0
 10
4.466203215584589
 20
-0.6032227441058297
 30
0.0
 10
4.461201238473005
 20
-0.6155360458352526
 30
0.0
 10
4.454622236230854
 20
-0.6268417555075381
 30
0.0
 10
4.446970506144197
 20
-0.6373892934658009
 30
0.0
 10
4.438192074426321
 20
-0.6473685367857791
 30
0.0
 10
4.427706650053186
 20
-0.6566760200782461
 30
0.0
 10
4.41572409144754
 20
-0.6658830898382101
 30
0.0
 10
4.402016728098196
 20
-0.6749551368204462
 30
0.0
 10
4.386651329170349
 20
-0.6839431715870716
 30
0.0
 10
4.369480810889803
 20
-0.6927136740654964
 30
0.0
 10
4.350634447555703
 20
-0.7015129724589394
 30
0.0
 10
4.330077384713918
 20
-0.7102040603340053
 30
0.0
 10
4.315702958322641
 20
-0.7156287244048204
 30
0.0
 10
4.308284541324365
 20
-0.7184283088235275
 30
0.0
  0
SPLINE
  5
E8
330
1F
100
AcDbEntity
  8
0
  6
Continuous
 62
     7
370
    25
100
AcDbSpline
210
0.0
220
0.0
230
1.0
 70
     8
 71
     3
 72
    23
 73
    19
 74
     0
 42
0.00000001
 43
0.00000001
 40
0.0
 40
0.0
 40
0.0
 40
0.0
 40
0.0782237643956993
 40
0.1523788090906575
 40
0.2231890291954948
 40
0.290150120991353
 40
0.3542472138845684
 40
0.416032575891885
 40
0.476283988899499
 40
0.5348343972736544
 40
0.5923705772849486
 40
0.6480938718424755
 40
0.7033494731090648
 40
0.7590350855401211
 40
0.8158386095828463
 40
0.8744281145558976
 40
0.9357126546734725
 40
1.0
 40
1.0
 40
1.0
 40
1.0
 10
4.258790056030248
 20
-0.3714154411764688
 30
0.0
 10
4.267021834861182
 20
-0.3715264952866614
 30
0.0
 10
4.283057225955508
 20
-0.3717428271544309
 30
0.0
 10
4.306449600829107
 20
-0.3740393204366594
 30
0.0
 10
4.32848178864963
 20
-0.3775435924521884
 30
0.0
 10
4.349162551040346
 20
-0.3824789022277345
 30
0.0
 10
4.368429152785096
 20
-0.3889383192658464
 30
0.0
 10
4.386298767594864
 20
-0.3970121574262065
 30
0.0
 10
4.402894596570831
 20
-0.4063225195056516
 30
0.0
 10
4.418008267832839
 20
-0.4171412488174613
 30
0.0
 10
4.431536068588059
 20
-0.4291934474790626
 30
0.0
 10
4.443199007954891
 20
-0.4425998370310892
 30
0.0
 10
4.453243818956556
 20
-0.4570136458702442
 30
0.0
 10
4.461463003165495
 20
-0.4726951870148983
 30
0.0
 10
4.467572033140748
 20
-0.4896657506169252
 30
0.0
 10
4.472223543472073
 20
-0.5076935804618964
 30
0.0
 10
4.474776068592756
 20
-0.5269495258424355
 30
0.0
 10
4.4751755913035
 20
-0.5401585234505477
 30
0.0
 10
4.475380129559657
 20
-0.5469209558823527
 30
0.0
  0
SPLINE
  5
E9
330
1F
100
AcDbEntity
  8
0
  6
Continuous
 62
     7
370
    25
100
AcDbSpline
210
0.0
220
0.0
230
1.0
 70
     8
 71
     3
 72
    15
 73
    11
 74
     0
 42
0.00000001
 43
0.00000001
 40
0.0
 40
0.0
 40
0.0
 40
0.0
 40
0.069072148499608
 40
0.2079585865727065
 40
0.34175542932442
 40
0.4690995255623376
 40
0.5908187317192657
 40
0.7071704211455595
 40
0.8182597698437927
 40
0.9243400839352178
 40
0.9243400839352178
 40
0.9243400839352178
 40
0.9243400839352178
 10
4.075362330517217
 20
-0.4005513939644639
 30
0.0
 10
4.079835375736345
 20
-0.3993191137829736
 30
0.0
 10
4.093316253075777
 20
-0.3956601254607481
 30
0.0
 10
4.115599977466512
 20
-0.390130588373105
 30
0.0
 10
4.1418378312662
 20
-0.3843209905301195
 30
0.0
 10
4.167121849456681
 20
-0.3795857441547004
 30
0.0
 10
4.191412942333981
 20
-0.3760277826309449
 30
0.0
 10
4.214716797953504
 20
-0.3733430029473842
 30
0.0
 10
4.237077687542949
 20
-0.3717922108116949
 30
0.0
 10
4.251664750435411
 20
-0.3715390849323959
 30
0.0
 10
4.258790056030248
 20
-0.3714154411764688
 30
0.0
  0
SPLINE
  5
ED
330
1F
100
AcDbEntity
  8
0
  6
Continuous
 62
     7
370
    25
100
AcDbSpline
210
0.0
220
0.0
230
1.0
 70
     8
 71
     3
 72
    15
 73
    11
 74
     0
 42
0.00000001
 43
0.00000001
 40
0.1353671238580521
 40
0.1353671238580521
 40
0.1353671238580521
 40
0.1353671238580521
 40
0.2335782511077003
 40
0.3397364634418463
 40
0.4527637615956946
 40
0.5734717719228228
 40
0.7016260215669157
 40
0.8382851018384336
 40
0.982726684667778
 40
1.0
 40
1.0
 40
1.0
 40
1.0
 10
4.255619100147894
 20
-0.4596507352941163
 30
0.0
 10
4.249089974005914
 20
-0.459758271266167
 30
0.0
 10
4.235503395427057
 20
-0.459982044846668
 30
0.0
 10
4.214471115106811
 20
-0.461868694322988
 30
0.0
 10
4.192092518963316
 20
-0.4649905551089776
 30
0.0
 10
4.168367458750322
 20
-0.4690266458425357
 30
0.0
 10
4.143387623695106
 20
-0.4747749536763488
 30
0.0
 10
4.11692020528373
 20
-0.4810762027256985
 30
0.0
 10
4.097858137320092
 20
-0.4865761246177308
 30
0.0
 10
4.087564993205211
 20
-0.4896777585335307
 30
0.0
 10
4.086465934716909
 20
-0.4900102762558879
 30
0.0
  0
SPLINE
  5
EE
330
1F
100
AcDbEntity
  8
0
  6
Continuous
 62
     7
370
    25
100
AcDbSpline
210
0.0
220
0.0
230
1.0
 70
     8
 71
     3
 72
    15
 73
    11
 74
     0
 42
0.00000001
 43
0.00000001
 40
0.0
 40
0.0
 40
0.0
 40
0.0
 40
0.1164986587963127
 40
0.2228476169951453
 40
0.3251535403526227
 40
0.4317783494373254
 40
0.547486373657446
 40
0.6790009108002844
 40
0.8283291338970116
 40
0.9999999999999999
 40
0.9999999999999999
 40
0.9999999999999999
 40
0.9999999999999999
 10
4.360674247206718
 20
-0.5309283088235285
 30
0.0
 10
4.360397385270871
 20
-0.5253234168260209
 30
0.0
 10
4.359867782412973
 20
-0.5146019472566331
 30
0.0
 10
4.354696693799885
 20
-0.4996668424418531
 30
0.0
 10
4.346333550129715
 20
-0.4868667149834435
 30
0.0
 10
4.334315377412659
 20
-0.4766542548848248
 30
0.0
 10
4.319069932851051
 20
-0.4689529497717675
 30
0.0
 10
4.300803755701065
 20
-0.4633837915016784
 30
0.0
 10
4.279259739961425
 20
-0.4601773948158447
 30
0.0
 10
4.263856682059143
 20
-0.4598342498260323
 30
0.0
 10
4.255619100147894
 20
-0.4596507352941163
 30
0.0
  0
SPLINE
  5
F4
330
1F
100
AcDbEntity
  8
0
  6
Continuous
 62
     7
370
    25
100
AcDbSpline
210
0.0
220
0.0
230
1.0
 70
     8
 71
     3
 72
    19
 73
    15
 74
     0
 42
0.00000001
 43
0.00000001
 40
0.0
 40
0.0
 40
0.0
 40
0.0
 40
0.1124919537624004
 40
0.2119338051974903
 40
0.3048424594464016
 40
0.3967116682019393
 40
0.4461281489848793
 40
0.5023985117232334
 40
0.565019989789125
 40
0.6359266372414929
 40
0.7134298186473613
 40
0.8007858550739541
 40
0.8962637355338866
 40
1.0
 40
1.0
 40
1.0
 40
1.0
 10
3.708422408971422
 20
-0.8920036764705871
 30
0.0
 10
3.713370813131334
 20
-0.8918084679875519
 30
0.0
 10
3.722693561009642
 20
-0.8914406970027573
 30
0.0
 10
3.735626547890776
 20
-0.8875667043425283
 30
0.0
 10
3.746670035595361
 20
-0.8815043370192224
 30
0.0
 10
3.753892767649015
 20
-0.8739628002664893
 30
0.0
 10
3.758477161859697
 20
-0.8665853700534807
 30
0.0
 10
3.761468791947898
 20
-0.8598090441737514
 30
0.0
 10
3.763914620683121
 20
-0.8518370566052995
 30
0.0
 10
3.765911760453817
 20
-0.8427926839132993
 30
0.0
 10
3.767628108986084
 20
-0.8325856838734582
 30
0.0
 10
3.768618620888922
 20
-0.821201175631548
 30
0.0
 10
3.769331201638405
 20
-0.8086486665355682
 30
0.0
 10
3.769440738021895
 20
-0.799909289168561
 30
0.0
 10
3.769497776618481
 20
-0.7953584558823527
 30
0.0
  0
SPLINE
  5
F5
330
1F
100
AcDbEntity
  8
0
  6
Continuous
 62
     7
370
    25
100
AcDbSpline
210
0.0
220
0.0
230
1.0
 70
     8
 71
     3
 72
    15
 73
    11
 74
     0
 42
0.00000001
 43
0.00000001
 40
0.0
 40
0.0
 40
0.0
 40
0.0
 40
0.1216055702414952
 40
0.2719036591204138
 40
0.4093360398470658
 40
0.5361540273317156
 40
0.6523320564822246
 40
0.7594433930878534
 40
0.8600849778517664
 40
0.9570981007064818
 40
0.9570981007064818
 40
0.9570981007064818
 40
0.9570981007064818
 10
3.579839175469582
 20
-0.8083298106637912
 30
0.0
 10
3.584062056647659
 20
-0.8135429703246874
 30
0.0
 10
3.593597564360282
 20
-0.8251188054327555
 30
0.0
 10
3.609157871001532
 20
-0.8415063491875201
 30
0.0
 10
3.625972894150089
 20
-0.8570382413613485
 30
0.0
 10
3.642806159682175
 20
-0.8696270630120074
 30
0.0
 10
3.659407512852694
 20
-0.8795725097867425
 30
0.0
 10
3.675804192768736
 20
-0.8867790204525831
 30
0.0
 10
3.692155566490702
 20
-0.8911641140204288
 30
0.0
 10
3.703066896679818
 20
-0.891727268370691
 30
0.0
 10
3.708422408971422
 20
-0.8920036764705871
 30
0.0
  0
SPLINE
  5
101
330
1F
100
AcDbEntity
  8
0
  6
Continuous
 62
     7
370
    25
100
AcDbSpline
210
0.0
220
0.0
230
1.0
 70
     8
 71
     3
 72
    18
 73
    14
 74
     0
 42
0.00000001
 43
0.00000001
 40
0.3275479493745057
 40
0.3275479493745057
 40
0.3275479493745057
 40
0.3275479493745057
 40
0.3988148762041587
 40
0.4676313664443797
 40
0.5335960711550404
 40
0.5975266439814539
 40
0.6593890639374378
 40
0.7200422817117393
 40
0.7789578725789481
 40
0.8377391499231012
 40
0.8955519709336437
 40
0.9537230588470209
 40
0.9999999999999999
 40
0.9999999999999999
 40
0.9999999999999999
 40
0.9999999999999999
 10
3.735306600147896
 20
-0.9978860294117636
 30
0.0
 10
3.730432917842943
 20
-0.9978076411054233
 30
0.0
 10
3.720853129554572
 20
-0.997653559790305
 30
0.0
 10
3.706802473296881
 20
-0.9964128550434277
 30
0.0
 10
3.693377205786575
 20
-0.9942884595985745
 30
0.0
 10
3.680520172539847
 20
-0.9916481752269031
 30
0.0
 10
3.668327822376585
 20
-0.9878561618568884
 30
0.0
 10
3.656778084840872
 20
-0.9833079957001829
 30
0.0
 10
3.64574083018554
 20
-0.9780820712013761
 30
0.0
 10
3.635462448725427
 20
-0.9718508082133821
 30
0.0
 10
3.625727114366522
 20
-0.9649073533687804
 30
0.0
 10
3.617209834550905
 20
-0.9577636542510832
 30
0.0
 10
3.612226701767628
 20
-0.9526403784497375
 30
0.0
 10
3.610079539515564
 20
-0.9503131360937416
 30
0.0
  0
SPLINE
  5
102
330
1F
100
AcDbEntity
  8
0
  6
Continuous
 62
     7
370
    25
100
AcDbSpline
210
0.0
220
0.0
230
1.0
 70
     8
 71
     3
 72
    23
 73
    19
 74
     0
 42
0.00000001
 43
0.00000001
 40
0.0
 40
0.0
 40
0.0
 40
0.0
 40
0.080631272242583
 40
0.1563078402936512
 40
0.2272999114584782
 40
0.2940743404827442
 40
0.3573043887746673
 40
0.4170388854317106
 40
0.4744941549197011
 40
0.5294514870007788
 40
0.5838677985387606
 40
0.6374904461689315
 40
0.6918059773416139
 40
0.7480322438714171
 40
0.8059623583722323
 40
0.8670482389814836
 40
0.9313842608153637
 40
1.0
 40
1.0
 40
1.0
 40
1.0
 10
3.884203658971427
 20
-0.8225183823529401
 30
0.0
 10
3.884119916867381
 20
-0.8296004475601422
 30
0.0
 10
3.88395757852072
 20
-0.8433293927518558
 30
0.0
 10
3.882080739031421
 20
-0.8632141002694633
 30
0.0
 10
3.879322625340869
 20
-0.8817719540567074
 30
0.0
 10
3.87505817371318
 20
-0.898910006728348
 30
0.0
 10
3.8701788727558
 20
-0.9148700686743237
 30
0.0
 10
3.86353366028281
 20
-0.9292886511646785
 30
0.0
 10
3.856051450095092
 20
-0.9424525082264887
 30
0.0
 10
3.847222067442755
 20
-0.9541854770123236
 30
0.0
 10
3.837332146509532
 20
-0.9645899308325108
 30
0.0
 10
3.826112418277237
 20
-0.9734345962388572
 30
0.0
 10
3.813924646811801
 20
-0.9812123534030117
 30
0.0
 10
3.800310218089637
 20
-0.9871022947296818
 30
0.0
 10
3.785719771441247
 20
-0.9920512529357939
 30
0.0
 10
3.769943734308078
 20
-0.9954075741631493
 30
0.0
 10
3.753011734824338
 20
-0.9975285648874834
 30
0.0
 10
3.741333617906034
 20
-0.9977643446533545
 30
0.0
 10
3.735306600147896
 20
-0.9978860294117636
 30
0.0
  0
SPLINE
  5
108
330
1F
100
AcDbEntity
  8
0
  6
Continuous
 62
     7
370
    25
100
AcDbSpline
210
0.0
220
0.0
230
1.0
 70
     8
 71
     3
 72
    13
 73
     9
 74
     0
 42
0.00000001
 43
0.00000001
 40
0.3550475705840487
 40
0.3550475705840487
 40
0.3550475705840487
 40
0.3550475705840487
 40
0.4841463466451644
 40
0.6062021927297429
 40
0.7235153317637519
 40
0.8400469641737308
 40
0.9580943047625732
 40
1.0
 40
1.0
 40
1.0
 40
1.0
 10
3.042521673677306
 20
-0.4684742647058808
 30
0.0
 10
3.050726090318133
 20
-0.4687853596888048
 30
0.0
 10
3.066687335065924
 20
-0.4693905779973875
 30
0.0
 10
3.089699724055808
 20
-0.4742826199772312
 30
0.0
 10
3.110865609319693
 20
-0.4824872489705749
 30
0.0
 10
3.130096231774829
 20
-0.4940851707959974
 30
0.0
 10
3.143489500460276
 20
-0.505566865875361
 30
0.0
 10
3.150451500182356
 20
-0.5129737920962478
 30
0.0
 10
3.152224756236531
 20
-0.514960236888129
 30
0.0
  0
SPLINE
  5
109
330
1F
100
AcDbEntity
  8
0
  6
Continuous
 62
     7
370
    25
100
AcDbSpline
210
0.0
220
0.0
230
1.0
 70
     8
 71
     3
 72
    22
 73
    18
 74
     0
 42
0.00000001
 43
0.00000001
 40
0.0
 40
0.0
 40
0.0
 40
0.0
 40
0.0036779999027859
 40
0.0728819108870453
 40
0.1391798981174601
 40
0.2030709204435226
 40
0.2648889437975553
 40
0.325808836749076
 40
0.3856761571841538
 40
0.4441424135736056
 40
0.5011126003206189
 40
0.5571777804141067
 40
0.6134457664047629
 40
0.6706155486898048
 40
0.7292925944464911
 40
0.790884330085363
 40
0.8557479508678346
 40
0.8557479508678346
 40
0.8557479508678346
 40
0.8557479508678346
 10
2.846030486916695
 20
-0.6650070496092315
 30
0.0
 10
2.846085451322096
 20
-0.664569529930109
 30
0.0
 10
2.84719280534846
 20
-0.6559021603801632
 30
0.0
 10
2.850002787874794
 20
-0.639443395715104
 30
0.0
 10
2.855566972686352
 20
-0.61617246730263
 30
0.0
 10
2.862930358519304
 20
-0.5943384691751362
 30
0.0
 10
2.871719021152448
 20
-0.573729967239304
 30
0.0
 10
2.882405796134377
 20
-0.5545883650613943
 30
0.0
 10
2.894446367979733
 20
-0.536752067066487
 30
0.0
 10
2.908102380313906
 20
-0.5207207946195759
 30
0.0
 10
2.923173043605758
 20
-0.5066588162498326
 30
0.0
 10
2.93975649194155
 20
-0.4948686790604641
 30
0.0
 10
2.957640773329865
 20
-0.4851108060004314
 30
0.0
 10
2.976956557688017
 20
-0.4777132416113936
 30
0.0
 10
2.997557035099216
 20
-0.472269077695843
 30
0.0
 10
3.019583918574059
 20
-0.4691087316310434
 30
0.0
 10
3.034744996891953
 20
-0.4686893705078987
 30
0.0
 10
3.042521673677306
 20
-0.4684742647058797
 30
0.0
  0
SPLINE
  5
115
330
1F
100
AcDbEntity
  8
0
  6
Continuous
 62
     7
370
    25
100
AcDbSpline
210
0.0
220
0.0
230
1.0
 70
     8
 71
     3
 72
    19
 73
    15
 74
     0
 42
0.00000001
 43
0.00000001
 40
0.3065357617464103
 40
0.3065357617464103
 40
0.3065357617464103
 40
0.3065357617464103
 40
0.3695969408083019
 40
0.4295474550518191
 40
0.4877765419775944
 40
0.5447417285387577
 40
0.6012902703973637
 40
0.6584900058503449
 40
0.7167827615842346
 40
0.7771619637103049
 40
0.8388328457759888
 40
0.9010380494332966
 40
0.9638173544188235
 40
1.0
 40
1.0
 40
1.0
 40
1.0
 10
3.06913012955966
 20
-0.9978860294117625
 30
0.0
 10
3.060613485500574
 20
-0.9976629125202888
 30
0.0
 10
3.044000304101619
 20
-0.997227684587137
 30
0.0
 10
3.019772089159758
 20
-0.9933826570011141
 30
0.0
 10
2.996898267600834
 20
-0.987228886724553
 30
0.0
 10
2.975368940184425
 20
-0.9784771872326888
 30
0.0
 10
2.955170671835653
 20
-0.9672527085241349
 30
0.0
 10
2.936525614164288
 20
-0.9533111852598606
 30
0.0
 10
2.919147720183247
 20
-0.9370681950873957
 30
0.0
 10
2.903392072363894
 20
-0.9184449276484068
 30
0.0
 10
2.889280275700809
 20
-0.8979253592888544
 30
0.0
 10
2.876840453961377
 20
-0.8759788620697806
 30
0.0
 10
2.86786743279022
 20
-0.8561275743169534
 30
0.0
 10
2.863236765046849
 20
-0.8435898192723488
 30
0.0
 10
2.86165710319823
 20
-0.8389668019201084
 30
0.0
  0
SPLINE
  5
116
330
1F
100
AcDbEntity
  8
0
  6
Continuous
 62
     7
370
    25
100
AcDbSpline
210
0.0
220
0.0
230
1.0
 70
     8
 71
     3
 72
    14
 73
    10
 74
     0
 42
0.00000001
 43
0.00000001
 40
0.0
 40
0.0
 40
0.0
 40
0.0
 40
0.0058025532153991
 40
0.1263417273946061
 40
0.2459787387504775
 40
0.3657216371908451
 40
0.48784783028797
 40
0.6153971944079717
 40
0.7494203248710327
 40
0.7494203248710327
 40
0.7494203248710327
 40
0.7494203248710327
 10
3.172882406970821
 20
-0.9576929242710815
 30
0.0
 10
3.172674016529645
 20
-0.9579019994394692
 30
0.0
 10
3.168121322646713
 20
-0.9624388495494693
 30
0.0
 10
3.158611671478712
 20
-0.9706103261558968
 30
0.0
 10
3.143231701667654
 20
-0.9806167157808034
 30
0.0
 10
3.126520060008434
 20
-0.9884011571443276
 30
0.0
 10
3.108525581794346
 20
-0.9939239225943883
 30
0.0
 10
3.089247136866053
 20
-0.9972927145097735
 30
0.0
 10
3.075945534291289
 20
-0.9976850213229973
 30
0.0
 10
3.06913012955966
 20
-0.9978860294117625
 30
0.0
  0
SPLINE
  5
125
330
1F
100
AcDbEntity
  8
0
  6
Continuous
 62
     7
370
    25
100
AcDbSpline
210
0.0
220
0.0
230
1.0
 70
     8
 71
     3
 72
    23
 73
    19
 74
     0
 42
0.00000001
 43
0.00000001
 40
0.0
 40
0.0
 40
0.0
 40
0.0
 40
0.0734541148053131
 40
0.1422288782262486
 40
0.2064796533943283
 40
0.2669820382147859
 40
0.3242553358945859
 40
0.378789310374185
 40
0.4318866141749697
 40
0.4843405133478693
 40
0.5378870847341708
 40
0.5930902461479146
 40
0.6513812873559308
 40
0.7128334015404754
 40
0.7778715109817116
 40
0.8471037576460342
 40
0.9211528653585976
 40
1.0
 40
1.0
 40
1.0
 40
1.0
 10
2.594803225666764
 20
-1.183794533444584
 30
0.0
 10
2.58606635378539
 20
-1.183592406562486
 30
0.0
 10
2.569149187331371
 20
-1.18320102917299
 30
0.0
 10
2.544675619512577
 20
-1.18068050970002
 30
0.0
 10
2.522098579460698
 20
-1.176057652700607
 30
0.0
 10
2.501259815928488
 20
-1.170016531184598
 30
0.0
 10
2.482437573736875
 20
-1.161786113736259
 30
0.0
 10
2.465350993857689
 20
-1.152036762562529
 30
0.0
 10
2.450393190060259
 20
-1.140148717992334
 30
0.0
 10
2.437079844188527
 20
-1.126629376722141
 30
0.0
 10
2.425608452596566
 20
-1.111188208605513
 30
0.0
 10
2.415792718868108
 20
-1.093866286318792
 30
0.0
 10
2.407404890080731
 20
-1.074787631137225
 30
0.0
 10
2.400487672371495
 20
-1.053884963946026
 30
0.0
 10
2.395385911951676
 20
-1.031143643331963
 30
0.0
 10
2.391457560505895
 20
-1.006658836677101
 30
0.0
 10
2.389351523226283
 20
-0.9802926306655654
 30
0.0
 10
2.38900675476812
 20
-0.9621066789231714
 30
0.0
 10
2.388828960960879
 20
-0.9527283569739955
 30
0.0
  0
SPLINE
  5
126
330
1F
100
AcDbEntity
  8
0
  6
Continuous
 62
     7
370
    25
100
AcDbSpline
210
0.0
220
0.0
230
1.0
 70
     8
 71
     3
 72
    11
 73
     7
 74
     0
 42
0.00000001
 43
0.00000001
 40
0.0
 40
0.0
 40
0.0
 40
0.0
 40
0.1775056107739376
 40
0.4346008092154512
 40
0.6759099104377766
 40
0.9020939380159558
 40
0.9020939380159558
 40
0.9020939380159558
 40
0.9020939380159558
 10
2.72775708429897
 20
-1.160815924371709
 30
0.0
 10
2.719279175339357
 20
-1.163475731458934
 30
0.0
 10
2.698460378701037
 20
-1.169763105116925
 30
0.0
 10
2.665421490891332
 20
-1.177133139491205
 30
0.0
 10
2.629535471826128
 20
-1.182825986164899
 30
0.0
 10
2.606128204802841
 20
-1.183478723816711
 30
0.0
 10
2.594803225666764
 20
-1.183794533444584
 30
0.0
  0
SPLINE
  5
12A
330
1F
100
AcDbEntity
  8
0
  6
Continuous
 62
     7
370
    25
100
AcDbSpline
210
0.0
220
0.0
230
1.0
 70
     8
 71
     3
 72
    14
 73
    10
 74
     0
 42
0.00000001
 43
0.00000001
 40
0.1838427400576221
 40
0.1838427400576221
 40
0.1838427400576221
 40
0.1838427400576221
 40
0.2902192329202016
 40
0.4015266610009642
 40
0.5180810673850935
 40
0.6392650697660944
 40
0.7664301694160303
 40
0.8996084475352069
 40
0.9999999999999999
 40
0.9999999999999999
 40
0.9999999999999999
 40
0.9999999999999999
 10
2.59425175507901
 20
-1.09555923932678
 30
0.0
 10
2.599631848131071
 20
-1.095438694827897
 30
0.0
 10
2.610641421008469
 20
-1.095192018156585
 30
0.0
 10
2.627483062100019
 20
-1.093592666395884
 30
0.0
 10
2.644964556252094
 20
-1.091110070565374
 30
0.0
 10
2.663103761317892
 20
-1.08766286487109
 30
0.0
 10
2.68184694473062
 20
-1.083049179831214
 30
0.0
 10
2.699396981853154
 20
-1.078056154157398
 30
0.0
 10
2.710665699556722
 20
-1.074504080641939
 30
0.0
 10
2.715486024210112
 20
-1.072908709690588
 30
0.0
  0
SPLINE
  5
12B
330
1F
100
AcDbEntity
  8
0
  6
Continuous
 62
     7
370
    25
100
AcDbSpline
210
0.0
220
0.0
230
1.0
 70
     8
 71
     3
 72
    23
 73
    19
 74
     0
 42
0.00000001
 43
0.00000001
 40
0.0
 40
0.0
 40
0.0
 40
0.0
 40
0.0980762616659006
 40
0.1879983119607551
 40
0.2698158994515846
 40
0.34385693472693
 40
0.4104616654549115
 40
0.4691455185595581
 40
0.5218416911259012
 40
0.567899907264561
 40
0.6117557551432606
 40
0.6567642158851863
 40
0.7041139203357212
 40
0.7541343472983886
 40
0.8085412916733288
 40
0.8668359902659859
 40
0.9305635091027862
 40
1.0
 40
1.0
 40
1.0
 40
1.0
 10
2.503534843314306
 20
-0.9691346069738388
 30
0.0
 10
2.503564117949071
 20
-0.9751110014164152
 30
0.0
 10
2.503620233280403
 20
-0.9865669036677022
 30
0.0
 10
2.50469170890863
 20
-1.002974765491825
 30
0.0
 10
2.505937930518737
 20
-1.017900354487049
 30
0.0
 10
2.507982542238697
 20
-1.031310258323592
 30
0.0
 10
2.510691346511001
 20
-1.043162066685073
 30
0.0
 10
2.514018452654436
 20
-1.053493949424337
 30
0.0
 10
2.517766703076999
 20
-1.062347020555874
 30
0.0
 10
2.522298366336166
 20
-1.069801227445374
 30
0.0
 10
2.52768503947679
 20
-1.07606238500662
 30
0.0
 10
2.53413355444941
 20
-1.081346732328884
 30
0.0
 10
2.541644706478274
 20
-1.08574873773204
 30
0.0
 10
2.55019549407092
 20
-1.089312399044286
 30
0.0
 10
2.559688028841405
 20
-1.092250518251199
 30
0.0
 10
2.570301765721759
 20
-1.094054795288332
 30
0.0
 10
2.581902943547178
 20
-1.095363742453732
 30
0.0
 10
2.590019494364699
 20
-1.095492237434863
 30
0.0
 10
2.59425175507901
 20
-1.095559239326781
 30
0.0
  0
SPLINE
  5
13D
330
1F
100
AcDbEntity
  8
0
  6
Continuous
 62
     7
370
    25
100
AcDbSpline
210
0.0
220
0.0
230
1.0
 70
     8
 71
     3
 72
    19
 73
    15
 74
     0
 42
0.00000001
 43
0.00000001
 40
0.0
 40
0.0
 40
0.0
 40
0.0
 40
0.1124919537623997
 40
0.2119338051974915
 40
0.3048424594464029
 40
0.3967116682019398
 40
0.4461281489848796
 40
0.5023985117232337
 40
0.5650199897891256
 40
0.6359266372414932
 40
0.7134298186473607
 40
0.8007858550739542
 40
0.8962637355338877
 40
1.0
 40
1.0
 40
1.0
 40
1.0
 10
2.004570370344432
 20
-0.8944828723047263
 30
0.0
 10
2.009518774504345
 20
-0.8942876638216911
 30
0.0
 10
2.01884152238265
 20
-0.8939198928368965
 30
0.0
 10
2.031774509263784
 20
-0.8900459001766686
 30
0.0
 10
2.042817996968371
 20
-0.8839835328533606
 30
0.0
 10
2.050040729022025
 20
-0.8764419961006287
 30
0.0
 10
2.054625123232705
 20
-0.8690645658876188
 30
0.0
 10
2.057616753320906
 20
-0.8622882400078906
 30
0.0
 10
2.060062582056129
 20
-0.8543162524394388
 30
0.0
 10
2.062059721826826
 20
-0.8452718797474386
 30
0.0
 10
2.063776070359094
 20
-0.8350648797075964
 30
0.0
 10
2.06476658226193
 20
-0.8236803714656862
 30
0.0
 10
2.065479163011411
 20
-0.8111278623697075
 30
0.0
 10
2.065588699394905
 20
-0.8023884850027002
 30
0.0
 10
2.065645737991491
 20
-0.7978376517164908
 30
0.0
  0
SPLINE
  5
13E
330
1F
100
AcDbEntity
  8
0
  6
Continuous
 62
     7
370
    25
100
AcDbSpline
210
0.0
220
0.0
230
1.0
 70
     8
 71
     3
 72
    15
 73
    11
 74
     0
 42
0.00000001
 43
0.00000001
 40
0.0
 40
0.0
 40
0.0
 40
0.0
 40
0.1216055702414764
 40
0.2719036591203954
 40
0.409336039847048
 40
0.5361540273316971
 40
0.6523320564822064
 40
0.759443393087835
 40
0.8600849778517485
 40
0.9570981007064636
 40
0.9570981007064636
 40
0.9570981007064636
 40
0.9570981007064636
 10
1.875987136842594
 20
-0.8108090064979315
 30
0.0
 10
1.880210018020672
 20
-0.8160221661588256
 30
0.0
 10
1.889745525733293
 20
-0.8275980012668936
 30
0.0
 10
1.90530583237454
 20
-0.8439855450216605
 30
0.0
 10
1.9221208555231
 20
-0.8595174371954889
 30
0.0
 10
1.938954121055183
 20
-0.8721062588461478
 30
0.0
 10
1.955555474225702
 20
-0.8820517056208851
 30
0.0
 10
1.971952154141744
 20
-0.8892582162867256
 30
0.0
 10
1.988303527863712
 20
-0.8936433098545713
 30
0.0
 10
1.999214858052828
 20
-0.8942064642048325
 30
0.0
 10
2.004570370344432
 20
-0.8944828723047263
 30
0.0
  0
SPLINE
  5
14A
330
1F
100
AcDbEntity
  8
0
  6
Continuous
 62
     7
370
    25
100
AcDbSpline
210
0.0
220
0.0
230
1.0
 70
     8
 71
     3
 72
    18
 73
    14
 74
     0
 42
0.00000001
 43
0.00000001
 40
0.3275479493745048
 40
0.3275479493745048
 40
0.3275479493745048
 40
0.3275479493745048
 40
0.3988148762041581
 40
0.4676313664443788
 40
0.5335960711550403
 40
0.5975266439814537
 40
0.6593890639374376
 40
0.7200422817117393
 40
0.778957872578947
 40
0.8377391499231008
 40
0.8955519709336421
 40
0.9537230588470198
 40
1.0
 40
1.0
 40
1.0
 40
1.0
 10
2.031454561520902
 20
-1.000365225245903
 30
0.0
 10
2.026580879215949
 20
-1.000286836939564
 30
0.0
 10
2.01700109092758
 20
-1.000132755624445
 30
0.0
 10
2.002950434669887
 20
-0.9988920508775669
 30
0.0
 10
1.989525167159581
 20
-0.9967676554327137
 30
0.0
 10
1.976668133912851
 20
-0.9941273710610412
 30
0.0
 10
1.964475783749591
 20
-0.9903353576910288
 30
0.0
 10
1.952926046213878
 20
-0.9857871915343221
 30
0.0
 10
1.941888791558549
 20
-0.9805612670355165
 30
0.0
 10
1.931610410098435
 20
-0.9743300040475192
 30
0.0
 10
1.921875075739527
 20
-0.9673865492029197
 30
0.0
 10
1.913357795923911
 20
-0.9602428500852226
 30
0.0
 10
1.908374663140634
 20
-0.9551195742838778
 30
0.0
 10
1.906227500888573
 20
-0.9527923319278808
 30
0.0
  0
SPLINE
  5
14B
330
1F
100
AcDbEntity
  8
0
  6
Continuous
 62
     7
370
    25
100
AcDbSpline
210
0.0
220
0.0
230
1.0
 70
     8
 71
     3
 72
    23
 73
    19
 74
     0
 42
0.00000001
 43
0.00000001
 40
0.0
 40
0.0
 40
0.0
 40
0.0
 40
0.0806312722425827
 40
0.1563078402936513
 40
0.2272999114584788
 40
0.2940743404827444
 40
0.3573043887746677
 40
0.4170388854317109
 40
0.4744941549197015
 40
0.5294514870007792
 40
0.5838677985387607
 40
0.6374904461689315
 40
0.6918059773416136
 40
0.7480322438714172
 40
0.8059623583722332
 40
0.8670482389814841
 40
0.9313842608153645
 40
1.0
 40
1.0
 40
1.0
 40
1.0
 10
2.18035162034443
 20
-0.8249975781870804
 30
0.0
 10
2.180267878240387
 20
-0.8320796433942825
 30
0.0
 10
2.180105539893729
 20
-0.8458085885859962
 30
0.0
 10
2.178228700404424
 20
-0.8656932961036037
 30
0.0
 10
2.175470586713872
 20
-0.8842511498908466
 30
0.0
 10
2.171206135086186
 20
-0.9013892025624872
 30
0.0
 10
2.166326834128804
 20
-0.917349264508463
 30
0.0
 10
2.159681621655816
 20
-0.9317678469988178
 30
0.0
 10
2.1521994114681
 20
-0.944931704060628
 30
0.0
 10
2.143370028815766
 20
-0.956664672846464
 30
0.0
 10
2.133480107882541
 20
-0.9670691266666511
 30
0.0
 10
2.122260379650246
 20
-0.9759137920729964
 30
0.0
 10
2.110072608184809
 20
-0.9836915492371489
 30
0.0
 10
2.096458179462643
 20
-0.989581490563821
 30
0.0
 10
2.081867732814251
 20
-0.9945304487699331
 30
0.0
 10
2.066091695681084
 20
-0.9978867699972863
 30
0.0
 10
2.049159696197344
 20
-1.000007760721619
 30
0.0
 10
2.037481579279038
 20
-1.000243540487491
 30
0.0
 10
2.031454561520902
 20
-1.000365225245903
 30
0.0
  0
SPLINE
  5
14D
330
1F
100
AcDbEntity
  8
0
  6
Continuous
 62
     7
370
    25
100
AcDbSpline
210
0.0
220
0.0
230
1.0
 70
     8
 71
     3
 72
    23
 73
    19
 74
     0
 42
0.00000001
 43
0.00000001
 40
0.0
 40
0.0
 40
0.0
 40
0.0
 40
0.0637952722686678
 40
0.1253982454797954
 40
0.1856270018089812
 40
0.2444936171241121
 40
0.3032666530216299
 40
0.3620825979675647
 40
0.4218309081873707
 40
0.4832524289477593
 40
0.5453079439822703
 40
0.606492522171743
 40
0.6679439075307003
 40
0.7299673837340501
 40
0.7939051004276986
 40
0.8598592189375057
 40
0.928390710436101
 40
1.0
 40
1.0
 40
1.0
 40
1.0
 10
1.303789120344433
 20
-0.920953460540021
 30
0.0
 10
1.311292522814673
 20
-0.9207937947931646
 30
0.0
 10
1.326041476325436
 20
-0.9204799501490879
 30
0.0
 10
1.347658262869701
 20
-0.9172352682903603
 30
0.0
 10
1.368414550224901
 20
-0.9125919497728927
 30
0.0
 10
1.388133518901814
 20
-0.9055277299142599
 30
0.0
 10
1.406991152624298
 20
-0.89679761267046
 30
0.0
 10
1.424673376261314
 20
-0.8856893255020246
 30
0.0
 10
1.441650564322171
 20
-0.873019426068629
 30
0.0
 10
1.457381195211793
 20
-0.8582584931625579
 30
0.0
 10
1.471852153852152
 20
-0.8420294837688684
 30
0.0
 10
1.484278239751001
 20
-0.8241819980247018
 30
0.0
 10
1.495019532819707
 20
-0.8052773103396692
 30
0.0
 10
1.50354142440822
 20
-0.7849188514747203
 30
0.0
 10
1.510328554644442
 20
-0.7633747924758456
 30
0.0
 10
1.515101444411362
 20
-0.7405167089383607
 30
0.0
 10
1.518065604350728
 20
-0.7164360670814082
 30
0.0
 10
1.518410618668619
 20
-0.6999604332347145
 30
0.0
 10
1.518586914462079
 20
-0.6915416958341388
 30
0.0
  0
SPLINE
  5
14E
330
1F
100
AcDbEntity
  8
0
  6
Continuous
 62
     7
370
    25
100
AcDbSpline
210
0.0
220
0.0
230
1.0
 70
     8
 71
     3
 72
     9
 73
     5
 74
     0
 42
0.00000001
 43
0.00000001
 40
0.0
 40
0.0
 40
0.0
 40
0.0
 40
0.1715384034371384
 40
0.6449724543304227
 40
0.6449724543304227
 40
0.6449724543304227
 40
0.6449724543304227
 10
1.271525044617095
 20
-0.9189741952328314
 30
0.0
 10
1.274371395584382
 20
-0.9193118445084998
 30
0.0
 10
1.28508620118652
 20
-0.9204339029147913
 30
0.0
 10
1.295871964338005
 20
-0.9207335259544872
 30
0.0
 10
1.303789120344433
 20
-0.920953460540021
 30
0.0
  0
SPLINE
  5
15A
330
1F
100
AcDbEntity
  8
0
  6
Continuous
 62
     7
370
    25
100
AcDbSpline
210
0.0
220
0.0
230
1.0
 70
     8
 71
     3
 72
    15
 73
    11
 74
     0
 42
0.00000001
 43
0.00000001
 40
0.0756729396310928
 40
0.0756729396310928
 40
0.0756729396310928
 40
0.0756729396310928
 40
0.1872029826558883
 40
0.3018545970812434
 40
0.4205094985763351
 40
0.5435626719018111
 40
0.669604147866957
 40
0.8003377098723965
 40
0.9357441614410537
 40
1.0
 40
1.0
 40
1.0
 40
1.0
 10
1.329432502697465
 20
-1.009188754657638
 30
0.0
 10
1.322213926548382
 20
-1.009083682494228
 30
0.0
 10
1.30757473630377
 20
-1.008870597343117
 30
0.0
 10
1.285321713818004
 20
-1.007064348335652
 30
0.0
 10
1.262391723167947
 20
-1.004549783611374
 30
0.0
 10
1.238917191238361
 20
-1.000582087091972
 30
0.0
 10
1.214804423862872
 20
-0.9957890338049945
 30
0.0
 10
1.19014786345471
 20
-0.9897592002813455
 30
0.0
 10
1.169480043954542
 20
-0.9842593554383977
 30
0.0
 10
1.157131618388372
 20
-0.9804597141409026
 30
0.0
 10
1.153165535319845
 20
-0.9792102418862414
 30
0.0
  0
SPLINE
  5
15B
330
1F
100
AcDbEntity
  8
0
  6
Continuous
 62
     7
370
    25
100
AcDbSpline
210
0.0
220
0.0
230
1.0
 70
     8
 71
     3
 72
    23
 73
    19
 74
     0
 42
0.00000001
 43
0.00000001
 40
0.0
 40
0.0
 40
0.0
 40
0.0
 40
0.0686263567183424
 40
0.1340954420800547
 40
0.197554392059629
 40
0.2591977837889544
 40
0.3196129379517999
 40
0.3795606171187336
 40
0.4399561544303557
 40
0.5010357845307374
 40
0.5623010000052662
 40
0.6222493168015435
 40
0.6820961651987805
 40
0.7423706965446858
 40
0.8038377297382727
 40
0.8666969149872744
 40
0.9319261796157516
 40
1.0
 40
1.0
 40
1.0
 40
1.0
 10
1.642116326226877
 20
-0.6945747840694029
 30
0.0
 10
1.641849219363001
 20
-0.7059830056480743
 30
0.0
 10
1.641327294337301
 20
-0.7282745943188519
 30
0.0
 10
1.637310775886969
 20
-0.7609270218510483
 30
0.0
 10
1.630395680394803
 20
-0.791884114758906
 30
0.0
 10
1.620876334644421
 20
-0.8212604658016105
 30
0.0
 10
1.608730508845244
 20
-0.8490296293571159
 30
0.0
 10
1.593696965532582
 20
-0.875104680011166
 30
0.0
 10
1.576038090727749
 20
-0.8996214206517652
 30
0.0
 10
1.555569864919617
 20
-0.9221338493606793
 30
0.0
 10
1.533173318922232
 20
-0.9426164968811882
 30
0.0
 10
1.508810908150265
 20
-0.9603789850533514
 30
0.0
 10
1.482933061296932
 20
-0.9755296650835005
 30
0.0
 10
1.455294956448656
 20
-0.9877868023387092
 30
0.0
 10
1.426141855107931
 20
-0.9975346796441176
 30
0.0
 10
1.395294844846333
 20
-1.0041594896794
 30
0.0
 10
1.362917623520412
 20
-1.008455018880683
 30
0.0
 10
1.340751874677846
 20
-1.008940721262787
 30
0.0
 10
1.329432502697465
 20
-1.009188754657638
 30
0.0
  0
SPLINE
  5
15C
330
1F
100
AcDbEntity
  8
0
  6
Continuous
 62
     7
370
    25
100
AcDbSpline
210
0.0
220
0.0
230
1.0
 70
     8
 71
     3
 72
    23
 73
    19
 74
     0
 42
0.00000001
 43
0.00000001
 40
0.0
 40
0.0
 40
0.0
 40
0.0
 40
0.0674502870840328
 40
0.1323538207191959
 40
0.1947576264073801
 40
0.2556616422494313
 40
0.3153608250831331
 40
0.3749373026760086
 40
0.4349899755505646
 40
0.4958625583321968
 40
0.556814001219323
 40
0.6171658858424465
 40
0.6775171486497946
 40
0.7381321084283761
 40
0.800514862736967
 40
0.8644043984013646
 40
0.9306335184247386
 40
0.9999999999999999
 40
0.9999999999999999
 40
0.9999999999999999
 40
0.9999999999999999
 10
1.329983973285702
 20
-0.3738946370105785
 30
0.0
 10
1.341300735359704
 20
-0.3741548154761692
 30
0.0
 10
1.36350696699217
 20
-0.3746653487218919
 30
0.0
 10
1.395985839554894
 20
-0.3788055586225668
 30
0.0
 10
1.426779206932258
 20
-0.3859386929508806
 30
0.0
 10
1.456027689766087
 20
-0.3954535961000338
 30
0.0
 10
1.483504745227344
 20
-0.4081905617997112
 30
0.0
 10
1.509467648912088
 20
-0.4234963171607505
 30
0.0
 10
1.533625302158916
 20
-0.4418523323130398
 30
0.0
 10
1.556047849744358
 20
-0.4626056900007023
 30
0.0
 10
1.576322270949888
 20
-0.4855520275997995
 30
0.0
 10
1.593874680572932
 20
-0.5105293498718831
 30
0.0
 10
1.608836725137712
 20
-0.5370693777402918
 30
0.0
 10
1.621066534997948
 20
-0.5653499582263305
 30
0.0
 10
1.630544893036597
 20
-0.5952877007563392
 30
0.0
 10
1.637281719272917
 20
-0.6269110706611069
 30
0.0
 10
1.641335542430273
 20
-0.660185977261464
 30
0.0
 10
1.641852081133332
 20
-0.6829363849230867
 30
0.0
 10
1.642116326226877
 20
-0.6945747840694029
 30
0.0
  0
SPLINE
  5
15D
330
1F
100
AcDbEntity
  8
0
  6
Continuous
 62
     7
370
    25
100
AcDbSpline
210
0.0
220
0.0
230
1.0
 70
     8
 71
     3
 72
    15
 73
    11
 74
     0
 42
0.00000001
 43
0.00000001
 40
0.0
 40
0.0
 40
0.0
 40
0.0
 40
0.0599839733948098
 40
0.1963056195665205
 40
0.3274039379697032
 40
0.4539405558359365
 40
0.5765202588479523
 40
0.6948126321699476
 40
0.8087848753824709
 40
0.9195810397038575
 40
0.9195810397038575
 40
0.9195810397038575
 40
0.9195810397038575
 10
1.162279634508983
 20
-0.4015765971253382
 30
0.0
 10
1.165833247537241
 20
-0.4005161535274879
 30
0.0
 10
1.17747362611816
 20
-0.3970804912413604
 30
0.0
 10
1.196989755619212
 20
-0.3916818509170801
 30
0.0
 10
1.220780183899165
 20
-0.3864426937314242
 30
0.0
 10
1.243814134297412
 20
-0.3817200778885632
 30
0.0
 10
1.26629281489271
 20
-0.3784142999144552
 30
0.0
 10
1.288058160559966
 20
-0.3756114787535275
 30
0.0
 10
1.309241928542932
 20
-0.3743106678430223
 30
0.0
 10
1.323135398702946
 20
-0.3740320013938904
 30
0.0
 10
1.329983973285702
 20
-0.3738946370105785
 30
0.0
  0
SPLINE
  5
161
330
1F
100
AcDbEntity
  8
0
  6
Continuous
 62
     7
370
    25
100
AcDbSpline
210
0.0
220
0.0
230
1.0
 70
     8
 71
     3
 72
    14
 73
    10
 74
     0
 42
0.00000001
 43
0.00000001
 40
0.150027531841181
 40
0.150027531841181
 40
0.150027531841181
 40
0.150027531841181
 40
0.2520803901547362
 40
0.3603774028743301
 40
0.4745288617075171
 40
0.5956809003448085
 40
0.7234235260096566
 40
0.8583112470445511
 40
1.0
 40
1.0
 40
1.0
 40
1.0
 10
1.331638385050314
 20
-0.4621299311282566
 30
0.0
 10
1.325200218973736
 20
-0.4622801227152367
 30
0.0
 10
1.311929964457816
 20
-0.4625896954354292
 30
0.0
 10
1.29154366804952
 20
-0.4646321281297282
 30
0.0
 10
1.270094601049719
 20
-0.4677992861892669
 30
0.0
 10
1.247637565396504
 20
-0.4723625404197112
 30
0.0
 10
1.224192973202232
 20
-0.4784249082316485
 30
0.0
 10
1.199647637127693
 20
-0.4853730737438487
 30
0.0
 10
1.183076473300777
 20
-0.4908548634305627
 30
0.0
 10
1.174646063556184
 20
-0.4938257701032386
 30
0.0
  0
SPLINE
  5
162
330
1F
100
AcDbEntity
  8
0
  6
Continuous
 62
     7
370
    25
100
AcDbSpline
210
0.0
220
0.0
230
1.0
 70
     8
 71
     3
 72
    23
 73
    19
 74
     0
 42
0.00000001
 43
0.00000001
 40
0.0
 40
0.0
 40
0.0
 40
0.0
 40
0.0763360171668983
 40
0.1488955938377506
 40
0.218813975767195
 40
0.2858760358676624
 40
0.3509210948438102
 40
0.4146869317491653
 40
0.4773973067130628
 40
0.54010768167696
 40
0.6014519589179219
 40
0.6605565918585067
 40
0.7176979690511665
 40
0.7738637050067337
 40
0.8292189710665436
 40
0.8849450862711308
 40
0.9415593106721221
 40
1.0
 40
1.0
 40
1.0
 40
1.0
 10
1.518586914462079
 20
-0.6915416958341388
 30
0.0
 10
1.518455956864201
 20
-0.6831230151357794
 30
0.0
 10
1.518200520308464
 20
-0.6667021366509598
 30
0.0
 10
1.515396732508903
 20
-0.6427171807714449
 30
0.0
 10
1.511449137976192
 20
-0.6199367154856721
 30
0.0
 10
1.505428965394927
 20
-0.5984626720353018
 30
0.0
 10
1.497906440493736
 20
-0.5781885677285995
 30
0.0
 10
1.488427709409566
 20
-0.5592881079292102
 30
0.0
 10
1.477550348609513
 20
-0.5414576378197071
 30
0.0
 10
1.464883951137182
 20
-0.5251772800338315
 30
0.0
 10
1.451026276869352
 20
-0.5104541381708504
 30
0.0
 10
1.436233326411246
 20
-0.4975847690247139
 30
0.0
 10
1.420704417414248
 20
-0.4865667764002278
 30
0.0
 10
1.404392998343575
 20
-0.477566580678776
 30
0.0
 10
1.387285159078316
 20
-0.470554668766192
 30
0.0
 10
1.369377341157987
 20
-0.4658537618879842
 30
0.0
 10
1.35078133592562
 20
-0.4626074090527049
 30
0.0
 10
1.338086544111479
 20
-0.4622907659768171
 30
0.0
 10
1.331638385050316
 20
-0.4621299311282566
 30
0.0
  0
SPLINE
  5
164
330
1F
100
AcDbEntity
  8
0
  6
Continuous
 62
     7
370
    25
100
AcDbSpline
210
0.0
220
0.0
230
1.0
 70
     8
 71
     3
 72
    14
 73
    10
 74
     0
 42
0.00000001
 43
0.00000001
 40
0.1520080689833169
 40
0.1520080689833169
 40
0.1520080689833169
 40
0.1520080689833169
 40
0.2767593903693624
 40
0.3988115821820718
 40
0.5195085192559102
 40
0.641376246195163
 40
0.7637702780433019
 40
0.8893688841503129
 40
1.0
 40
1.0
 40
1.0
 40
1.0
 10
0.866472943873844
 20
-1.000365225245903
 30
0.0
 10
0.8589717694845778
 20
-1.000144526394176
 30
0.0
 10
0.8441317167154503
 20
-0.9997079037487324
 30
0.0
 10
0.8222155069870973
 20
-0.9964885162318194
 30
0.0
 10
0.8009628943759045
 20
-0.9910049986812539
 30
0.0
 10
0.7802527230615569
 20
-0.9836439621055972
 30
0.0
 10
0.7602434106020786
 20
-0.973842479395473
 30
0.0
 10
0.7418739055509007
 20
-0.9625072459446322
 30
0.0
 10
0.730417109731706
 20
-0.9540788268147429
 30
0.0
 10
0.7252296535155903
 20
-0.9499157058384973
 30
0.0
  0
SPLINE
  5
165
330
1F
100
AcDbEntity
  8
0
  6
Continuous
 62
     7
370
    25
100
AcDbSpline
210
0.0
220
0.0
230
1.0
 70
     8
 71
     3
 72
     9
 73
     5
 74
     0
 42
0.00000001
 43
0.00000001
 40
0.0
 40
0.0
 40
0.0
 40
0.0
 40
0.0127900596265321
 40
0.0839256105772491
 40
0.0839256105772491
 40
0.0839256105772491
 40
0.0839256105772491
 10
0.8872848284305695
 20
-0.9994247543734409
 30
0.0
 10
0.8862305110388846
 20
-0.99951724477593
 30
0.0
 10
0.8793080194442279
 20
-1.00006736723648
 30
0.0
 10
0.8723611376884425
 20
-1.000228580496202
 30
0.0
 10
0.866472943873844
 20
-1.000365225245903
 30
0.0
  0
SPLINE
  5
16F
330
1F
100
AcDbEntity
  8
0
  6
Continuous
 62
     7
370
    25
100
AcDbSpline
210
0.0
220
0.0
230
1.0
 70
     8
 71
     3
 72
    14
 73
    10
 74
     0
 42
0.00000001
 43
0.00000001
 40
0.1927137488069407
 40
0.1927137488069407
 40
0.1927137488069407
 40
0.1927137488069407
 40
0.2768536336314364
 40
0.3713086802861021
 40
0.4774563817423053
 40
0.5963635165742105
 40
0.7275765096821493
 40
0.8705741042135866
 40
1.0
 40
1.0
 40
1.0
 40
1.0
 10
0.6143130174035386
 20
-1.000365225245373
 30
0.0
 10
0.6118724632872771
 20
-1.000330409443171
 30
0.0
 10
0.6066921543758277
 20
-1.000256509581992
 30
0.0
 10
0.5985383627304657
 20
-0.9989082927161945
 30
0.0
 10
0.5893792995401552
 20
-0.9975599224811715
 30
0.0
 10
0.5793623345285996
 20
-0.9950333849908345
 30
0.0
 10
0.5683086379372558
 20
-0.9922844672743499
 30
0.0
 10
0.5572087899548349
 20
-0.9885887368198416
 30
0.0
 10
0.5496687426503822
 20
-0.9862545841429333
 30
0.0
 10
0.546109404160119
 20
-0.9850788217189653
 30
0.0
  0
SPLINE
  5
170
330
1F
100
AcDbEntity
  8
0
  6
Continuous
 62
     7
370
    25
100
AcDbSpline
210
0.0
220
0.0
230
1.0
 70
     8
 71
     3
 72
    14
 73
    10
 74
     0
 42
0.00000001
 43
0.00000001
 40
0.0
 40
0.0
 40
0.0
 40
0.0
 40
0.0527282249642784
 40
0.1732961312942147
 40
0.2888579189361091
 40
0.4033813066065964
 40
0.5234293419985268
 40
0.6502124904800707
 40
0.7880704156149375
 40
0.7880704156149375
 40
0.7880704156149375
 40
0.7880704156149375
 10
0.6950506374600858
 20
-0.956128205155886
 30
0.0
 10
0.694032508522666
 20
-0.9580440398629539
 30
0.0
 10
0.6904673450664207
 20
-0.9642247036522172
 30
0.0
 10
0.6832940871760018
 20
-0.9737546047552412
 30
0.0
 10
0.6726693994643826
 20
-0.9836095342507543
 30
0.0
 10
0.6603554566139833
 20
-0.9912233921282575
 30
0.0
 10
0.6464257658073059
 20
-0.9965687548743869
 30
0.0
 10
0.6308629255563527
 20
-0.9997701035287834
 30
0.0
 10
0.6199814439243448
 20
-1.0001613930736
 30
0.0
 10
0.6143130174035386
 20
-1.000365225245373
 30
0.0
  0
SPLINE
  5
174
330
1F
100
AcDbEntity
  8
0
  6
Continuous
 62
     7
370
    25
100
AcDbSpline
210
0.0
220
0.0
230
1.0
 70
     8
 71
     3
 72
    23
 73
    19
 74
     0
 42
0.00000001
 43
0.00000001
 40
0.0
 40
0.0
 40
0.0
 40
0.0
 40
0.0843564796994377
 40
0.1622662924074162
 40
0.2340955905994732
 40
0.3010061944726328
 40
0.3615479921716098
 40
0.4180387660270904
 40
0.4706959291709139
 40
0.51997953178309
 40
0.5688973883194752
 40
0.6191284054505932
 40
0.6725305944194058
 40
0.7283176052237633
 40
0.7892364297895961
 40
0.8537349814438073
 40
0.9241694031993792
 40
1.0
 40
1.0
 40
1.0
 40
1.0
 10
0.817116326226785
 20
-0.5591887546576687
 30
0.0
 10
0.8130253540392883
 20
-0.5592417551631448
 30
0.0
 10
0.8051560487817419
 20
-0.5593437057844822
 30
0.0
 10
0.7938176838649111
 20
-0.5601139198139414
 30
0.0
 10
0.783419347552788
 20
-0.5616699400918248
 30
0.0
 10
0.7739490054727945
 20
-0.563653028257256
 30
0.0
 10
0.7654258066660785
 20
-0.566320531992813
 30
0.0
 10
0.7577797425679704
 20
-0.5694123390238126
 30
0.0
 10
0.7511198031646228
 20
-0.573298822352281
 30
0.0
 10
0.7453313557147202
 20
-0.5778060259626789
 30
0.0
 10
0.7402831010353498
 20
-0.5829717040788162
 30
0.0
 10
0.7359427133916974
 20
-0.5890003542836438
 30
0.0
 10
0.7324223092843413
 20
-0.5959102887200007
 30
0.0
 10
0.7295027330390716
 20
-0.6036392745371538
 30
0.0
 10
0.7271906377367834
 20
-0.6121317504153773
 30
0.0
 10
0.7255400137161284
 20
-0.6214965846801674
 30
0.0
 10
0.7245842987801385
 20
-0.631686827679507
 30
0.0
 10
0.7245085428204945
 20
-0.6387822276975434
 30
0.0
 10
0.7244692674032541
 20
-0.6424608134811982
 30
0.0
  0
SPLINE
  5
175
330
1F
100
AcDbEntity
  8
0
  6
Continuous
 62
     7
370
    25
100
AcDbSpline
210
0.0
220
0.0
230
1.0
 70
     8
 71
     3
 72
    14
 73
    10
 74
     0
 42
0.00000001
 43
0.00000001
 40
0.0
 40
0.0
 40
0.0
 40
0.0
 40
0.1232510589820462
 40
0.2573795347049088
 40
0.3855563400218174
 40
0.5056731245817339
 40
0.6206649849945309
 40
0.7300155770500865
 40
0.8341968678618921
 40
0.8341968678618921
 40
0.8341968678618921
 40
0.8341968678618921
 10
0.9618559881027777
 20
-0.5915325113939996
 30
0.0
 10
0.955021274953493
 20
-0.5888448536442699
 30
0.0
 10
0.940618510807335
 20
-0.5835565046337803
 30
0.0
 10
0.9188471316531538
 20
-0.5762032533184187
 30
0.0
 10
0.896906985116408
 20
-0.5699948231976697
 30
0.0
 10
0.8757663612851335
 20
-0.5652847568976603
 30
0.0
 10
0.8555316446555319
 20
-0.5617981835235497
 30
0.0
 10
0.8360521088815334
 20
-0.5596156522529738
 30
0.0
 10
0.8233255565733241
 20
-0.5593287385998144
 30
0.0
 10
0.817116326226785
 20
-0.5591887546576687
 30
0.0
  0
SPLINE
  5
179
330
1F
100
AcDbEntity
  8
0
  6
Continuous
 62
     7
370
    25
100
AcDbSpline
210
0.0
220
0.0
230
1.0
 70
     8
 71
     3
 72
    15
 73
    11
 74
     0
 42
0.00000001
 43
0.00000001
 40
0.0730894346205597
 40
0.0730894346205597
 40
0.0730894346205597
 40
0.0730894346205597
 40
0.1847602962402249
 40
0.3003204664429617
 40
0.4186817683396
 40
0.541553359093299
 40
0.667651775344509
 40
0.7980531323303508
 40
0.9336622431836537
 40
1.0
 40
1.0
 40
1.0
 40
1.0
 10
0.8001586056385508
 20
-0.4709534605400212
 30
0.0
 10
0.8073771267102742
 20
-0.4710547214220475
 30
0.0
 10
0.8220655778207012
 20
-0.471260769932576
 30
0.0
 10
0.8443398967785576
 20
-0.473133902822674
 30
0.0
 10
0.8672050624518849
 20
-0.4761832817384979
 30
0.0
 10
0.8905591527851698
 20
-0.4804964637330192
 30
0.0
 10
0.9144913393048767
 20
-0.4858620510325018
 30
0.0
 10
0.9389440440000331
 20
-0.4925453209744266
 30
0.0
 10
0.9594539063364917
 20
-0.4989489177423333
 30
0.0
 10
0.9717852856320571
 20
-0.5032247798297741
 30
0.0
 10
0.9758286153580993
 20
-0.5046511294033237
 30
0.0
  0
SPLINE
  5
17A
330
1F
100
AcDbEntity
  8
0
  6
Continuous
 62
     7
370
    25
100
AcDbSpline
210
0.0
220
0.0
230
1.0
 70
     8
 71
     3
 72
    23
 73
    19
 74
     0
 42
0.00000001
 43
0.00000001
 40
0.0
 40
0.0
 40
0.0
 40
0.0
 40
0.0736149998213491
 40
0.141993759127073
 40
0.2059013847732017
 40
0.2654014253391356
 40
0.3216870345027775
 40
0.3750950788893146
 40
0.4263130779541014
 40
0.4764044328057673
 40
0.5270675258173763
 40
0.5806377134001945
 40
0.6378197818505462
 40
0.6997205651239464
 40
0.7661776081303858
 40
0.8382328628449253
 40
0.9162087284868264
 40
1.0
 40
1.0
 40
1.0
 40
1.0
 10
0.6097633850503151
 20
-0.6425986811282574
 30
0.0
 10
0.6098809943318348
 20
-0.6352858043827491
 30
0.0
 10
0.6101078473377688
 20
-0.6211802163687886
 30
0.0
 10
0.6122522930033861
 20
-0.6008214313529989
 30
0.0
 10
0.6154536752377618
 20
-0.5820310469414913
 30
0.0
 10
0.6200946346963232
 20
-0.5647619678923721
 30
0.0
 10
0.6263425499998565
 20
-0.5491246874638284
 30
0.0
 10
0.6338017235013659
 20
-0.5349649644418704
 30
0.0
 10
0.6424646588889186
 20
-0.5222117893612449
 30
0.0
 10
0.6528747635370872
 20
-0.5112059727595472
 30
0.0
 10
0.6647983204226413
 20
-0.5015119269959308
 30
0.0
 10
0.6785732787828785
 20
-0.4932022286083631
 30
0.0
 10
0.6943495466427556
 20
-0.4864026017429052
 30
0.0
 10
0.7118584348526728
 20
-0.4805806833637395
 30
0.0
 10
0.7313162474105231
 20
-0.4762668648812103
 30
0.0
 10
0.7525958507686632
 20
-0.4730917033228456
 30
0.0
 10
0.7757746492035368
 20
-0.4713956705767177
 30
0.0
 10
0.791838130174923
 20
-0.4711043547466238
 30
0.0
 10
0.8001586056385508
 20
-0.4709534605400212
 30
0.0
  0
SPLINE
  5
183
330
1F
100
AcDbEntity
  8
0
  6
Continuous
 62
     7
370
    25
100
AcDbSpline
210
0.0
220
0.0
230
1.0
 70
     8
 71
     3
 72
    12
 73
     8
 74
     0
 42
0.00000001
 43
0.00000001
 40
0.7455067464353856
 40
0.7455067464353856
 40
0.7455067464353856
 40
0.7455067464353856
 40
0.8083196421603934
 40
0.8689491118657015
 40
0.9280799273294599
 40
0.9864496291562401
 40
0.9999999999999999
 40
0.9999999999999999
 40
0.9999999999999999
 40
0.9999999999999999
 10
1.033292796815021
 20
-0.8542255193635503
 30
0.0
 10
1.033175959156051
 20
-0.8594267594067881
 30
0.0
 10
1.032946345207704
 20
-0.8696484402686192
 30
0.0
 10
1.030671304149909
 20
-0.8846255110747703
 30
0.0
 10
1.026971454429965
 20
-0.8989236573088072
 30
0.0
 10
1.023014143776485
 20
-0.9090459924805694
 30
0.0
 10
1.020501457412042
 20
-0.9144459828773849
 30
0.0
 10
1.020015765439832
 20
-0.9154574212040053
 30
0.0
  0
SPLINE
  5
184
330
1F
100
AcDbEntity
  8
0
  6
Continuous
 62
     7
370
    25
100
AcDbSpline
210
0.0
220
0.0
230
1.0
 70
     8
 71
     3
 72
    23
 73
    19
 74
     0
 42
0.00000001
 43
0.00000001
 40
0.0
 40
0.0
 40
0.0
 40
0.0
 40
0.0801828291598619
 40
0.1566946145258391
 40
0.2298773997242172
 40
0.300015121476355
 40
0.3675804803093516
 40
0.4327509176872089
 40
0.4966085326475737
 40
0.5588016705031877
 40
0.6187970328956669
 40
0.6757784891583192
 40
0.7307258755724673
 40
0.7837225716618836
 40
0.8362804294846449
 40
0.8893156722648898
 40
0.9434987555924204
 40
1.0
 40
1.0
 40
1.0
 40
1.0
 10
0.7720336056385512
 20
-0.6738946370106108
 30
0.0
 10
0.7815040681400782
 20
-0.6740729013047693
 30
0.0
 10
0.8000114030222056
 20
-0.6744212683448159
 30
0.0
 10
0.8271027394326883
 20
-0.676570602466567
 30
0.0
 10
0.8527928895994762
 20
-0.6804585594319871
 30
0.0
 10
0.8771612322323296
 20
-0.6857436280906587
 30
0.0
 10
0.9000699872421409
 20
-0.6928539243712902
 30
0.0
 10
0.9217556522448588
 20
-0.7012203076752752
 30
0.0
 10
0.9420203512201327
 20
-0.7112742824921563
 30
0.0
 10
0.9607455570111201
 20
-0.72283076969558
 30
0.0
 10
0.977690033582913
 20
-0.7355673694867946
 30
0.0
 10
0.9925919435968873
 20
-0.7494166262136052
 30
0.0
 10
1.005270988981478
 20
-0.76428965581059
 30
0.0
 10
1.015366138500736
 20
-0.7803925691207123
 30
0.0
 10
1.02355612653662
 20
-0.7973025477495679
 30
0.0
 10
1.029114640039448
 20
-0.8153920015047756
 30
0.0
 10
1.032741247317945
 20
-0.8344571167478014
 30
0.0
 10
1.033106397758346
 20
-0.8475446836106504
 30
0.0
 10
1.033292796815021
 20
-0.8542255193635503
 30
0.0
  0
SPLINE
  5
19A
330
1F
100
AcDbEntity
  8
0
  6
Continuous
 62
     7
370
    25
100
AcDbSpline
210
0.0
220
0.0
230
1.0
 70
     8
 71
     3
 72
    15
 73
    11
 74
     0
 42
0.00000001
 43
0.00000001
 40
0.0
 40
0.0
 40
0.0
 40
0.0
 40
0.0757983305042542
 40
0.1526713515449589
 40
0.2318959891221479
 40
0.3170747898498061
 40
0.4266939864372624
 40
0.5760451944711962
 40
0.7665107831401498
 40
1.0
 40
1.0
 40
1.0
 40
1.0
 10
0.192989487991491
 20
-0.8935177987753152
 30
0.0
 10
0.1946459054047379
 20
-0.8922389461288753
 30
0.0
 10
0.1979822253938566
 20
-0.889663108895261
 30
0.0
 10
0.2021632008325502
 20
-0.8847547858482077
 30
0.0
 10
0.2054303704520434
 20
-0.8789449995811799
 30
0.0
 10
0.2084947274349981
 20
-0.8720116841527342
 30
0.0
 10
0.2104551005272113
 20
-0.8626742516776419
 30
0.0
 10
0.2116233450826512
 20
-0.8503458321218089
 30
0.0
 10
0.212653102298761
 20
-0.8345717852418738
 30
0.0
 10
0.2126862859368709
 20
-0.8228857568938759
 30
0.0
 10
0.2127045615209025
 20
-0.8164497840694331
 30
0.0
  0
SPLINE
  5
19B
330
1F
100
AcDbEntity
  8
0
  6
Continuous
 62
     7
370
    25
100
AcDbSpline
210
0.0
220
0.0
230
1.0
 70
     8
 71
     3
 72
    11
 73
     7
 74
     0
 42
0.00000001
 43
0.00000001
 40
0.0
 40
0.0
 40
0.0
 40
0.0
 40
0.2942094717527072
 40
0.5555128594015214
 40
0.7892297144150164
 40
1.0
 40
1.0
 40
1.0
 40
1.0
 10
0.1121990468150204
 20
-0.9121299311282554
 30
0.0
 10
0.1204454068145017
 20
-0.9119814249826976
 30
0.0
 10
0.1360158063522014
 20
-0.9117010224753721
 30
0.0
 10
0.157829216601754
 20
-0.9079727653372262
 30
0.0
 10
0.1769828799199567
 20
-0.9025918093806704
 30
0.0
 10
0.1878407979962713
 20
-0.8964365475452939
 30
0.0
 10
0.192989487991491
 20
-0.8935177987753152
 30
0.0
  0
SPLINE
  5
19C
330
1F
100
AcDbEntity
  8
0
  6
Continuous
 62
     7
370
    25
100
AcDbSpline
210
0.0
220
0.0
230
1.0
 70
     8
 71
     3
 72
    11
 73
     7
 74
     0
 42
0.00000001
 43
0.00000001
 40
0.0
 40
0.0
 40
0.0
 40
0.0
 40
0.098406953447942
 40
0.35750717268175
 40
0.5973765951364545
 40
0.8196469056230027
 40
0.8196469056230027
 40
0.8196469056230027
 40
0.8196469056230027
 10
0.0063792753290062
 20
-0.903073494562768
 30
0.0
 10
0.0105823483548546
 20
-0.9037299939536501
 30
0.0
 10
0.0258642058133394
 20
-0.9060308180360087
 30
0.0
 10
0.0515150113674763
 20
-0.9090853264490303
 30
0.0
 10
0.0826115714607175
 20
-0.9115687284375893
 30
0.0
 10
0.1025901619123732
 20
-0.9119476738725385
 30
0.0
 10
0.1121990468150204
 20
-0.9121299311282554
 30
0.0
  0
SPLINE
  5
1A0
330
1F
100
AcDbEntity
  8
0
  6
Continuous
 62
     7
370
    25
100
AcDbSpline
210
0.0
220
0.0
230
1.0
 70
     8
 71
     3
 72
    11
 73
     7
 74
     0
 42
0.00000001
 43
0.00000001
 40
0.1135983169617536
 40
0.1135983169617536
 40
0.1135983169617536
 40
0.1135983169617536
 40
0.3397088986335067
 40
0.5813980429780042
 40
0.839125908758039
 40
0.9999999999999999
 40
0.9999999999999999
 40
0.9999999999999999
 40
0.9999999999999999
 10
0.1305354438738444
 20
-1.000365225245904
 30
0.0
 10
0.1193619577293396
 20
-1.000170585768161
 30
0.0
 10
0.0962451547986709
 20
-0.9997678965455422
 30
0.0
 10
0.0605160760245952
 20
-0.9966130404945754
 30
0.0
 10
0.0281123565302048
 20
-0.9927378369502086
 30
0.0
 10
0.0077093622667001
 20
-0.9893525630037509
 30
0.0
 10
-0.0001232205441706
 20
-0.987994799498605
 30
0.0
  0
SPLINE
  5
1A1
330
1F
100
AcDbEntity
  8
0
  6
Continuous
 62
     7
370
    25
100
AcDbSpline
210
0.0
220
0.0
230
1.0
 70
     8
 71
     3
 72
    23
 73
    19
 74
     0
 42
0.00000001
 43
0.00000001
 40
0.0
 40
0.0
 40
0.0
 40
0.0
 40
0.0824789090436979
 40
0.1584288995669019
 40
0.2281542504309583
 40
0.2919428972152286
 40
0.3503438900271879
 40
0.4038207929750183
 40
0.4529604747219754
 40
0.4992288670805224
 40
0.545497259439069
 40
0.5947736004008894
 40
0.6484651714152061
 40
0.7068661642271659
 40
0.7710654673263516
 40
0.8407311484479462
 40
0.9171005531748594
 40
1.0
 40
1.0
 40
1.0
 40
1.0
 10
0.3274104438738458
 20
-0.8045931664223739
 30
0.0
 10
0.3272746074101828
 20
-0.8136036171136649
 30
0.0
 10
0.3270136871129971
 20
-0.830911263446217
 30
0.0
 10
0.325140449099595
 20
-0.8557867121859403
 30
0.0
 10
0.3218422728072296
 20
-0.878444645751431
 30
0.0
 10
0.3174149817044064
 20
-0.8989664311841817
 30
0.0
 10
0.3114730065891636
 20
-0.9172420359057676
 30
0.0
 10
0.3044301106156709
 20
-0.9334143207473848
 30
0.0
 10
0.2957524893509735
 20
-0.9472319255937983
 30
0.0
 10
0.2858276633587718
 20
-0.9591925559409956
 30
0.0
 10
0.2738765837687566
 20
-0.969169447494372
 30
0.0
 10
0.2598860374354966
 20
-0.9776559833952905
 30
0.0
 10
0.243602156149128
 20
-0.9845105530798823
 30
0.0
 10
0.2252854493161449
 20
-0.9905343765634771
 30
0.0
 10
0.2047153262479557
 20
-0.9949539623644181
 30
0.0
 10
0.1819465731206024
 20
-0.9980554598403701
 30
0.0
 10
0.1569928585732275
 20
-0.9999805597241894
 30
0.0
 10
0.1395923892201184
 20
-1.000233545917203
 30
0.0
 10
0.1305354438738444
 20
-1.000365225245904
 30
0.0
  0
SPLINE
  5
1A2
330
1F
100
AcDbEntity
  8
0
  6
Continuous
 62
     7
370
    25
100
AcDbSpline
210
0.0
220
0.0
230
1.0
 70
     8
 71
     3
 72
    23
 73
    19
 74
     0
 42
0.00000001
 43
0.00000001
 40
0.0
 40
0.0
 40
0.0
 40
0.0
 40
0.0676095693139436
 40
0.1319483171061927
 40
0.1935501608989824
 40
0.2534533297865132
 40
0.3114713338945585
 40
0.3692275481726534
 40
0.4270784619914965
 40
0.4856509749891641
 40
0.5445041681580125
 40
0.6038215627177321
 40
0.664095836674191
 40
0.726002792076929
 40
0.7899327505288687
 40
0.8566440390677028
 40
0.926635471914802
 40
1.0
 40
1.0
 40
1.0
 40
1.0
 10
-0.3564130855379196
 20
-0.4709534605400201
 30
0.0
 10
-0.3472570402321756
 20
-0.4711530373135461
 30
0.0
 10
-0.3293879015628977
 20
-0.4715425357183953
 30
0.0
 10
-0.3033577496240909
 20
-0.4749309181870011
 30
0.0
 10
-0.2787520997640136
 20
-0.4803691214207971
 30
0.0
 10
-0.2557221610144138
 20
-0.4882728457896371
 30
0.0
 10
-0.2340602417741651
 20
-0.4982157239600558
 30
0.0
 10
-0.2140510767189102
 20
-0.5106360662074317
 30
0.0
 10
-0.1952429620635318
 20
-0.524941952044243
 30
0.0
 10
-0.1783805308165227
 20
-0.541719749988656
 30
0.0
 10
-0.1631565010922598
 20
-0.5602254021183312
 30
0.0
 10
-0.1498543498560282
 20
-0.5804480634387333
 30
0.0
 10
-0.1386395898418625
 20
-0.6023654330306596
 30
0.0
 10
-0.1296009105666436
 20
-0.6259229714381567
 30
0.0
 10
-0.1223691262173027
 20
-0.6510028990653505
 30
0.0
 10
-0.1173457637981932
 20
-0.6777274613085708
 30
0.0
 10
-0.1142561874732148
 20
-0.7060364305194023
 30
0.0
 10
-0.1139319566314007
 20
-0.7254489594867665
 30
0.0
 10
-0.1137660267143917
 20
-0.735383607598842
 30
0.0
  0
SPLINE
  5
1A3
330
1F
100
AcDbEntity
  8
0
  6
Continuous
 62
     7
370
    25
100
AcDbSpline
210
0.0
220
0.0
230
1.0
 70
     8
 71
     3
 72
    12
 73
     8
 74
     0
 42
0.00000001
 43
0.00000001
 40
0.0
 40
0.0
 40
0.0
 40
0.0
 40
0.0248273300891781
 40
0.0859350340385178
 40
0.1498273399180147
 40
0.2164330210561901
 40
0.2869032947375627
 40
0.2869032947375627
 40
0.2869032947375627
 40
0.2869032947375627
 10
-0.4720356692039125
 20
-0.4929725931366807
 30
0.0
 10
-0.4689122561318749
 20
-0.4915790731606362
 30
0.0
 10
-0.4579899093267756
 20
-0.487007901198386
 30
0.0
 10
-0.4383207702822893
 20
-0.4806328286465874
 30
0.0
 10
-0.4124991628332239
 20
-0.4750736247654944
 30
0.0
 10
-0.385005450170098
 20
-0.4714960981918973
 30
0.0
 10
-0.3661213407800434
 20
-0.471137707799604
 30
0.0
 10
-0.3564130855379174
 20
-0.4709534605400212
 30
0.0
  0
SPLINE
  5
1AB
330
1F
100
AcDbEntity
  8
0
  6
Continuous
 62
     7
370
    25
100
AcDbSpline
210
0.0
220
0.0
230
1.0
 70
     8
 71
     3
 72
    11
 73
     7
 74
     0
 42
0.00000001
 43
0.00000001
 40
0.7527947929334957
 40
0.7527947929334957
 40
0.7527947929334957
 40
0.7527947929334957
 40
0.8263616402522572
 40
0.8965599128739218
 40
0.9634800327090306
 40
1.0
 40
1.0
 40
1.0
 40
1.0
 10
-0.1137660267143917
 20
-0.7353836075988441
 30
0.0
 10
-0.1139328255117468
 20
-0.7453639470500484
 30
0.0
 10
-0.1142587855057039
 20
-0.7648676331606079
 30
0.0
 10
-0.1173370806908389
 20
-0.7933170830141005
 30
0.0
 10
-0.1217062747839
 20
-0.8164831753876606
 30
0.0
 10
-0.1252506336976274
 20
-0.8300660771963159
 30
0.0
 10
-0.1266238344366123
 20
-0.8348267054092691
 30
0.0
  0
SPLINE
  5
1B1
330
1F
100
AcDbEntity
  8
0
  6
Continuous
 62
     7
370
    25
100
AcDbSpline
210
0.0
220
0.0
230
1.0
 70
     8
 71
     3
 72
    11
 73
     7
 74
     0
 42
0.00000001
 43
0.00000001
 40
0.7386939987698848
 40
0.7386939987698848
 40
0.7386939987698848
 40
0.7386939987698848
 40
0.8094859769863542
 40
0.8770059787526993
 40
0.9416082257492558
 40
1.0
 40
1.0
 40
1.0
 40
1.0
 10
-0.6078836737732164
 20
-0.7353836075988441
 30
0.0
 10
-0.6077359564136975
 20
-0.7256304449103061
 30
0.0
 10
-0.6074473491309553
 20
-0.7065749067471958
 30
0.0
 10
-0.604101071262554
 20
-0.6787956476006966
 30
0.0
 10
-0.5992735915560408
 20
-0.6529793835783416
 30
0.0
 10
-0.5944545598424298
 20
-0.6367171852919737
 30
0.0
 10
-0.5918642060145263
 20
-0.6291004867204486
 30
0.0
  0
SPLINE
  5
1B2
330
1F
100
AcDbEntity
  8
0
  6
Continuous
 62
     7
370
    25
100
AcDbSpline
210
0.0
220
0.0
230
1.0
 70
     8
 71
     3
 72
    23
 73
    19
 74
     0
 42
0.00000001
 43
0.00000001
 40
0.0
 40
0.0
 40
0.0
 40
0.0
 40
0.0703572170508148
 40
0.1371866370447659
 40
0.2006510036210434
 40
0.2619774089229526
 40
0.3213219610578416
 40
0.3796094009422973
 40
0.4373273755603648
 40
0.4959992732285156
 40
0.5547042774474993
 40
0.6136668747989452
 40
0.6729814851800942
 40
0.7339902431052028
 40
0.796420133182611
 40
0.8612458323116372
 40
0.92898856805333
 40
1.0
 40
1.0
 40
1.0
 40
1.0
 10
-0.3564130855379218
 20
-1.000365225245903
 30
0.0
 10
-0.3661206576191424
 20
-1.000176815224414
 30
0.0
 10
-0.385049052224777
 20
-0.9998094422907328
 30
0.0
 10
-0.4125524554269958
 20
-0.996282023668159
 30
0.0
 10
-0.4383993715228122
 20
-0.9906366130424809
 30
0.0
 10
-0.4626345153306118
 20
-0.9828691873236002
 30
0.0
 10
-0.4851184669682397
 20
-0.9725581294232833
 30
0.0
 10
-0.5059326972246103
 20
-0.9601422904541466
 30
0.0
 10
-0.5250176587789399
 20
-0.9453424075614294
 30
0.0
 10
-0.5423018924580192
 20
-0.92840929661751
 30
0.0
 10
-0.5578108518829555
 20
-0.9096126080343011
 30
0.0
 10
-0.571176274119918
 20
-0.8891310430778787
 30
0.0
 10
-0.5825661239621376
 20
-0.8671409292658986
 30
0.0
 10
-0.5919507323842962
 20
-0.8437027310557441
 30
0.0
 10
-0.5991188322705294
 20
-0.8186997765758431
 30
0.0
 10
-0.6041171137871965
 20
-0.7922514067580294
 30
0.0
 10
-0.6074427615758929
 20
-0.764328421308579
 30
0.0
 10
-0.6077344128526967
 20
-0.7451822241142984
 30
0.0
 10
-0.6078836737732142
 20
-0.7353836075988441
 30
0.0
  0
SPLINE
  5
1B3
330
1F
100
AcDbEntity
  8
0
  6
Continuous
 62
     7
370
    25
100
AcDbSpline
210
0.0
220
0.0
230
1.0
 70
     8
 71
     3
 72
    12
 73
     8
 74
     0
 42
0.00000001
 43
0.00000001
 40
0.0
 40
0.0
 40
0.0
 40
0.0
 40
0.03717197162262
 40
0.0969638126783189
 40
0.1587817237622696
 40
0.2233370283532201
 40
0.2911595171460264
 40
0.2911595171460264
 40
0.2911595171460264
 40
0.2911595171460264
 10
-0.2413573361583665
 20
-0.9765134700334677
 30
0.0
 10
-0.2459061455558356
 20
-0.9786915194408286
 30
0.0
 10
-0.2579773475082708
 20
-0.9839486569979893
 30
0.0
 10
-0.2783780861686981
 20
-0.9909755769769487
 30
0.0
 10
-0.3030846314374088
 20
-0.9963826743659495
 30
0.0
 10
-0.3292501476394589
 20
-0.999777221543724
 30
0.0
 10
-0.3472110103401779
 20
-1.000166025354336
 30
0.0
 10
-0.3564130855379218
 20
-1.000365225245903
 30
0.0
  0
SPLINE
  5
1BD
330
1F
100
AcDbEntity
  8
0
  6
Continuous
 62
     7
370
    25
100
AcDbSpline
210
0.0
220
0.0
230
1.0
 70
     8
 71
     3
 72
    13
 73
     9
 74
     0
 42
0.00000001
 43
0.00000001
 40
0.2955118906384046
 40
0.2955118906384046
 40
0.2955118906384046
 40
0.2955118906384046
 40
0.4346172688851674
 40
0.5644735372314208
 40
0.6874099949409559
 40
0.8061230316465372
 40
0.9232177387178188
 40
1.0
 40
1.0
 40
1.0
 40
1.0
 10
-1.07828808553792
 20
-0.4709534605400201
 30
0.0
 10
-1.068432716175458
 20
-0.4712596917130348
 30
0.0
 10
-1.049377260484819
 20
-0.4718517927631176
 30
0.0
 10
-1.021952054124096
 20
-0.4767221563354735
 30
0.0
 10
-0.9968265180541421
 20
-0.4848204168289124
 30
0.0
 10
-0.974098016963604
 20
-0.4963972908820707
 30
0.0
 10
-0.956074046861319
 20
-0.5094186442311084
 30
0.0
 10
-0.9461494963876338
 20
-0.51893822284013
 30
0.0
 10
-0.9424070539679459
 20
-0.522891068721158
 30
0.0
  0
SPLINE
  5
1BE
330
1F
100
AcDbEntity
  8
0
  6
Continuous
 62
     7
370
    25
100
AcDbSpline
210
0.0
220
0.0
230
1.0
 70
     8
 71
     3
 72
    11
 73
     7
 74
     0
 42
0.00000001
 43
0.00000001
 40
0.0
 40
0.0
 40
0.0
 40
0.0
 40
0.147585820013731
 40
0.4117679596772048
 40
0.6469985282223704
 40
0.8544388551319267
 40
0.8544388551319267
 40
0.8544388551319267
 40
0.8544388551319267
 10
-1.174095488319306
 20
-0.482340725168224
 30
0.0
 10
-1.168636979987427
 20
-0.4812673720645854
 30
0.0
 10
-1.153393631106795
 20
-0.4783455737992949
 30
0.0
 10
-1.129318789433882
 20
-0.4743981011640545
 30
0.0
 10
-1.102787496018281
 20
-0.4716866038763204
 30
0.0
 10
-1.086105464386811
 20
-0.4711873951163235
 30
0.0
 10
-1.078288085537918
 20
-0.4709534605400201
 30
0.0
  0
SPLINE
  5
1C6
330
1F
100
AcDbEntity
  8
0
  6
Continuous
 62
     7
370
    25
100
AcDbSpline
210
0.0
220
0.0
230
1.0
 70
     8
 71
     3
 72
     8
 73
     4
 74
     0
 42
0.00000001
 43
0.00000001
 40
0.6731690461714529
 40
0.6731690461714529
 40
0.6731690461714529
 40
0.6731690461714529
 40
1.0
 40
1.0
 40
1.0
 40
1.0
 10
-1.064914923773215
 20
-0.5680122840694332
 30
0.0
 10
-1.068017886765106
 20
-0.5680727295117264
 30
0.0
 10
-1.071120849756999
 20
-0.5681331749540206
 30
0.0
 10
-1.074213851443324
 20
-0.5682936171459642
 30
0.0
  0
SPLINE
  5
1C7
330
1F
100
AcDbEntity
  8
0
  6
Continuous
 62
     7
370
    25
100
AcDbSpline
210
0.0
220
0.0
230
1.0
 70
     8
 71
     3
 72
    19
 73
    15
 74
     0
 42
0.00000001
 43
0.00000001
 40
0.0
 40
0.0
 40
0.0
 40
0.0
 40
0.0498215241575661
 40
0.1308319424397366
 40
0.2070271650867073
 40
0.2790634178435931
 40
0.3465444617410495
 40
0.4096473238161656
 40
0.4686146796853703
 40
0.5235287332170704
 40
0.6303593865330566
 40
0.7381180915548676
 40
0.848285373602259
 40
0.964002245756
 40
0.964002245756
 40
0.964002245756
 40
0.964002245756
 10
-0.9121437762782906
 20
-0.6589305684539163
 30
0.0
 10
-0.9141129336004548
 20
-0.656418707248066
 30
0.0
 10
-0.9193047093374161
 20
-0.6498388365718153
 30
0.0
 10
-0.9277256248947139
 20
-0.6395884707343109
 30
0.0
 10
-0.937549108177372
 20
-0.6286646940536476
 30
0.0
 10
-0.9471983233324968
 20
-0.6187693242341579
 30
0.0
 10
-0.9565321089646587
 20
-0.6097433653403659
 30
0.0
 10
-0.9657688254228773
 20
-0.6018430314567291
 30
0.0
 10
-0.9749003149384379
 20
-0.5951131566455252
 30
0.0
 10
-0.9866756854231254
 20
-0.5872649384741045
 30
0.0
 10
-1.002221713524316
 20
-0.579602590666102
 30
0.0
 10
-1.021900411298784
 20
-0.5726762159561352
 30
0.0
 10
-1.043030231535983
 20
-0.5688393277701904
 30
0.0
 10
-1.057501514742326
 20
-0.5682924439717839
 30
0.0
 10
-1.064914923773215
 20
-0.5680122840694332
 30
0.0
  0
SPLINE
  5
1CC
330
1F
100
AcDbEntity
  8
0
  6
Continuous
 62
     7
370
    25
100
AcDbSpline
210
0.0
220
0.0
230
1.0
 70
     8
 71
     3
 72
     9
 73
     5
 74
     0
 42
0.00000001
 43
0.00000001
 40
0.4134777753772735
 40
0.4134777753772735
 40
0.4134777753772735
 40
0.4134777753772735
 40
0.4431685069010545
 40
1.0
 40
1.0
 40
1.0
 40
1.0
 10
5.588030218224923
 20
1.588763661004599
 30
0.0
 10
5.572418650402359
 20
1.56789285227125
 30
0.0
 10
5.291980811481995
 20
1.154778001018717
 30
0.0
 10
5.086239052252273
 20
0.4651508077069321
 30
0.0
 10
5.377409413650953
 20
0.6732457094521953
 30
0.0
  0
SPLINE
  5
1CD
330
1F
100
AcDbEntity
  8
0
  6
Continuous
 62
     7
370
    25
100
AcDbSpline
210
0.0
220
0.0
230
1.0
 70
     8
 71
     3
 72
     8
 73
     4
 74
     0
 42
0.00000001
 43
0.00000001
 40
0.0
 40
0.0
 40
0.0
 40
0.0
 40
0.0485098166244376
 40
0.0485098166244376
 40
0.0485098166244376
 40
0.0485098166244376
 10
5.377409413650953
 20
0.6732457094521953
 30
0.0
 10
5.429706251545768
 20
0.7106214412781711
 30
0.0
 10
5.500424152099678
 20
0.7608566622013444
 30
0.0
 10
5.588030218074244
 20
0.8223011433326934
 30
0.0
  0
SPLINE
  5
1CF
330
1F
100
AcDbEntity
  8
0
  6
Continuous
 62
     7
370
    25
100
AcDbSpline
210
0.0
220
0.0
230
1.0
 70
     8
 71
     3
 72
    14
 73
    10
 74
     0
 42
0.00000001
 43
0.00000001
 40
0.0672626025086539
 40
0.0672626025086539
 40
0.0672626025086539
 40
0.0672626025086539
 40
0.125
 40
0.125
 40
0.25
 40
0.25
 40
0.3750000000000002
 40
0.3750000000000002
 40
0.4870215358856457
 40
0.4870215358856457
 40
0.4870215358856457
 40
0.4870215358856457
 10
5.6971132964756
 20
0.8984908354385267
 30
0.0
 10
5.816658436141299
 20
0.9816494605463054
 30
0.0
 10
5.959334063804979
 20
1.079816951467135
 30
0.0
 10
6.476495498975694
 20
1.429619209322801
 30
0.0
 10
6.927391180471849
 20
1.726810868001094
 30
0.0
 10
7.975282870340944
 20
2.383502588759295
 30
0.0
 10
8.572269599848868
 20
2.743006378883126
 30
0.0
 10
9.797695588289448
 20
3.433134694736243
 30
0.0
 10
10.41640946993888
 20
3.762888494551452
 30
0.0
 10
11.05800851972142
 20
4.076995854781809
 30
0.0
  0
SPLINE
  5
1D1
330
1F
100
AcDbEntity
  8
0
  6
Continuous
 62
     7
370
    25
100
AcDbSpline
210
0.0
220
0.0
230
1.0
 70
     8
 71
     3
 72
    12
 73
     8
 74
     0
 42
0.00000001
 43
0.00000001
 40
0.1062372803611101
 40
0.1062372803611101
 40
0.1062372803611101
 40
0.1062372803611101
 40
0.1249999999999999
 40
0.1249999999999999
 40
0.1874999999999998
 40
0.1874999999999998
 40
0.2175560290580512
 40
0.2175560290580512
 40
0.2175560290580512
 40
0.2175560290580512
 10
11.03385261024727
 20
4.131864561560725
 30
0.0
 10
10.78855807000297
 20
4.035547172735013
 30
0.0
 10
10.55038091603607
 20
3.941512368575553
 30
0.0
 10
9.54812287461609
 20
3.544107911642168
 30
0.0
 10
8.852361014969228
 20
3.263740479746045
 30
0.0
 10
7.913613214364033
 20
2.885598586407296
 30
0.0
 10
7.623077395090039
 20
2.768588351900556
 30
0.0
 10
7.345336515410875
 20
2.657326131964676
 30
0.0
  0
SPLINE
  5
1D2
330
1F
100
AcDbEntity
  8
0
  6
Continuous
 62
     7
370
    25
100
AcDbSpline
210
0.0
220
0.0
230
1.0
 70
     8
 71
     3
 72
     9
 73
     5
 74
     0
 42
0.00000001
 43
0.00000001
 40
0.0
 40
0.0
 40
0.0
 40
0.0
 40
0.3431685069010546
 40
0.3584876968563845
 40
0.3584876968563845
 40
0.3584876968563845
 40
0.3584876968563845
 10
7.345336515410875
 20
2.657326131964676
 30
0.0
 10
6.989748778066544
 20
2.514878678479946
 30
0.0
 10
6.035465204038914
 20
2.005583269091872
 30
0.0
 10
5.710039416781586
 20
1.720403521336564
 30
0.0
 10
5.697113296475596
 20
1.70853465119584
 30
0.0
  0
SPLINE
  5
1D4
330
1F
100
AcDbEntity
  8
0
  6
Continuous
 62
     7
370
    25
100
AcDbSpline
210
0.0
220
0.0
230
1.0
 70
     8
 71
     3
 72
     8
 73
     4
 74
     0
 42
0.00000001
 43
0.00000001
 40
0.951490183375583
 40
0.951490183375583
 40
0.951490183375583
 40
0.951490183375583
 40
1.0
 40
1.0
 40
1.0
 40
1.0
 10
5.588030218074132
 20
-0.8223011433326148
 30
0.0
 10
5.500424152099618
 20
-0.7608566622013022
 30
0.0
 10
5.429706251545745
 20
-0.7106214412781562
 30
0.0
 10
5.377409413650953
 20
-0.6732457094521964
 30
0.0
  0
SPLINE
  5
1D5
330
1F
100
AcDbEntity
  8
0
  6
Continuous
 62
     7
370
    25
100
AcDbSpline
210
0.0
220
0.0
230
1.0
 70
     8
 71
     3
 72
     9
 73
     5
 74
     0
 42
0.00000001
 43
0.00000001
 40
0.0
 40
0.0
 40
0.0
 40
0.0
 40
0.5568314930989455
 40
0.5865222246226139
 40
0.5865222246226139
 40
0.5865222246226139
 40
0.5865222246226139
 10
5.377409413650953
 20
-0.6732457094521964
 30
0.0
 10
5.086239052252273
 20
-0.4651508077069321
 30
0.0
 10
5.291980811481954
 20
-1.154778001018584
 30
0.0
 10
5.572418650402253
 20
-1.567892852271091
 30
0.0
 10
5.588030218224747
 20
-1.588763661004361
 30
0.0
  0
SPLINE
  5
1D7
330
1F
100
AcDbEntity
  8
0
  6
Continuous
 62
     7
370
    25
100
AcDbSpline
210
0.0
220
0.0
230
1.0
 70
     8
 71
     3
 72
     9
 73
     5
 74
     0
 42
0.00000001
 43
0.00000001
 40
0.6415123031436174
 40
0.6415123031436174
 40
0.6415123031436174
 40
0.6415123031436174
 40
0.6568314930989454
 40
1.0
 40
1.0
 40
1.0
 40
1.0
 10
5.697113296475601
 20
-1.708534651195844
 30
0.0
 10
5.71003941678159
 20
-1.720403521336567
 30
0.0
 10
6.03546520403892
 20
-2.005583269091874
 30
0.0
 10
6.989748778066544
 20
-2.514878678479946
 30
0.0
 10
7.345336515410875
 20
-2.657326131964676
 30
0.0
  0
SPLINE
  5
1D8
330
1F
100
AcDbEntity
  8
0
  6
Continuous
 62
     7
370
    25
100
AcDbSpline
210
0.0
220
0.0
230
1.0
 70
     8
 71
     3
 72
    12
 73
     8
 74
     0
 42
0.00000001
 43
0.00000001
 40
0.7824439709419488
 40
0.7824439709419488
 40
0.7824439709419488
 40
0.7824439709419488
 40
0.8125000000000002
 40
0.8125000000000002
 40
0.8750000000000001
 40
0.8750000000000001
 40
0.8937627196388895
 40
0.8937627196388895
 40
0.8937627196388895
 40
0.8937627196388895
 10
7.345336515410875
 20
-2.657326131964675
 30
0.0
 10
7.62307739509004
 20
-2.768588351900556
 30
0.0
 10
7.913613214364033
 20
-2.885598586407296
 30
0.0
 10
8.852361014969228
 20
-3.263740479746044
 30
0.0
 10
9.54812287461609
 20
-3.544107911642167
 30
0.0
 10
10.55038091603607
 20
-3.941512368575551
 30
0.0
 10
10.78855807000297
 20
-4.03554717273501
 30
0.0
 10
11.03385261024726
 20
-4.13186456156072
 30
0.0
  0
SPLINE
  5
1DA
330
1F
100
AcDbEntity
  8
0
  6
Continuous
 62
     7
370
    25
100
AcDbSpline
210
0.0
220
0.0
230
1.0
 70
     8
 71
     3
 72
    14
 73
    10
 74
     0
 42
0.00000001
 43
0.00000001
 40
0.5129784641143592
 40
0.5129784641143592
 40
0.5129784641143592
 40
0.5129784641143592
 40
0.6249999999999998
 40
0.6249999999999998
 40
0.75
 40
0.75
 40
0.875
 40
0.875
 40
0.9327373974913461
 40
0.9327373974913461
 40
0.9327373974913461
 40
0.9327373974913461
 10
11.05800851972133
 20
-4.076995854781766
 30
0.0
 10
10.41640946993883
 20
-3.762888494551422
 30
0.0
 10
9.797695588289422
 20
-3.433134694736228
 30
0.0
 10
8.572269599848868
 20
-2.743006378883127
 30
0.0
 10
7.975282870340944
 20
-2.383502588759295
 30
0.0
 10
6.927391180471849
 20
-1.726810868001093
 30
0.0
 10
6.476495498975694
 20
-1.429619209322801
 30
0.0
 10
5.959334063804979
 20
-1.079816951467135
 30
0.0
 10
5.816658436141301
 20
-0.9816494605463056
 30
0.0
 10
5.6971132964756
 20
-0.898490835438527
 30
0.0
  0
SPLINE
  5
1DD
330
1F
100
AcDbEntity
  8
0
  6
Continuous
 62
     7
370
    25
100
AcDbSpline
210
0.0
220
0.0
230
1.0
 70
     8
 71
     3
 72
     8
 73
     4
 74
     0
 42
0.00000001
 43
0.00000001
 40
0.0238612292315292
 40
0.0238612292315292
 40
0.0238612292315292
 40
0.0238612292315292
 40
0.255851295277379
 40
0.255851295277379
 40
0.255851295277379
 40
0.255851295277379
 10
-16.29480391678803
 20
4.89339420408306
 30
0.0
 10
-15.30534637716135
 20
5.434224445742909
 30
0.0
 10
-14.02654618470319
 20
5.468521840307353
 30
0.0
 10
-12.6452697817741
 20
5.201783242571327
 30
0.0
  0
SPLINE
  5
1E8
330
1F
100
AcDbEntity
  8
0
  6
Continuous
 62
     7
370
    25
100
AcDbSpline
210
0.0
220
0.0
230
1.0
 70
     8
 71
     3
 72
     8
 73
     4
 74
     0
 42
0.00000001
 43
0.00000001
 40
0.7251361490704875
 40
0.7251361490704875
 40
0.7251361490704875
 40
0.7251361490704875
 40
0.9975820937947436
 40
0.9975820937947436
 40
0.9975820937947436
 40
0.9975820937947436
 10
-2.411969781773982
 20
2.653588455242118
 30
0.0
 10
-4.530505926046664
 20
3.463242542133304
 30
0.0
 10
-7.525818468559391
 20
4.762793461482661
 30
0.0
 10
-12.45892837425569
 20
6.552241213290187
 30
0.0
  0
SPLINE
  5
1EA
330
1F
100
AcDbEntity
  8
0
  6
Continuous
 62
     7
370
    25
100
AcDbSpline
210
0.0
220
0.0
230
1.0
 70
     8
 71
     3
 72
     8
 73
     4
 74
     0
 42
0.00000001
 43
0.00000001
 40
0.2795733736256764
 40
0.2795733736256764
 40
0.2795733736256764
 40
0.2795733736256764
 40
0.7204266263910325
 40
0.7204266263910325
 40
0.7204266263910325
 40
0.7204266263910325
 10
5.588030218225925
 20
2.61204037277236
 30
0.0
 10
2.208496887700295
 20
1.32931987569393
 30
0.0
 10
1.07664662678738
 20
1.329319875742546
 30
0.0
 10
-2.302886703908631
 20
2.61204037291821
 30
0.0
  0
SPLINE
  5
1EC
330
1F
100
AcDbEntity
  8
0
  6
Continuous
 62
     7
370
    25
100
AcDbSpline
210
0.0
220
0.0
230
1.0
 70
     8
 71
     3
 72
     8
 73
     4
 74
     0
 42
0.00000001
 43
0.00000001
 40
0.0024179062052568
 40
0.0024179062052568
 40
0.0024179062052568
 40
0.0024179062052568
 40
0.2748638509295094
 40
0.2748638509295094
 40
0.2748638509295094
 40
0.2748638509295094
 10
15.74407188895723
 20
6.552241213290177
 30
0.0
 10
10.810961983261
 20
4.762793461482675
 30
0.0
 10
7.815649440748285
 20
3.463242542133331
 30
0.0
 10
5.69711329647561
 20
2.653588455242144
 30
0.0
  0
SPLINE
  5
1F7
330
1F
100
AcDbEntity
  8
0
  6
Continuous
 62
     7
370
    25
100
AcDbSpline
210
0.0
220
0.0
230
1.0
 70
     8
 71
     3
 72
     8
 73
     4
 74
     0
 42
0.00000001
 43
0.00000001
 40
0.7441487047231743
 40
0.7441487047231743
 40
0.7441487047231743
 40
0.7441487047231743
 40
0.9761387707684704
 40
0.9761387707684704
 40
0.9761387707684704
 40
0.9761387707684704
 10
15.93041329648554
 20
5.201783242573233
 30
0.0
 10
17.31168969941085
 20
5.468521840307185
 30
0.0
 10
18.59048989186526
 20
5.434224445741615
 30
0.0
 10
19.57994743148959
 20
4.893394204083058
 30
0.0
  0
SPLINE
  5
1F9
330
1F
100
AcDbEntity
  8
0
  6
Continuous
 62
     7
370
    25
100
AcDbSpline
210
0.0
220
0.0
230
1.0
 70
     8
 71
     3
 72
     8
 73
     4
 74
     0
 42
0.00000001
 43
0.00000001
 40
0.0343820158822434
 40
0.0343820158822434
 40
0.0343820158822434
 40
0.0343820158822434
 40
0.7380534382269825
 40
0.7380534382269825
 40
0.7380534382269825
 40
0.7380534382269825
 10
5.72628117142582
 20
0.1850976820803016
 30
0.0
 10
6.51244158253749
 20
0.7469542279198106
 30
0.0
 10
11.61570553070845
 20
4.323517223922101
 30
0.0
 10
15.82133021822601
 20
5.180138811661186
 30
0.0
  0
SPLINE
  5
1FD
330
1F
100
AcDbEntity
  8
0
  6
Continuous
 62
     7
370
    25
100
AcDbSpline
210
0.0
220
0.0
230
1.0
 70
     8
 71
     3
 72
     8
 73
     4
 74
     0
 42
0.00000001
 43
0.00000001
 40
0.2619465617730181
 40
0.2619465617730181
 40
0.2619465617730181
 40
0.2619465617730181
 40
0.9656179841177568
 40
0.9656179841177568
 40
0.9656179841177568
 40
0.9656179841177568
 10
15.82133021822599
 20
-5.180138811661186
 30
0.0
 10
11.61570553070844
 20
-4.323517223922094
 30
0.0
 10
6.512441582537486
 20
-0.7469542279198081
 30
0.0
 10
5.726281171425819
 20
-0.1850976820803002
 30
0.0
  0
SPLINE
  5
1FF
330
1F
100
AcDbEntity
  8
0
  6
Continuous
 62
     7
370
    25
100
AcDbSpline
210
0.0
220
0.0
230
1.0
 70
     8
 71
     3
 72
     8
 73
     4
 74
     0
 42
0.00000001
 43
0.00000001
 40
0.0238612292315298
 40
0.0238612292315298
 40
0.0238612292315298
 40
0.0238612292315298
 40
0.2558512952767196
 40
0.2558512952767196
 40
0.2558512952767196
 40
0.2558512952767196
 10
19.57994743148959
 20
-4.893394204083063
 30
0.0
 10
18.59048989186571
 20
-5.43422444574137
 30
0.0
 10
17.31168969941201
 20
-5.468521840307155
 30
0.0
 10
15.93041329648743
 20
-5.201783242573601
 30
0.0
  0
SPLINE
  5
20A
330
1F
100
AcDbEntity
  8
0
  6
Continuous
 62
     7
370
    25
100
AcDbSpline
210
0.0
220
0.0
230
1.0
 70
     8
 71
     3
 72
     8
 73
     4
 74
     0
 42
0.00000001
 43
0.00000001
 40
0.7251361490705032
 40
0.7251361490705032
 40
0.7251361490705032
 40
0.7251361490705032
 40
0.9975820937947436
 40
0.9975820937947436
 40
0.9975820937947436
 40
0.9975820937947436
 10
5.697113296475905
 20
-2.653588455242256
 30
0.0
 10
7.815649440748566
 20
-3.463242542133453
 30
0.0
 10
10.81096198326123
 20
-4.762793461482763
 30
0.0
 10
15.74407188895726
 20
-6.552241213290187
 30
0.0
  0
SPLINE
  5
20C
330
1F
100
AcDbEntity
  8
0
  6
Continuous
 62
     7
370
    25
100
AcDbSpline
210
0.0
220
0.0
230
1.0
 70
     8
 71
     3
 72
     8
 73
     4
 74
     0
 42
0.00000001
 43
0.00000001
 40
0.2795733736120065
 40
0.2795733736120065
 40
0.2795733736120065
 40
0.2795733736120065
 40
0.7204266263743236
 40
0.7204266263743236
 40
0.7204266263743236
 40
0.7204266263743236
 10
-2.302886703838741
 20
-2.612040372891683
 30
0.0
 10
1.076646626802986
 20
-1.329319875742546
 30
0.0
 10
2.208496887723592
 20
-1.329319875702772
 30
0.0
 10
5.588030218225926
 20
-2.61204037277236
 30
0.0
  0
SPLINE
  5
20E
330
1F
100
AcDbEntity
  8
0
  6
Continuous
 62
     7
370
    25
100
AcDbSpline
210
0.0
220
0.0
230
1.0
 70
     8
 71
     3
 72
     8
 73
     4
 74
     0
 42
0.00000001
 43
0.00000001
 40
0.0024179062052567
 40
0.0024179062052567
 40
0.0024179062052567
 40
0.0024179062052567
 40
0.2748638509287403
 40
0.2748638509287403
 40
0.2748638509287403
 40
0.2748638509287403
 10
-12.45892837425568
 20
-6.552241213290183
 30
0.0
 10
-7.525818468573367
 20
-4.762793461487732
 30
0.0
 10
-4.530505926063642
 20
-3.463242542140671
 30
0.0
 10
-2.411969781791996
 20
-2.653588455249003
 30
0.0
  0
SPLINE
  5
219
330
1F
100
AcDbEntity
  8
0
  6
Continuous
 62
     7
370
    25
100
AcDbSpline
210
0.0
220
0.0
230
1.0
 70
     8
 71
     3
 72
     8
 73
     4
 74
     0
 42
0.00000001
 43
0.00000001
 40
0.7441487047226208
 40
0.7441487047226208
 40
0.7441487047226208
 40
0.7441487047226208
 40
0.9761387707684704
 40
0.9761387707684704
 40
0.9761387707684704
 40
0.9761387707684704
 10
-12.6452697817741
 20
-5.201783242571324
 30
0.0
 10
-14.02654618470319
 20
-5.468521840307349
 30
0.0
 10
-15.30534637716135
 20
-5.434224445742905
 30
0.0
 10
-16.29480391678803
 20
-4.893394204083059
 30
0.0
  0
SPLINE
  5
21B
330
1F
100
AcDbEntity
  8
0
  6
Continuous
 62
     7
370
    25
100
AcDbSpline
210
0.0
220
0.0
230
1.0
 70
     8
 71
     3
 72
     8
 73
     4
 74
     0
 42
0.00000001
 43
0.00000001
 40
0.0343820158822438
 40
0.0343820158822438
 40
0.0343820158822438
 40
0.0343820158822438
 40
0.7380534382272753
 40
0.7380534382272753
 40
0.7380534382272753
 40
0.7380534382272753
 10
-2.441137656724265
 20
-0.1850976820803014
 30
0.0
 10
-3.227298067836266
 20
-0.7469542279200468
 30
0.0
 10
-8.330562016011141
 20
-4.323517223925077
 30
0.0
 10
-12.53618670352969
 20
-5.180138811662255
 30
0.0
  0
SPLINE
  5
21F
330
1F
100
AcDbEntity
  8
0
  6
Continuous
 62
     7
370
    25
100
AcDbSpline
210
0.0
220
0.0
230
1.0
 70
     8
 71
     3
 72
     8
 73
     4
 74
     0
 42
0.00000001
 43
0.00000001
 40
0.2619465617727244
 40
0.2619465617727244
 40
0.2619465617727244
 40
0.2619465617727244
 40
0.9656179841177562
 40
0.9656179841177562
 40
0.9656179841177562
 40
0.9656179841177562
 10
-12.5361867035297
 20
5.180138811662259
 30
0.0
 10
-8.330562016011147
 20
4.323517223925081
 30
0.0
 10
-3.227298067836265
 20
0.746954227920048
 30
0.0
 10
-2.441137656724264
 20
0.1850976820803024
 30
0.0
  0
SPLINE
  5
221
330
1F
100
AcDbEntity
  8
0
  6
Continuous
 62
     7
370
    25
100
AcDbSpline
210
0.0
220
0.0
230
1.0
 70
     8
 71
     3
 72
    16
 73
    12
 74
     0
 42
0.00000001
 43
0.00000001
 40
0.0
 40
0.0
 40
0.0
 40
0.0
 40
0.0589183099341921
 40
0.126680943155535
 40
0.2600308408582466
 40
0.4234691378865574
 40
0.5481152589046023
 40
0.7128041020773579
 40
0.8669761050563418
 40
0.9337790486901385
 40
0.9999999999999999
 40
0.9999999999999999
 40
0.9999999999999999
 40
0.9999999999999999
 10
-4.060193000709321
 20
-2.657326131964675
 30
0.0
 10
-4.132602374131952
 20
-2.686358849241303
 30
0.0
 10
-4.288290609736904
 20
-2.748782432183163
 30
0.0
 10
-4.60773513551923
 20
-2.877234548525481
 30
0.0
 10
-5.055459000408395
 20
-3.057621486053105
 30
0.0
 10
-5.573097828996048
 20
-3.26602300506215
 30
0.0
 10
-6.129421283504931
 20
-3.489445404946984
 30
0.0
 10
-6.674753061490783
 20
-3.707313109725502
 30
0.0
 10
-7.149389574065233
 20
-3.895691033525217
 30
0.0
 10
-7.503098728522361
 20
-4.035321991245302
 30
0.0
 10
-7.667025670882469
 20
-4.099754415413041
 30
0.0
 10
-7.748630543999445
 20
-4.131829678473076
 30
0.0
  0
SPLINE
  5
222
330
1F
100
AcDbEntity
  8
0
  6
Continuous
 62
     7
370
    25
100
AcDbSpline
210
0.0
220
0.0
230
1.0
 70
     8
 71
     3
 72
     9
 73
     5
 74
     0
 42
0.00000001
 43
0.00000001
 40
0.6415123031327792
 40
0.6415123031327792
 40
0.6415123031327792
 40
0.6415123031327792
 40
0.6568314930989454
 40
1.0
 40
1.0
 40
1.0
 40
1.0
 10
-2.411969781746608
 20
-1.708534651170653
 30
0.0
 10
-2.424895902060355
 20
-1.720403521319323
 30
0.0
 10
-2.750321689308512
 20
-2.005583269076476
 30
0.0
 10
-3.704605263364989
 20
-2.514878678479946
 30
0.0
 10
-4.060193000709319
 20
-2.657326131964675
 30
0.0
  0
SPLINE
  5
224
330
1F
100
AcDbEntity
  8
0
  6
Continuous
 62
     7
370
    25
100
AcDbSpline
210
0.0
220
0.0
230
1.0
 70
     8
 71
     3
 72
     9
 73
     5
 74
     0
 42
0.00000001
 43
0.00000001
 40
0.0
 40
0.0
 40
0.0
 40
0.0
 40
0.5568314930989455
 40
0.5865222246126897
 40
0.5865222246126897
 40
0.5865222246126897
 40
0.5865222246126897
 10
-2.092265898949391
 20
-0.6732457094521953
 30
0.0
 10
-1.801095537550714
 20
-0.4651508077069321
 30
0.0
 10
-2.006837296776914
 20
-1.154778001006915
 30
0.0
 10
-2.287275135691202
 20
-1.567892852257111
 30
0.0
 10
-2.30288670350753
 20
-1.588763660983432
 30
0.0
  0
SPLINE
  5
225
330
1F
100
AcDbEntity
  8
0
  6
Continuous
 62
     7
370
    25
100
AcDbSpline
210
0.0
220
0.0
230
1.0
 70
     8
 71
     3
 72
     9
 73
     5
 74
     0
 42
0.00000001
 43
0.00000001
 40
0.0
 40
0.0
 40
0.0
 40
0.0
 40
0.5102911567519287
 40
1.0
 40
1.0
 40
1.0
 40
1.0
 10
-2.302886703524401
 20
-0.8223046762389167
 30
0.0
 10
-2.266976843539878
 20
-0.7970686994045172
 30
0.0
 10
-2.196605528047964
 20
-0.7476146249991724
 30
0.0
 10
-2.126565244960786
 20
-0.6976928460662988
 30
0.0
 10
-2.092265898949396
 20
-0.6732457094521953
 30
0.0
  0
SPLINE
  5
227
330
1F
100
AcDbEntity
  8
0
  6
Continuous
 62
     7
370
    25
100
AcDbSpline
210
0.0
220
0.0
230
1.0
 70
     8
 71
     3
 72
    24
 73
    20
 74
     0
 42
0.00000001
 43
0.00000001
 40
0.0
 40
0.0
 40
0.0
 40
0.0
 40
0.0161444454144945
 40
0.0323665329461644
 40
0.0486664205665935
 40
0.0650442639961138
 40
0.1630923595687667
 40
0.2635991985695211
 40
0.3567410073382143
 40
0.4515386330503146
 40
0.5373938539661991
 40
0.6241352747057516
 40
0.7003077331382208
 40
0.7765365085892925
 40
0.840523917593001
 40
0.903792674494558
 40
0.9365034952159088
 40
0.9685723350538281
 40
1.0
 40
1.0
 40
1.0
 40
1.0
 10
-7.772786687917684
 20
-4.076961099884533
 30
0.0
 10
-7.742650638007776
 20
-4.062172636990478
 30
0.0
 10
-7.682233607429533
 20
-4.032524590297348
 30
0.0
 10
-7.591568620739332
 20
-3.987583919425017
 30
0.0
 10
-7.500599237781079
 20
-3.942165750884281
 30
0.0
 10
-7.257789126887814
 20
-3.819986128438935
 30
0.0
 10
-6.860702519004735
 20
-3.61487006192122
 30
0.0
 10
-6.326646458376946
 20
-3.327317241730178
 30
0.0
 10
-5.803012806180921
 20
-3.034829030642145
 30
0.0
 10
-5.309981801402682
 20
-2.750148184051666
 30
0.0
 10
-4.832132729609699
 20
-2.465893822536553
 30
0.0
 10
-4.390783562702792
 20
-2.196106113198174
 30
0.0
 10
-3.969396614515675
 20
-1.932105730918112
 30
0.0
 10
-3.590575482415634
 20
-1.689322890455621
 30
0.0
 10
-3.236514431454114
 20
-1.457671534131778
 30
0.0
 10
-2.959785527486
 20
-1.273120179472807
 30
0.0
 10
-2.739313314515765
 20
-1.123850700981246
 30
0.0
 10
-2.574173258017546
 20
-1.010950167939579
 30
0.0
 10
-2.465672400600951
 20
-0.9357240764637841
 30
0.0
 10
-2.411969781774042
 20
-0.8984908396714547
 30
0.0
  0
SPLINE
  5
228
330
1F
100
AcDbEntity
  8
0
  6
Continuous
 62
     7
370
    25
100
AcDbSpline
210
0.0
220
0.0
230
1.0
 70
     8
 71
     3
 72
    16
 73
    12
 74
     0
 42
0.00000001
 43
0.00000001
 40
0.0
 40
0.0
 40
0.0
 40
0.0
 40
0.0662202392943711
 40
0.1330231244967941
 40
0.2871902905732073
 40
0.4518842540081079
 40
0.5765269710909063
 40
0.7399689280633915
 40
0.8733189442679349
 40
0.9410798717992706
 40
1.0
 40
1.0
 40
1.0
 40
1.0
 10
-7.74862727213568
 20
4.131828353072573
 30
0.0
 10
-7.667023349517259
 20
4.099753461989879
 30
0.0
 10
-7.503097503377655
 20
4.035321465440495
 30
0.0
 10
-7.149395545465292
 20
3.895693418218842
 30
0.0
 10
-6.674759179932631
 20
3.707315546624164
 30
0.0
 10
-6.129431717941574
 20
3.489449582549382
 30
0.0
 10
-5.573102141247501
 20
3.266024755001478
 30
0.0
 10
-5.055463319058107
 20
3.057623220066131
 30
0.0
 10
-4.607737302079516
 20
2.877235427905912
 30
0.0
 10
-4.288292782858008
 20
2.748783295239446
 30
0.0
 10
-4.132604545301759
 20
2.686359717154391
 30
0.0
 10
-4.060193000709321
 20
2.657326131964679
 30
0.0
  0
LINE
  5
229
330
1F
100
AcDbEntity
  8
0
  6
Continuous
 62
     7
370
    25
100
AcDbLine
 10
-13.0827282426
 20
-5.73
 30
0.0
 11
-12.9907282426
 21
-5.73
 31
0.0
  0
LINE
  5
22A
330
1F
100
AcDbEntity
  8
0
  6
Continuous
 62
     7
370
    25
100
AcDbLine
 10
-13.1027282426
 20
-6.25
 30
0.0
 11
-13.1027282426
 21
-5.75
 31
0.0
  0
LINE
  5
22B
330
1F
100
AcDbEntity
  8
0
  6
Continuous
 62
     7
370
    25
100
AcDbLine
 10
-12.9907282426
 20
-6.27
 30
0.0
 11
-13.0827282426
 21
-6.27
 31
0.0
  0
LINE
  5
22C
330
1F
100
AcDbEntity
  8
0
  6
Continuous
 62
     7
370
    25
100
AcDbLine
 10
-12.9707282426
 20
-5.75
 30
0.0
 11
-12.9707282426
 21
-6.25
 31
0.0
  0
LINE
  5
22D
330
1F
100
AcDbEntity
  8
0
  6
Continuous
 62
     7
370
    25
100
AcDbLine
 10
-13.0827282426
 20
5.73
 30
0.0
 11
-12.9907282426
 21
5.73
 31
0.0
  0
LINE
  5
22E
330
1F
100
AcDbEntity
  8
0
  6
Continuous
 62
     7
370
    25
100
AcDbLine
 10
-12.9707282426
 20
5.75
 30
0.0
 11
-12.9707282426
 21
6.25
 31
0.0
  0
LINE
  5
22F
330
1F
100
AcDbEntity
  8
0
  6
Continuous
 62
     7
370
    25
100
AcDbLine
 10
-12.9907282426
 20
6.27
 30
0.0
 11
-13.0827282426
 21
6.27
 31
0.0
  0
LINE
  5
230
330
1F
100
AcDbEntity
  8
0
  6
Continuous
 62
     7
370
    25
100
AcDbLine
 10
-13.1027282426
 20
6.25
 30
0.0
 11
-13.1027282426
 21
5.75
 31
0.0
  0
LINE
  5
231
330
1F
100
AcDbEntity
  8
0
  6
Continuous
 62
     7
370
    25
100
AcDbLine
 10
16.3678717574
 20
-5.73
 30
0.0
 11
16.2758717574
 21
-5.73
 31
0.0
  0
LINE
  5
232
330
1F
100
AcDbEntity
  8
0
  6
Continuous
 62
     7
370
    25
100
AcDbLine
 10
16.2558717574
 20
-5.75
 30
0.0
 11
16.2558717574
 21
-6.25
 31
0.0
  0
LINE
  5
233
330
1F
100
AcDbEntity
  8
0
  6
Continuous
 62
     7
370
    25
100
AcDbLine
 10
16.2758717574
 20
-6.27
 30
0.0
 11
16.3678717574
 21
-6.27
 31
0.0
  0
LINE
  5
234
330
1F
100
AcDbEntity
  8
0
  6
Continuous
 62
     7
370
    25
100
AcDbLine
 10
16.3878717574
 20
-6.25
 30
0.0
 11
16.3878717574
 21
-5.75
 31
0.0
  0
LINE
  5
235
330
1F
100
AcDbEntity
  8
0
  6
Continuous
 62
     7
370
    25
100
AcDbLine
 10
16.3678717574
 20
5.73
 30
0.0
 11
16.2758717574
 21
5.73
 31
0.0
  0
LINE
  5
236
330
1F
100
AcDbEntity
  8
0
  6
Continuous
 62
     7
370
    25
100
AcDbLine
 10
16.3878717574
 20
6.25
 30
0.0
 11
16.3878717574
 21
5.75
 31
0.0
  0
LINE
  5
237
330
1F
100
AcDbEntity
  8
0
  6
Continuous
 62
     7
370
    25
100
AcDbLine
 10
16.2758717574
 20
6.27
 30
0.0
 11
16.3678717574
 21
6.27
 31
0.0
  0
LINE
  5
238
330
1F
100
AcDbEntity
  8
0
  6
Continuous
 62
     7
370
    25
100
AcDbLine
 10
16.2558717574
 20
5.75
 30
0.0
 11
16.2558717574
 21
6.25
 31
0.0
  0
LINE
  5
239
330
1F
100
AcDbEntity
  8
0
  6
Continuous
 62
     7
370
    25
100
AcDbLine
 10
-2.4119697821
 20
1.7085346515
 30
0.0
 11
-2.3028867035
 21
1.588763661
 31
0.0
  0
LINE
  5
23A
330
1F
100
AcDbEntity
  8
0
  6
Continuous
 62
     7
370
    25
100
AcDbLine
 10
-2.3028867035
 20
0.8223045724
 30
0.0
 11
-2.4119697818
 21
0.8984908485
 31
0.0
  0
LINE
  5
23B
330
1F
100
AcDbEntity
  8
0
  6
Continuous
 62
     7
370
    25
100
AcDbLine
 10
1.3725717573
 20
0.046
 30
0.0
 11
1.3725717573
 21
-0.046
 31
0.0
  0
LINE
  5
23C
330
1F
100
AcDbEntity
  8
0
  6
Continuous
 62
     7
370
    25
100
AcDbLine
 10
1.3925717573
 20
-0.066
 30
0.0
 11
1.8925717573
 21
-0.066
 31
0.0
  0
LINE
  5
23D
330
1F
100
AcDbEntity
  8
0
  6
Continuous
 62
     7
370
    25
100
AcDbLine
 10
1.9125717573
 20
-0.046
 30
0.0
 11
1.9125717573
 21
0.046
 31
0.0
  0
LINE
  5
23E
330
1F
100
AcDbEntity
  8
0
  6
Continuous
 62
     7
370
    25
100
AcDbLine
 10
1.8925717573
 20
0.066
 30
0.0
 11
1.3925717573
 21
0.066
 31
0.0
  0
LINE
  5
23F
330
1F
100
AcDbEntity
  8
0
  6
Continuous
 62
     7
370
    25
100
AcDbLine
 10
0.1225717573
 20
0.046
 30
0.0
 11
0.1225717573
 21
-0.046
 31
0.0
  0
LINE
  5
240
330
1F
100
AcDbEntity
  8
0
  6
Continuous
 62
     7
370
    25
100
AcDbLine
 10
0.1425717573
 20
-0.066
 30
0.0
 11
0.6425717573
 21
-0.066
 31
0.0
  0
LINE
  5
241
330
1F
100
AcDbEntity
  8
0
  6
Continuous
 62
     7
370
    25
100
AcDbLine
 10
0.6625717573
 20
-0.046
 30
0.0
 11
0.6625717573
 21
0.046
 31
0.0
  0
LINE
  5
242
330
1F
100
AcDbEntity
  8
0
  6
Continuous
 62
     7
370
    25
100
AcDbLine
 10
0.6425717573
 20
0.066
 30
0.0
 11
0.1425717573
 21
0.066
 31
0.0
  0
LINE
  5
243
330
1F
100
AcDbEntity
  8
0
  6
Continuous
 62
     7
370
    25
100
AcDbLine
 10
-1.1274282427
 20
0.046
 30
0.0
 11
-1.1274282427
 21
-0.046
 31
0.0
  0
LINE
  5
244
330
1F
100
AcDbEntity
  8
0
  6
Continuous
 62
     7
370
    25
100
AcDbLine
 10
-1.1074282427
 20
-0.066
 30
0.0
 11
-0.6074282427
 21
-0.066
 31
0.0
  0
LINE
  5
245
330
1F
100
AcDbEntity
  8
0
  6
Continuous
 62
     7
370
    25
100
AcDbLine
 10
-0.5874282427
 20
-0.046
 30
0.0
 11
-0.5874282427
 21
0.046
 31
0.0
  0
LINE
  5
246
330
1F
100
AcDbEntity
  8
0
  6
Continuous
 62
     7
370
    25
100
AcDbLine
 10
-0.6074282427
 20
0.066
 30
0.0
 11
-1.1074282427
 21
0.066
 31
0.0
  0
LINE
  5
247
330
1F
100
AcDbEntity
  8
0
  6
Continuous
 62
     7
370
    25
100
AcDbLine
 10
2.6225717573
 20
0.046
 30
0.0
 11
2.6225717573
 21
-0.046
 31
0.0
  0
LINE
  5
248
330
1F
100
AcDbEntity
  8
0
  6
Continuous
 62
     7
370
    25
100
AcDbLine
 10
2.6425717573
 20
-0.066
 30
0.0
 11
3.1425717573
 21
-0.066
 31
0.0
  0
LINE
  5
249
330
1F
100
AcDbEntity
  8
0
  6
Continuous
 62
     7
370
    25
100
AcDbLine
 10
3.1625717573
 20
-0.046
 30
0.0
 11
3.1625717573
 21
0.046
 31
0.0
  0
LINE
  5
24A
330
1F
100
AcDbEntity
  8
0
  6
Continuous
 62
     7
370
    25
100
AcDbLine
 10
3.1425717573
 20
0.066
 30
0.0
 11
2.6425717573
 21
0.066
 31
0.0
  0
LINE
  5
24B
330
1F
100
AcDbEntity
  8
0
  6
Continuous
 62
     7
370
    25
100
AcDbLine
 10
3.8725717573
 20
0.046
 30
0.0
 11
3.8725717573
 21
-0.046
 31
0.0
  0
LINE
  5
24C
330
1F
100
AcDbEntity
  8
0
  6
Continuous
 62
     7
370
    25
100
AcDbLine
 10
3.8925717573
 20
-0.066
 30
0.0
 11
4.3925717573
 21
-0.066
 31
0.0
  0
LINE
  5
24D
330
1F
100
AcDbEntity
  8
0
  6
Continuous
 62
     7
370
    25
100
AcDbLine
 10
4.4125717573
 20
-0.046
 30
0.0
 11
4.4125717573
 21
0.046
 31
0.0
  0
LINE
  5
24E
330
1F
100
AcDbEntity
  8
0
  6
Continuous
 62
     7
370
    25
100
AcDbLine
 10
4.3925717573
 20
0.066
 30
0.0
 11
3.8925717573
 21
0.066
 31
0.0
  0
LINE
  5
24F
330
1F
100
AcDbEntity
  8
0
  6
Continuous
 62
     7
370
    25
100
AcDbLine
 10
-0.4234282427
 20
0.5425
 30
0.0
 11
-0.4234282427
 21
1.0825
 31
0.0
  0
LINE
  5
250
330
1F
100
AcDbEntity
  8
0
  6
Continuous
 62
     7
370
    25
100
AcDbLine
 10
-0.2914282427
 20
0.5425
 30
0.0
 11
-0.4234282427
 21
0.5425
 31
0.0
  0
LINE
  5
251
330
1F
100
AcDbEntity
  8
0
  6
Continuous
 62
     7
370
    25
100
AcDbLine
 10
-0.2914282427
 20
1.0825
 30
0.0
 11
-0.2914282427
 21
0.5425
 31
0.0
  0
LINE
  5
252
330
1F
100
AcDbEntity
  8
0
  6
Continuous
 62
     7
370
    25
100
AcDbLine
 10
-0.4234282427
 20
1.0825
 30
0.0
 11
-0.2914282427
 21
1.0825
 31
0.0
  0
LINE
  5
253
330
1F
100
AcDbEntity
  8
0
  6
Continuous
 62
     7
370
    25
100
AcDbLine
 10
3.7085717573
 20
1.0825
 30
0.0
 11
3.7085717573
 21
0.5425
 31
0.0
  0
LINE
  5
254
330
1F
100
AcDbEntity
  8
0
  6
Continuous
 62
     7
370
    25
100
AcDbLine
 10
3.5765717573
 20
1.0825
 30
0.0
 11
3.7085717573
 21
1.0825
 31
0.0
  0
LINE
  5
255
330
1F
100
AcDbEntity
  8
0
  6
Continuous
 62
     7
370
    25
100
AcDbLine
 10
3.5765717573
 20
0.5425
 30
0.0
 11
3.5765717573
 21
1.0825
 31
0.0
  0
LINE
  5
256
330
1F
100
AcDbEntity
  8
0
  6
Continuous
 62
     7
370
    25
100
AcDbLine
 10
3.7085717573
 20
0.5425
 30
0.0
 11
3.5765717573
 21
0.5425
 31
0.0
  0
LINE
  5
257
330
1F
100
AcDbEntity
  8
0
  6
Continuous
 62
     7
370
    25
100
AcDbLine
 10
4.2091577031
 20
-0.6388786765
 30
0.0
 11
4.2660970413
 21
-0.6186121324
 31
0.0
  0
LINE
  5
258
330
1F
100
AcDbEntity
  8
0
  6
Continuous
 62
     7
370
    25
100
AcDbLine
 10
4.1548378501
 20
-0.6576286765
 30
0.0
 11
4.2091577031
 21
-0.6388786765
 31
0.0
  0
LINE
  5
259
330
1F
100
AcDbEntity
  8
0
  6
Continuous
 62
     7
370
    25
100
AcDbLine
 10
4.4753801296
 20
-0.8939405159
 30
0.0
 11
4.4753801296
 21
-0.9555012777
 31
0.0
  0
LINE
  5
25A
330
1F
100
AcDbEntity
  8
0
  6
Continuous
 62
     7
370
    25
100
AcDbLine
 10
4.3082845413
 20
-0.7184283088
 30
0.0
 11
4.2473470413
 21
-0.7403492647
 31
0.0
  0
LINE
  5
25B
330
1F
100
AcDbEntity
  8
0
  6
Continuous
 62
     7
370
    25
100
AcDbLine
 10
4.0606742472
 20
-0.4708672265
 30
0.0
 11
4.0606742472
 21
-0.4198330832
 31
0.0
  0
LINE
  5
25C
330
1F
100
AcDbEntity
  8
0
  6
Continuous
 62
     7
370
    25
100
AcDbLine
 10
3.884203659
 20
-0.4972977941
 30
0.0
 11
3.884203659
 21
-0.8225183824
 31
0.0
  0
LINE
  5
25D
330
1F
100
AcDbEntity
  8
0
  6
Continuous
 62
     7
370
    25
100
AcDbLine
 10
3.7894977766
 20
-0.4772977941
 30
0.0
 11
3.864203659
 21
-0.4772977941
 31
0.0
  0
LINE
  5
25E
330
1F
100
AcDbEntity
  8
0
  6
Continuous
 62
     7
370
    25
100
AcDbLine
 10
3.7694977766
 20
-0.7953584559
 30
0.0
 11
3.7694977766
 21
-0.4972977941
 31
0.0
  0
LINE
  5
25F
330
1F
100
AcDbEntity
  8
0
  6
Continuous
 62
     7
370
    25
100
AcDbLine
 10
3.5753801296
 20
-0.4972977941
 30
0.0
 11
3.5753801296
 21
-0.7957409765
 31
0.0
  0
LINE
  5
260
330
1F
100
AcDbEntity
  8
0
  6
Continuous
 62
     7
370
    25
100
AcDbLine
 10
3.4806742472
 20
-0.4772977941
 30
0.0
 11
3.5553801296
 21
-0.4772977941
 31
0.0
  0
LINE
  5
261
330
1F
100
AcDbEntity
  8
0
  6
Continuous
 62
     7
370
    25
100
AcDbLine
 10
3.4606742472
 20
-0.9690625
 30
0.0
 11
3.4606742472
 21
-0.4972977941
 31
0.0
  0
LINE
  5
262
330
1F
100
AcDbEntity
  8
0
  6
Continuous
 62
     7
370
    25
100
AcDbLine
 10
3.5553801296
 20
-0.9890625
 30
0.0
 11
3.4806742472
 21
-0.9890625
 31
0.0
  0
LINE
  5
263
330
1F
100
AcDbEntity
  8
0
  6
Continuous
 62
     7
370
    25
100
AcDbLine
 10
3.5753801296
 20
-0.9638751178
 30
0.0
 11
3.5753801296
 21
-0.9690625
 31
0.0
  0
LINE
  5
264
330
1F
100
AcDbEntity
  8
0
  6
Continuous
 62
     7
370
    25
100
AcDbLine
 10
3.2071448354
 20
-0.2478860294
 30
0.0
 11
3.2818507178
 21
-0.2478860294
 31
0.0
  0
LINE
  5
265
330
1F
100
AcDbEntity
  8
0
  6
Continuous
 62
     7
370
    25
100
AcDbLine
 10
3.1871448354
 20
-0.5016414067
 30
0.0
 11
3.1871448354
 21
-0.2678860294
 31
0.0
  0
LINE
  5
266
330
1F
100
AcDbEntity
  8
0
  6
Continuous
 62
     7
370
    25
100
AcDbLine
 10
2.9498877294
 20
-0.6875
 30
0.0
 11
2.8658745086
 21
-0.6875
 31
0.0
  0
LINE
  5
267
330
1F
100
AcDbEntity
  8
0
  6
Continuous
 62
     7
370
    25
100
AcDbLine
 10
3.2818507178
 20
-0.6875
 30
0.0
 11
3.1883725297
 21
-0.6875
 31
0.0
  0
LINE
  5
268
330
1F
100
AcDbEntity
  8
0
  6
Continuous
 62
     7
370
    25
100
AcDbLine
 10
3.3018507178
 20
-0.2678860294
 30
0.0
 11
3.3018507178
 21
-0.6675
 31
0.0
  0
LINE
  5
269
330
1F
100
AcDbEntity
  8
0
  6
Continuous
 62
     7
370
    25
100
AcDbLine
 10
2.8805827597
 20
-0.8125
 30
0.0
 11
2.9498877294
 21
-0.8125
 31
0.0
  0
LINE
  5
26A
330
1F
100
AcDbEntity
  8
0
  6
Continuous
 62
     7
370
    25
100
AcDbLine
 10
3.2083274015
 20
-0.9741267945
 30
0.0
 11
3.2063959215
 21
-0.9667475505
 31
0.0
  0
LINE
  5
26B
330
1F
100
AcDbEntity
  8
0
  6
Continuous
 62
     7
370
    25
100
AcDbLine
 10
3.2818507178
 20
-0.9890625
 30
0.0
 11
3.2276756035
 21
-0.9890625
 31
0.0
  0
LINE
  5
26C
330
1F
100
AcDbEntity
  8
0
  6
Continuous
 62
     7
370
    25
100
AcDbLine
 10
3.3018507178
 20
-0.8325
 30
0.0
 11
3.3018507178
 21
-0.9690625
 31
0.0
  0
LINE
  5
26D
330
1F
100
AcDbEntity
  8
0
  6
Continuous
 62
     7
370
    25
100
AcDbLine
 10
3.1883725297
 20
-0.8125
 30
0.0
 11
3.2818507178
 21
-0.8125
 31
0.0
  0
LINE
  5
26E
330
1F
100
AcDbEntity
  8
0
  6
Continuous
 62
     7
370
    25
100
AcDbLine
 10
2.408828961
 20
-0.4779121805
 30
0.0
 11
2.6864760198
 21
-0.4779121805
 31
0.0
  0
LINE
  5
26F
330
1F
100
AcDbEntity
  8
0
  6
Continuous
 62
     7
370
    25
100
AcDbLine
 10
2.388828961
 20
-0.952728357
 30
0.0
 11
2.388828961
 21
-0.4979121805
 31
0.0
  0
LINE
  5
270
330
1F
100
AcDbEntity
  8
0
  6
Continuous
 62
     7
370
    25
100
AcDbLine
 10
2.7417701374
 20
-1.0918958085
 30
0.0
 11
2.7417701374
 21
-1.1417330402
 31
0.0
  0
LINE
  5
271
330
1F
100
AcDbEntity
  8
0
  6
Continuous
 62
     7
370
    25
100
AcDbLine
 10
2.5035348433
 20
-0.5861474746
 30
0.0
 11
2.5035348433
 21
-0.969134607
 31
0.0
  0
LINE
  5
272
330
1F
100
AcDbEntity
  8
0
  6
Continuous
 62
     7
370
    25
100
AcDbLine
 10
2.6864760198
 20
-0.5661474746
 30
0.0
 11
2.5235348433
 21
-0.5661474746
 31
0.0
  0
LINE
  5
273
330
1F
100
AcDbEntity
  8
0
  6
Continuous
 62
     7
370
    25
100
AcDbLine
 10
2.7064760198
 20
-0.4979121805
 30
0.0
 11
2.7064760198
 21
-0.5461474746
 31
0.0
  0
LINE
  5
274
330
1F
100
AcDbEntity
  8
0
  6
Continuous
 62
     7
370
    25
100
AcDbLine
 10
2.5211819021
 20
-0.2685004158
 30
0.0
 11
2.5211819021
 21
-0.360853357
 31
0.0
  0
LINE
  5
275
330
1F
100
AcDbEntity
  8
0
  6
Continuous
 62
     7
370
    25
100
AcDbLine
 10
2.4000054315
 20
-0.2485004158
 30
0.0
 11
2.5011819021
 21
-0.2485004158
 31
0.0
  0
LINE
  5
276
330
1F
100
AcDbEntity
  8
0
  6
Continuous
 62
     7
370
    25
100
AcDbLine
 10
2.3800054315
 20
-0.360853357
 30
0.0
 11
2.3800054315
 21
-0.2685004158
 31
0.0
  0
LINE
  5
277
330
1F
100
AcDbEntity
  8
0
  6
Continuous
 62
     7
370
    25
100
AcDbLine
 10
2.5011819021
 20
-0.380853357
 30
0.0
 11
2.4000054315
 21
-0.380853357
 31
0.0
  0
LINE
  5
278
330
1F
100
AcDbEntity
  8
0
  6
Continuous
 62
     7
370
    25
100
AcDbLine
 10
2.085645738
 20
-0.47977699
 30
0.0
 11
2.1603516203
 21
-0.47977699
 31
0.0
  0
LINE
  5
279
330
1F
100
AcDbEntity
  8
0
  6
Continuous
 62
     7
370
    25
100
AcDbLine
 10
2.065645738
 20
-0.7978376517
 30
0.0
 11
2.065645738
 21
-0.49977699
 31
0.0
  0
LINE
  5
27A
330
1F
100
AcDbEntity
  8
0
  6
Continuous
 62
     7
370
    25
100
AcDbLine
 10
1.8715280909
 20
-0.49977699
 30
0.0
 11
1.8715280909
 21
-0.7982201723
 31
0.0
  0
LINE
  5
27B
330
1F
100
AcDbEntity
  8
0
  6
Continuous
 62
     7
370
    25
100
AcDbLine
 10
1.7768222086
 20
-0.47977699
 30
0.0
 11
1.8515280909
 21
-0.47977699
 31
0.0
  0
LINE
  5
27C
330
1F
100
AcDbEntity
  8
0
  6
Continuous
 62
     7
370
    25
100
AcDbLine
 10
1.7568222086
 20
-0.9715416958
 30
0.0
 11
1.7568222086
 21
-0.49977699
 31
0.0
  0
LINE
  5
27D
330
1F
100
AcDbEntity
  8
0
  6
Continuous
 62
     7
370
    25
100
AcDbLine
 10
1.8515280909
 20
-0.9915416958
 30
0.0
 11
1.7768222086
 21
-0.9915416958
 31
0.0
  0
LINE
  5
27E
330
1F
100
AcDbEntity
  8
0
  6
Continuous
 62
     7
370
    25
100
AcDbLine
 10
1.8715280909
 20
-0.9663543136
 30
0.0
 11
1.8715280909
 21
-0.9715416958
 31
0.0
  0
LINE
  5
27F
330
1F
100
AcDbEntity
  8
0
  6
Continuous
 62
     7
370
    25
100
AcDbLine
 10
2.1803516203
 20
-0.49977699
 30
0.0
 11
2.1803516203
 21
-0.8249975782
 31
0.0
  0
LINE
  5
280
330
1F
100
AcDbEntity
  8
0
  6
Continuous
 62
     7
370
    25
100
AcDbLine
 10
1.2538810321
 20
-0.7909534605
 30
0.0
 11
1.2538810321
 21
-0.8991134469
 31
0.0
  0
LINE
  5
281
330
1F
100
AcDbEntity
  8
0
  6
Continuous
 62
     7
370
    25
100
AcDbLine
 10
1.3485869145
 20
-0.7709534605
 30
0.0
 11
1.2738810321
 21
-0.7709534605
 31
0.0
  0
LINE
  5
282
330
1F
100
AcDbEntity
  8
0
  6
Continuous
 62
     7
370
    25
100
AcDbLine
 10
1.3685869145
 20
-0.7027181664
 30
0.0
 11
1.3685869145
 21
-0.7509534605
 31
0.0
  0
LINE
  5
283
330
1F
100
AcDbEntity
  8
0
  6
Continuous
 62
     7
370
    25
100
AcDbLine
 10
1.1591751498
 20
-0.6827181664
 30
0.0
 11
1.3485869145
 21
-0.6827181664
 31
0.0
  0
LINE
  5
284
330
1F
100
AcDbEntity
  8
0
  6
Continuous
 62
     7
370
    25
100
AcDbLine
 10
1.1391751498
 20
-0.9601344841
 30
0.0
 11
1.1391751498
 21
-0.7027181664
 31
0.0
  0
LINE
  5
285
330
1F
100
AcDbEntity
  8
0
  6
Continuous
 62
     7
370
    25
100
AcDbLine
 10
1.1479986792
 20
-0.474962783
 30
0.0
 11
1.1479986792
 21
-0.4207414746
 31
0.0
  0
LINE
  5
286
330
1F
100
AcDbEntity
  8
0
  6
Continuous
 62
     7
370
    25
100
AcDbLine
 10
0.8767557549
 20
-0.942435721
 30
0.0
 11
0.8996791687
 21
-0.9653591348
 31
0.0
  0
LINE
  5
287
330
1F
100
AcDbEntity
  8
0
  6
Continuous
 62
     7
370
    25
100
AcDbLine
 10
0.5599816888
 20
-0.8911005194
 30
0.0
 11
0.7528216148
 21
-0.8911005194
 31
0.0
  0
LINE
  5
288
330
1F
100
AcDbEntity
  8
0
  6
Continuous
 62
     7
370
    25
100
AcDbLine
 10
0.532570922
 20
-0.9633502294
 30
0.0
 11
0.5401699768
 21
-0.9083626244
 31
0.0
  0
LINE
  5
289
330
1F
100
AcDbEntity
  8
0
  6
Continuous
 62
     7
370
    25
100
AcDbLine
 10
0.7444692674
 20
-0.673894637
 30
0.0
 11
0.7720336056
 21
-0.673894637
 31
0.0
  0
LINE
  5
28A
330
1F
100
AcDbEntity
  8
0
  6
Continuous
 62
     7
370
    25
100
AcDbLine
 10
0.7244692674
 20
-0.6424608135
 30
0.0
 11
0.7244692674
 21
-0.653894637
 31
0.0
  0
LINE
  5
28B
330
1F
100
AcDbEntity
  8
0
  6
Continuous
 62
     7
370
    25
100
AcDbLine
 10
0.9891751498
 20
-0.5235119723
 30
0.0
 11
0.9891751498
 21
-0.5729198847
 31
0.0
  0
LINE
  5
28C
330
1F
100
AcDbEntity
  8
0
  6
Continuous
 62
     7
370
    25
100
AcDbLine
 10
0.6097633851
 20
-0.7773505194
 30
0.0
 11
0.6097633851
 21
-0.6425986811
 31
0.0
  0
LINE
  5
28D
330
1F
100
AcDbEntity
  8
0
  6
Continuous
 62
     7
370
    25
100
AcDbLine
 10
0.7528216148
 20
-0.7973505194
 30
0.0
 11
0.6297633851
 21
-0.7973505194
 31
0.0
  0
LINE
  5
28E
330
1F
100
AcDbEntity
  8
0
  6
Continuous
 62
     7
370
    25
100
AcDbLine
 10
0.9878445706
 20
-0.9209420153
 30
0.0
 11
0.9430470156
 21
-0.8761444603
 31
0.0
  0
LINE
  5
28F
330
1F
100
AcDbEntity
  8
0
  6
Continuous
 62
     7
370
    25
100
AcDbLine
 10
0.3274104439
 20
-0.5968358135
 30
0.0
 11
0.3274104439
 21
-0.8045931664
 31
0.0
  0
LINE
  5
290
330
1F
100
AcDbEntity
  8
0
  6
Continuous
 62
     7
370
    25
100
AcDbLine
 10
0.4309398556
 20
-0.5768358135
 30
0.0
 11
0.3474104439
 21
-0.5768358135
 31
0.0
  0
LINE
  5
291
330
1F
100
AcDbEntity
  8
0
  6
Continuous
 62
     7
370
    25
100
AcDbLine
 10
0.4509398556
 20
-0.5086005194
 30
0.0
 11
0.4509398556
 21
-0.5568358135
 31
0.0
  0
LINE
  5
292
330
1F
100
AcDbEntity
  8
0
  6
Continuous
 62
     7
370
    25
100
AcDbLine
 10
0.3474104439
 20
-0.4886005194
 30
0.0
 11
0.4309398556
 21
-0.4886005194
 31
0.0
  0
LINE
  5
293
330
1F
100
AcDbEntity
  8
0
  6
Continuous
 62
     7
370
    25
100
AcDbLine
 10
0.3274104439
 20
-0.4115416958
 30
0.0
 11
0.3274104439
 21
-0.4686005194
 31
0.0
  0
LINE
  5
294
330
1F
100
AcDbEntity
  8
0
  6
Continuous
 62
     7
370
    25
100
AcDbLine
 10
0.2327045615
 20
-0.3915416958
 30
0.0
 11
0.3074104439
 21
-0.3915416958
 31
0.0
  0
LINE
  5
295
330
1F
100
AcDbEntity
  8
0
  6
Continuous
 62
     7
370
    25
100
AcDbLine
 10
0.2127045615
 20
-0.4686005194
 30
0.0
 11
0.2127045615
 21
-0.4115416958
 31
0.0
  0
LINE
  5
296
330
1F
100
AcDbEntity
  8
0
  6
Continuous
 62
     7
370
    25
100
AcDbLine
 10
0.0121163262
 20
-0.4886005194
 30
0.0
 11
0.1927045615
 21
-0.4886005194
 31
0.0
  0
LINE
  5
297
330
1F
100
AcDbEntity
  8
0
  6
Continuous
 62
     7
370
    25
100
AcDbLine
 10
-0.0078836738
 20
-0.5568358135
 30
0.0
 11
-0.0078836738
 21
-0.5086005194
 31
0.0
  0
LINE
  5
298
330
1F
100
AcDbEntity
  8
0
  6
Continuous
 62
     7
370
    25
100
AcDbLine
 10
0.1927045615
 20
-0.5768358135
 30
0.0
 11
0.0121163262
 21
-0.5768358135
 31
0.0
  0
LINE
  5
299
330
1F
100
AcDbEntity
  8
0
  6
Continuous
 62
     7
370
    25
100
AcDbLine
 10
0.2127045615
 20
-0.8164497841
 30
0.0
 11
0.2127045615
 21
-0.5968358135
 31
0.0
  0
LINE
  5
29A
330
1F
100
AcDbEntity
  8
0
  6
Continuous
 62
     7
370
    25
100
AcDbLine
 10
-0.0167072032
 20
-0.9682886881
 30
0.0
 11
-0.0167072032
 21
-0.9228339007
 31
0.0
  0
LINE
  5
29B
330
1F
100
AcDbEntity
  8
0
  6
Continuous
 62
     7
370
    25
100
AcDbLine
 10
-0.3965360215
 20
-0.606872324
 30
0.0
 11
-0.4780289857
 21
-0.5253793598
 31
0.0
  0
LINE
  5
29C
330
1F
100
AcDbEntity
  8
0
  6
Continuous
 62
     7
370
    25
100
AcDbLine
 10
-0.1599825036
 20
-0.8434258419
 30
0.0
 11
-0.2279018019
 21
-0.7755065435
 31
0.0
  0
LINE
  5
29D
330
1F
100
AcDbEntity
  8
0
  6
Continuous
 62
     7
370
    25
100
AcDbLine
 10
-0.558787128
 20
-0.6213979128
 30
0.0
 11
-0.4849243691
 21
-0.6952606717
 31
0.0
  0
LINE
  5
29E
330
1F
100
AcDbEntity
  8
0
  6
Continuous
 62
     7
370
    25
100
AcDbLine
 10
-0.3162901496
 20
-0.8638948912
 30
0.0
 11
-0.2358524809
 21
-0.9443325599
 31
0.0
  0
LINE
  5
29F
330
1F
100
AcDbEntity
  8
0
  6
Continuous
 62
     7
370
    25
100
AcDbLine
 10
-0.7931777914
 20
-0.49977699
 30
0.0
 11
-0.7931777914
 21
-0.9715416958
 31
0.0
  0
LINE
  5
2A0
330
1F
100
AcDbEntity
  8
0
  6
Continuous
 62
     7
370
    25
100
AcDbLine
 10
-0.8878836738
 20
-0.47977699
 30
0.0
 11
-0.8131777914
 21
-0.47977699
 31
0.0
  0
LINE
  5
2A1
330
1F
100
AcDbEntity
  8
0
  6
Continuous
 62
     7
370
    25
100
AcDbLine
 10
-0.9078836738
 20
-0.5091407441
 30
0.0
 11
-0.9078836738
 21
-0.49977699
 31
0.0
  0
LINE
  5
2A2
330
1F
100
AcDbEntity
  8
0
  6
Continuous
 62
     7
370
    25
100
AcDbLine
 10
-1.1902366149
 20
-0.6186005194
 30
0.0
 11
-1.1902366149
 21
-0.5019649219
 31
0.0
  0
LINE
  5
2A3
330
1F
100
AcDbEntity
  8
0
  6
Continuous
 62
     7
370
    25
100
AcDbLine
 10
-1.1131777914
 20
-0.6386005194
 30
0.0
 11
-1.1702366149
 21
-0.6386005194
 31
0.0
  0
LINE
  5
2A4
330
1F
100
AcDbEntity
  8
0
  6
Continuous
 62
     7
370
    25
100
AcDbLine
 10
-1.0931777914
 20
-0.5882667636
 30
0.0
 11
-1.0931777914
 21
-0.6186005194
 31
0.0
  0
LINE
  5
2A5
330
1F
100
AcDbEntity
  8
0
  6
Continuous
 62
     7
370
    25
100
AcDbLine
 10
-0.9078836738
 20
-0.9715416958
 30
0.0
 11
-0.9078836738
 21
-0.6712697591
 31
0.0
  0
LINE
  5
2A6
330
1F
100
AcDbEntity
  8
0
  6
Continuous
 62
     7
370
    25
100
AcDbLine
 10
-0.8131777914
 20
-0.9915416958
 30
0.0
 11
-0.8878836738
 21
-0.9915416958
 31
0.0
  0
LINE
  5
2A7
330
1F
100
AcDbEntity
  8
0
  6
Continuous
 62
     7
370
    25
100
AcDbLine
 10
5.6971132965
 20
0.8984908354
 30
0.0
 11
5.5880302182
 21
0.8223011434
 31
0.0
  0
LINE
  5
2A8
330
1F
100
AcDbEntity
  8
0
  6
Continuous
 62
     7
370
    25
100
AcDbLine
 10
5.5880302182
 20
1.588763661
 30
0.0
 11
5.6971132965
 21
1.7085346512
 31
0.0
  0
LINE
  5
2A9
330
1F
100
AcDbEntity
  8
0
  6
Continuous
 62
     7
370
    25
100
AcDbLine
 10
5.6971132965
 20
-1.7085346512
 30
0.0
 11
5.5880302182
 21
-1.588763661
 31
0.0
  0
LINE
  5
2AA
330
1F
100
AcDbEntity
  8
0
  6
Continuous
 62
     7
370
    25
100
AcDbLine
 10
5.5880302182
 20
-0.8223011434
 30
0.0
 11
5.6971132965
 21
-0.8984908354
 31
0.0
  0
LINE
  5
2AB
330
1F
100
AcDbEntity
  8
0
  6
Continuous
 62
     7
370
    25
100
AcDbLine
 10
-12.6452697818
 20
5.2017832426
 30
0.0
 11
-12.5361867035
 21
5.1801388117
 31
0.0
  0
LINE
  5
2AC
330
1F
100
AcDbEntity
  8
0
  6
Continuous
 62
     7
370
    25
100
AcDbLine
 10
-16.5907282426
 20
5.7102141655
 30
0.0
 11
-16.5907282426
 21
5.0688892858
 31
0.0
  0
LINE
  5
2AD
330
1F
100
AcDbEntity
  8
0
  6
Continuous
 62
     7
370
    25
100
AcDbLine
 10
-13.4907282426
 20
7.5
 30
0.0
 11
-13.7007825797
 21
7.378725072
 31
0.0
  0
LINE
  5
2AE
330
1F
100
AcDbEntity
  8
0
  6
Continuous
 62
     7
370
    25
100
AcDbLine
 10
-12.9907282426
 20
7.5
 30
0.0
 11
-13.4907282426
 21
7.5
 31
0.0
  0
LINE
  5
2AF
330
1F
100
AcDbEntity
  8
0
  6
Continuous
 62
     7
370
    25
100
AcDbLine
 10
-12.5907282426
 20
6.7402538247
 30
0.0
 11
-12.5907282426
 21
7.1
 31
0.0
  0
LINE
  5
2B0
330
1F
100
AcDbEntity
  8
0
  6
Continuous
 62
     7
370
    25
100
AcDbLine
 10
-2.3028867039
 20
2.6120403729
 30
0.0
 11
-2.4119697818
 21
2.6535884552
 31
0.0
  0
LINE
  5
2B1
330
1F
100
AcDbEntity
  8
0
  6
Continuous
 62
     7
370
    25
100
AcDbLine
 10
5.6971132965
 20
2.6535884552
 30
0.0
 11
5.5880302182
 21
2.6120403728
 31
0.0
  0
LINE
  5
2B2
330
1F
100
AcDbEntity
  8
0
  6
Continuous
 62
     7
370
    25
100
AcDbLine
 10
15.8758717574
 20
7.1
 30
0.0
 11
15.8758717574
 21
6.7402538247
 31
0.0
  0
LINE
  5
2B3
330
1F
100
AcDbEntity
  8
0
  6
Continuous
 62
     7
370
    25
100
AcDbLine
 10
16.7758717574
 20
7.5
 30
0.0
 11
16.2758717574
 21
7.5
 31
0.0
  0
LINE
  5
2B4
330
1F
100
AcDbEntity
  8
0
  6
Continuous
 62
     7
370
    25
100
AcDbLine
 10
16.9859260944
 20
7.378725072
 30
0.0
 11
16.7758717574
 21
7.5
 31
0.0
  0
LINE
  5
2B5
330
1F
100
AcDbEntity
  8
0
  6
Continuous
 62
     7
370
    25
100
AcDbLine
 10
19.8758717574
 20
5.0688892858
 30
0.0
 11
19.8758717574
 21
5.7102141655
 31
0.0
  0
LINE
  5
2B6
330
1F
100
AcDbEntity
  8
0
  6
Continuous
 62
     7
370
    25
100
AcDbLine
 10
15.8213302182
 20
5.1801388117
 30
0.0
 11
15.9304132965
 21
5.2017832426
 31
0.0
  0
LINE
  5
2B7
330
1F
100
AcDbEntity
  8
0
  6
Continuous
 62
     7
370
    25
100
AcDbLine
 10
5.6425717574
 20
-0.022381673
 30
0.0
 11
5.6425717574
 21
0.022381673
 31
0.0
  0
LINE
  5
2B8
330
1F
100
AcDbEntity
  8
0
  6
Continuous
 62
     7
370
    25
100
AcDbLine
 10
15.9304132965
 20
-5.2017832426
 30
0.0
 11
15.8213302182
 21
-5.1801388117
 31
0.0
  0
LINE
  5
2B9
330
1F
100
AcDbEntity
  8
0
  6
Continuous
 62
     7
370
    25
100
AcDbLine
 10
19.8758717574
 20
-5.7102141655
 30
0.0
 11
19.8758717574
 21
-5.0688892858
 31
0.0
  0
LINE
  5
2BA
330
1F
100
AcDbEntity
  8
0
  6
Continuous
 62
     7
370
    25
100
AcDbLine
 10
16.7758717574
 20
-7.5
 30
0.0
 11
16.9859260944
 21
-7.378725072
 31
0.0
  0
LINE
  5
2BB
330
1F
100
AcDbEntity
  8
0
  6
Continuous
 62
     7
370
    25
100
AcDbLine
 10
16.2758717574
 20
-7.5
 30
0.0
 11
16.7758717574
 21
-7.5
 31
0.0
  0
LINE
  5
2BC
330
1F
100
AcDbEntity
  8
0
  6
Continuous
 62
     7
370
    25
100
AcDbLine
 10
15.8758717574
 20
-6.7402538247
 30
0.0
 11
15.8758717574
 21
-7.1
 31
0.0
  0
LINE
  5
2BD
330
1F
100
AcDbEntity
  8
0
  6
Continuous
 62
     7
370
    25
100
AcDbLine
 10
5.5880302182
 20
-2.6120403728
 30
0.0
 11
5.6971132965
 21
-2.6535884552
 31
0.0
  0
LINE
  5
2BE
330
1F
100
AcDbEntity
  8
0
  6
Continuous
 62
     7
370
    25
100
AcDbLine
 10
-2.4119697818
 20
-2.6535884552
 30
0.0
 11
-2.3028867035
 21
-2.6120403728
 31
0.0
  0
LINE
  5
2BF
330
1F
100
AcDbEntity
  8
0
  6
Continuous
 62
     7
370
    25
100
AcDbLine
 10
-12.5907282426
 20
-7.1
 30
0.0
 11
-12.5907282426
 21
-6.7402538247
 31
0.0
  0
LINE
  5
2C0
330
1F
100
AcDbEntity
  8
0
  6
Continuous
 62
     7
370
    25
100
AcDbLine
 10
-13.4907282426
 20
-7.5
 30
0.0
 11
-12.9907282426
 21
-7.5
 31
0.0
  0
LINE
  5
2C1
330
1F
100
AcDbEntity
  8
0
  6
Continuous
 62
     7
370
    25
100
AcDbLine
 10
-13.7007825797
 20
-7.378725072
 30
0.0
 11
-13.4907282426
 21
-7.5
 31
0.0
  0
LINE
  5
2C2
330
1F
100
AcDbEntity
  8
0
  6
Continuous
 62
     7
370
    25
100
AcDbLine
 10
-16.5907282426
 20
-5.0688892858
 30
0.0
 11
-16.5907282426
 21
-5.7102141655
 31
0.0
  0
LINE
  5
2C3
330
1F
100
AcDbEntity
  8
0
  6
Continuous
 62
     7
370
    25
100
AcDbLine
 10
-12.5361867035
 20
-5.1801388117
 30
0.0
 11
-12.6452697818
 21
-5.2017832426
 31
0.0
  0
LINE
  5
2C4
330
1F
100
AcDbEntity
  8
0
  6
Continuous
 62
     7
370
    25
100
AcDbLine
 10
-2.3574282426
 20
0.022381673
 30
0.0
 11
-2.3574282426
 21
-0.022381673
 31
0.0
  0
LINE
  5
2C5
330
1F
100
AcDbEntity
  8
0
  6
Continuous
 62
     7
370
    25
100
AcDbLine
 10
-2.3028867035
 20
-1.588763661
 30
0.0
 11
-2.4119697818
 21
-1.7085346512
 31
0.0
  0
LINE
  5
2C6
330
1F
100
AcDbEntity
  8
0
  6
Continuous
 62
     7
370
    25
100
AcDbLine
 10
-2.4119697818
 20
-0.8984908397
 30
0.0
 11
-2.3028867035
 21
-0.8223046762
 31
0.0
  0
ARC
  5
2C7
330
1F
100
AcDbEntity
  8
0
  6
Continuous
 62
     7
370
    25
100
AcDbCircle
 10
-12.9907282426
 20
-5.75
 30
0.0
 40
0.019999999999988
100
AcDbArc
 50
360.0
 51
90.0
  0
ARC
  5
2C8
330
1F
100
AcDbEntity
  8
0
  6
Continuous
 62
     7
370
    25
100
AcDbCircle
 10
-13.0827282426
 20
-5.75
 30
0.0
 40
0.0199999999999925
100
AcDbArc
 50
90.0
 51
180.0
  0
ARC
  5
2C9
330
1F
100
AcDbEntity
  8
0
  6
Continuous
 62
     7
370
    25
100
AcDbCircle
 10
-13.0827282426
 20
-6.25
 30
0.0
 40
0.0200000000000093
100
AcDbArc
 50
180.0
 51
270.0
  0
ARC
  5
2CA
330
1F
100
AcDbEntity
  8
0
  6
Continuous
 62
     7
370
    25
100
AcDbCircle
 10
-12.9907282426
 20
-6.25
 30
0.0
 40
0.0200000000000005
100
AcDbArc
 50
270.0
 51
0.0
  0
ARC
  5
2CB
330
1F
100
AcDbEntity
  8
0
  6
Continuous
 62
     7
370
    25
100
AcDbCircle
 10
-13.0827282426
 20
5.75
 30
0.0
 40
0.019999999999996
100
AcDbArc
 50
180.0
 51
270.0
  0
ARC
  5
2CC
330
1F
100
AcDbEntity
  8
0
  6
Continuous
 62
     7
370
    25
100
AcDbCircle
 10
-12.9907282426
 20
5.75
 30
0.0
 40
0.0199999999999907
100
AcDbArc
 50
270.0
 51
0.0
  0
ARC
  5
2CD
330
1F
100
AcDbEntity
  8
0
  6
Continuous
 62
     7
370
    25
100
AcDbCircle
 10
-12.9907282426
 20
6.25
 30
0.0
 40
0.0200000000000102
100
AcDbArc
 50
0.0
 51
90.0
  0
ARC
  5
2CE
330
1F
100
AcDbEntity
  8
0
  6
Continuous
 62
     7
370
    25
100
AcDbCircle
 10
-13.0827282426
 20
6.25
 30
0.0
 40
0.0200000000000085
100
AcDbArc
 50
90.0
 51
180.0
  0
ARC
  5
2CF
330
1F
100
AcDbEntity
  8
0
  6
Continuous
 62
     7
370
    25
100
AcDbCircle
 10
16.3678717574
 20
-5.75
 30
0.0
 40
0.0200000000000067
100
AcDbArc
 50
0.0
 51
90.0
  0
ARC
  5
2D0
330
1F
100
AcDbEntity
  8
0
  6
Continuous
 62
     7
370
    25
100
AcDbCircle
 10
16.2758717574
 20
-5.75
 30
0.0
 40
0.019999999999996
100
AcDbArc
 50
90.0
 51
180.0
  0
ARC
  5
2D1
330
1F
100
AcDbEntity
  8
0
  6
Continuous
 62
     7
370
    25
100
AcDbCircle
 10
16.2758717574
 20
-6.25
 30
0.0
 40
0.0200000000000067
100
AcDbArc
 50
180.0
 51
270.0
  0
ARC
  5
2D2
330
1F
100
AcDbEntity
  8
0
  6
Continuous
 62
     7
370
    25
100
AcDbCircle
 10
16.3678717574
 20
-6.25
 30
0.0
 40
0.0199999999999925
100
AcDbArc
 50
270.0
 51
0.0
  0
ARC
  5
2D3
330
1F
100
AcDbEntity
  8
0
  6
Continuous
 62
     7
370
    25
100
AcDbCircle
 10
16.2758717574
 20
5.75
 30
0.0
 40
0.0200000000000031
100
AcDbArc
 50
180.0
 51
270.0
  0
ARC
  5
2D4
330
1F
100
AcDbEntity
  8
0
  6
Continuous
 62
     7
370
    25
100
AcDbCircle
 10
16.3678717574
 20
5.75
 30
0.0
 40
0.0200000000000031
100
AcDbArc
 50
270.0
 51
360.0
  0
ARC
  5
2D5
330
1F
100
AcDbEntity
  8
0
  6
Continuous
 62
     7
370
    25
100
AcDbCircle
 10
16.3678717574
 20
6.25
 30
0.0
 40
0.0200000000000031
100
AcDbArc
 50
0.0
 51
90.0
  0
ARC
  5
2D6
330
1F
100
AcDbEntity
  8
0
  6
Continuous
 62
     7
370
    25
100
AcDbCircle
 10
16.2758717574
 20
6.25
 30
0.0
 40
0.0200000000000031
100
AcDbArc
 50
90.0
 51
180.0
  0
ARC
  5
2D7
330
1F
100
AcDbEntity
  8
0
  6
Continuous
 62
     7
370
    25
100
AcDbCircle
 10
-7.7595919399
 20
4.1039038824
 30
0.0
 40
0.0300000000000003
100
AcDbArc
 50
68.5623248634
 51
243.9142338725
  0
ARC
  5
2D8
330
1F
100
AcDbEntity
  8
0
  6
Continuous
 62
     7
370
    25
100
AcDbCircle
 10
1.3925717573
 20
0.046
 30
0.0
 40
0.0200000000000005
100
AcDbArc
 50
90.0
 51
180.0
  0
ARC
  5
2D9
330
1F
100
AcDbEntity
  8
0
  6
Continuous
 62
     7
370
    25
100
AcDbCircle
 10
1.3925717573
 20
-0.046
 30
0.0
 40
0.0200000000000011
100
AcDbArc
 50
180.0
 51
270.0
  0
ARC
  5
2DA
330
1F
100
AcDbEntity
  8
0
  6
Continuous
 62
     7
370
    25
100
AcDbCircle
 10
1.8925717573
 20
-0.046
 30
0.0
 40
0.0199999999999987
100
AcDbArc
 50
270.0
 51
0.0
  0
ARC
  5
2DB
330
1F
100
AcDbEntity
  8
0
  6
Continuous
 62
     7
370
    25
100
AcDbCircle
 10
1.8925717573
 20
0.046
 30
0.0
 40
0.0200000000000007
100
AcDbArc
 50
0.0
 51
90.0
  0
ARC
  5
2DC
330
1F
100
AcDbEntity
  8
0
  6
Continuous
 62
     7
370
    25
100
AcDbCircle
 10
0.1425717573
 20
0.046
 30
0.0
 40
0.0200000000000006
100
AcDbArc
 50
90.0
 51
180.0
  0
ARC
  5
2DD
330
1F
100
AcDbEntity
  8
0
  6
Continuous
 62
     7
370
    25
100
AcDbCircle
 10
0.1425717573
 20
-0.046
 30
0.0
 40
0.0200000000000013
100
AcDbArc
 50
180.0
 51
270.0
  0
ARC
  5
2DE
330
1F
100
AcDbEntity
  8
0
  6
Continuous
 62
     7
370
    25
100
AcDbCircle
 10
0.6425717573
 20
-0.046
 30
0.0
 40
0.0199999999999984
100
AcDbArc
 50
270.0
 51
0.0
  0
ARC
  5
2DF
330
1F
100
AcDbEntity
  8
0
  6
Continuous
 62
     7
370
    25
100
AcDbCircle
 10
0.6425717573
 20
0.046
 30
0.0
 40
0.0200000000000005
100
AcDbArc
 50
0.0
 51
90.0
  0
ARC
  5
2E0
330
1F
100
AcDbEntity
  8
0
  6
Continuous
 62
     7
370
    25
100
AcDbCircle
 10
-1.1074282427
 20
0.046
 30
0.0
 40
0.0200000000000007
100
AcDbArc
 50
90.0
 51
180.0
  0
ARC
  5
2E1
330
1F
100
AcDbEntity
  8
0
  6
Continuous
 62
     7
370
    25
100
AcDbCircle
 10
-1.1074282427
 20
-0.046
 30
0.0
 40
0.0200000000000018
100
AcDbArc
 50
180.0
 51
270.0
  0
ARC
  5
2E2
330
1F
100
AcDbEntity
  8
0
  6
Continuous
 62
     7
370
    25
100
AcDbCircle
 10
-0.6074282427
 20
-0.046
 30
0.0
 40
0.0199999999999982
100
AcDbArc
 50
270.0
 51
0.0
  0
ARC
  5
2E3
330
1F
100
AcDbEntity
  8
0
  6
Continuous
 62
     7
370
    25
100
AcDbCircle
 10
-0.6074282427
 20
0.046
 30
0.0
 40
0.0200000000000004
100
AcDbArc
 50
0.0
 51
90.0
  0
ARC
  5
2E4
330
1F
100
AcDbEntity
  8
0
  6
Continuous
 62
     7
370
    25
100
AcDbCircle
 10
2.6425717573
 20
0.046
 30
0.0
 40
0.0200000000000004
100
AcDbArc
 50
90.0
 51
180.0
  0
ARC
  5
2E5
330
1F
100
AcDbEntity
  8
0
  6
Continuous
 62
     7
370
    25
100
AcDbCircle
 10
2.6425717573
 20
-0.046
 30
0.0
 40
0.0200000000000014
100
AcDbArc
 50
180.0
 51
270.0
  0
ARC
  5
2E6
330
1F
100
AcDbEntity
  8
0
  6
Continuous
 62
     7
370
    25
100
AcDbCircle
 10
3.1425717573
 20
-0.046
 30
0.0
 40
0.02
100
AcDbArc
 50
270.0
 51
0.0
  0
ARC
  5
2E7
330
1F
100
AcDbEntity
  8
0
  6
Continuous
 62
     7
370
    25
100
AcDbCircle
 10
3.1425717573
 20
0.046
 30
0.0
 40
0.0200000000000009
100
AcDbArc
 50
0.0
 51
90.0
  0
ARC
  5
2E8
330
1F
100
AcDbEntity
  8
0
  6
Continuous
 62
     7
370
    25
100
AcDbCircle
 10
3.8925717573
 20
0.046
 30
0.0
 40
0.0200000000000009
100
AcDbArc
 50
90.0
 51
180.0
  0
ARC
  5
2E9
330
1F
100
AcDbEntity
  8
0
  6
Continuous
 62
     7
370
    25
100
AcDbCircle
 10
3.8925717573
 20
-0.046
 30
0.0
 40
0.0200000000000018
100
AcDbArc
 50
180.0
 51
270.0
  0
ARC
  5
2EA
330
1F
100
AcDbEntity
  8
0
  6
Continuous
 62
     7
370
    25
100
AcDbCircle
 10
4.3925717573
 20
-0.046
 30
0.0
 40
0.0200000000000005
100
AcDbArc
 50
270.0
 51
0.0
  0
ARC
  5
2EB
330
1F
100
AcDbEntity
  8
0
  6
Continuous
 62
     7
370
    25
100
AcDbCircle
 10
4.3925717573
 20
0.046
 30
0.0
 40
0.0200000000000005
100
AcDbArc
 50
0.0
 51
90.0
  0
ARC
  5
2EC
330
1F
100
AcDbEntity
  8
0
  6
Continuous
 62
     7
370
    25
100
AcDbCircle
 10
4.4553801296
 20
-0.9555012777
 30
0.0
 40
0.0200000000000005
100
AcDbArc
 50
285.3183676466
 51
0.0
  0
ARC
  5
2ED
330
1F
100
AcDbEntity
  8
0
  6
Continuous
 62
     7
370
    25
100
AcDbCircle
 10
4.4553801296
 20
-0.8939405159
 30
0.0
 40
0.0200000000000007
100
AcDbArc
 50
0.0
 51
110.8749563912
  0
ARC
  5
2EE
330
1F
100
AcDbEntity
  8
0
  6
Continuous
 62
     7
370
    25
100
AcDbCircle
 10
4.0806742472
 20
-0.4198330832
 30
0.0
 40
0.0199999999999978
100
AcDbArc
 50
105.4023603771
 51
180.0
  0
ARC
  5
2EF
330
1F
100
AcDbEntity
  8
0
  6
Continuous
 62
     7
370
    25
100
AcDbCircle
 10
4.0806742472
 20
-0.4708672265
 30
0.0
 40
0.020000000000004
100
AcDbArc
 50
180.0
 51
286.833074831
  0
ARC
  5
2F0
330
1F
100
AcDbEntity
  8
0
  6
Continuous
 62
     7
370
    25
100
AcDbCircle
 10
3.864203659
 20
-0.4972977941
 30
0.0
 40
0.0200000000000041
100
AcDbArc
 50
0.0
 51
90.0
  0
ARC
  5
2F1
330
1F
100
AcDbEntity
  8
0
  6
Continuous
 62
     7
370
    25
100
AcDbCircle
 10
3.7894977766
 20
-0.4972977941
 30
0.0
 40
0.0199999999999984
100
AcDbArc
 50
90.0
 51
180.0
  0
ARC
  5
2F2
330
1F
100
AcDbEntity
  8
0
  6
Continuous
 62
     7
370
    25
100
AcDbCircle
 10
3.5953801296
 20
-0.7957409765
 30
0.0
 40
0.0200000000000255
100
AcDbArc
 50
180.0
 51
219.0089448335
  0
ARC
  5
2F3
330
1F
100
AcDbEntity
  8
0
  6
Continuous
 62
     7
370
    25
100
AcDbCircle
 10
3.5553801296
 20
-0.4972977941
 30
0.0
 40
0.0200000000000005
100
AcDbArc
 50
0.0
 51
90.0
  0
ARC
  5
2F4
330
1F
100
AcDbEntity
  8
0
  6
Continuous
 62
     7
370
    25
100
AcDbCircle
 10
3.4806742472
 20
-0.4972977941
 30
0.0
 40
0.0200000000000014
100
AcDbArc
 50
90.0
 51
180.0
  0
ARC
  5
2F5
330
1F
100
AcDbEntity
  8
0
  6
Continuous
 62
     7
370
    25
100
AcDbCircle
 10
3.4806742472
 20
-0.9690625
 30
0.0
 40
0.0200000000000009
100
AcDbArc
 50
180.0
 51
270.0
  0
ARC
  5
2F6
330
1F
100
AcDbEntity
  8
0
  6
Continuous
 62
     7
370
    25
100
AcDbCircle
 10
3.5553801296
 20
-0.9690625
 30
0.0
 40
0.0199999999999984
100
AcDbArc
 50
270.0
 51
0.0
  0
ARC
  5
2F7
330
1F
100
AcDbEntity
  8
0
  6
Continuous
 62
     7
370
    25
100
AcDbCircle
 10
3.5953801296
 20
-0.9638751178
 30
0.0
 40
0.0200000000000006
100
AcDbArc
 50
42.6952767337
 51
180.0
  0
ARC
  5
2F8
330
1F
100
AcDbEntity
  8
0
  6
Continuous
 62
     7
370
    25
100
AcDbCircle
 10
3.2818507178
 20
-0.2678860294
 30
0.0
 40
0.0200000000000014
100
AcDbArc
 50
0.0
 51
90.0
  0
ARC
  5
2F9
330
1F
100
AcDbEntity
  8
0
  6
Continuous
 62
     7
370
    25
100
AcDbCircle
 10
3.2071448354
 20
-0.2678860294
 30
0.0
 40
0.0200000000000019
100
AcDbArc
 50
90.0
 51
180.0
  0
ARC
  5
2FA
330
1F
100
AcDbEntity
  8
0
  6
Continuous
 62
     7
370
    25
100
AcDbCircle
 10
3.1671448354
 20
-0.5016414067
 30
0.0
 40
0.0200000000000107
100
AcDbArc
 50
221.7545958683
 51
360.0
  0
ARC
  5
2FB
330
1F
100
AcDbEntity
  8
0
  6
Continuous
 62
     7
370
    25
100
AcDbCircle
 10
2.8658745086
 20
-0.6675
 30
0.0
 40
0.0200000000000007
100
AcDbArc
 50
172.8395990581
 51
270.0
  0
ARC
  5
2FC
330
1F
100
AcDbEntity
  8
0
  6
Continuous
 62
     7
370
    25
100
AcDbCircle
 10
2.9498877294
 20
-0.6675
 30
0.0
 40
0.0200000000000129
100
AcDbArc
 50
270.0
 51
325.3218804133
  0
ARC
  5
2FD
330
1F
100
AcDbEntity
  8
0
  6
Continuous
 62
     7
370
    25
100
AcDbCircle
 10
3.0691301296
 20
-0.75
 30
0.0
 40
0.1249999999999993
100
AcDbArc
 50
34.6781195867
 51
145.3218804133
  0
ARC
  5
2FE
330
1F
100
AcDbEntity
  8
0
  6
Continuous
 62
     7
370
    25
100
AcDbCircle
 10
3.1883725297
 20
-0.6675
 30
0.0
 40
0.0199999999999995
100
AcDbArc
 50
214.6781195867
 51
270.0
  0
ARC
  5
2FF
330
1F
100
AcDbEntity
  8
0
  6
Continuous
 62
     7
370
    25
100
AcDbCircle
 10
3.2818507178
 20
-0.6675
 30
0.0
 40
0.0199999999999999
100
AcDbArc
 50
270.0
 51
0.0
  0
ARC
  5
300
330
1F
100
AcDbEntity
  8
0
  6
Continuous
 62
     7
370
    25
100
AcDbCircle
 10
2.9498877294
 20
-0.8325
 30
0.0
 40
0.019999999999993
100
AcDbArc
 50
34.6781195867
 51
90.0
  0
ARC
  5
301
330
1F
100
AcDbEntity
  8
0
  6
Continuous
 62
     7
370
    25
100
AcDbCircle
 10
2.8805827597
 20
-0.8325
 30
0.0
 40
0.0200000000000004
100
AcDbArc
 50
90.0
 51
198.8650404986
  0
ARC
  5
302
330
1F
100
AcDbEntity
  8
0
  6
Continuous
 62
     7
370
    25
100
AcDbCircle
 10
3.1870477195
 20
-0.971811845
 30
0.0
 40
0.0199999999999994
100
AcDbArc
 50
14.6678249037
 51
135.0939764695
  0
ARC
  5
303
330
1F
100
AcDbEntity
  8
0
  6
Continuous
 62
     7
370
    25
100
AcDbCircle
 10
3.2276756035
 20
-0.9690625
 30
0.0
 40
0.0200000000000026
100
AcDbArc
 50
194.6678249037
 51
270.0
  0
ARC
  5
304
330
1F
100
AcDbEntity
  8
0
  6
Continuous
 62
     7
370
    25
100
AcDbCircle
 10
3.2818507178
 20
-0.9690625
 30
0.0
 40
0.02
100
AcDbArc
 50
270.0
 51
0.0
  0
ARC
  5
305
330
1F
100
AcDbEntity
  8
0
  6
Continuous
 62
     7
370
    25
100
AcDbCircle
 10
3.2818507178
 20
-0.8325
 30
0.0
 40
0.0199999999999994
100
AcDbArc
 50
360.0
 51
90.0
  0
ARC
  5
306
330
1F
100
AcDbEntity
  8
0
  6
Continuous
 62
     7
370
    25
100
AcDbCircle
 10
3.1883725297
 20
-0.8325
 30
0.0
 40
0.0200000000000036
100
AcDbArc
 50
90.0
 51
145.3218804133
  0
ARC
  5
307
330
1F
100
AcDbEntity
  8
0
  6
Continuous
 62
     7
370
    25
100
AcDbCircle
 10
3.0691301296
 20
-0.75
 30
0.0
 40
0.1249999999999991
100
AcDbArc
 50
214.6781195867
 51
325.3218804133
  0
ARC
  5
308
330
1F
100
AcDbEntity
  8
0
  6
Continuous
 62
     7
370
    25
100
AcDbCircle
 10
2.6864760198
 20
-0.4979121805
 30
0.0
 40
0.0200000000000009
100
AcDbArc
 50
0.0
 51
90.0
  0
ARC
  5
309
330
1F
100
AcDbEntity
  8
0
  6
Continuous
 62
     7
370
    25
100
AcDbCircle
 10
2.408828961
 20
-0.4979121805
 30
0.0
 40
0.0200000000000005
100
AcDbArc
 50
89.9999999986
 51
180.0
  0
ARC
  5
30A
330
1F
100
AcDbEntity
  8
0
  6
Continuous
 62
     7
370
    25
100
AcDbCircle
 10
2.7217701374
 20
-1.1417330402
 30
0.0
 40
0.0200000000000002
100
AcDbArc
 50
287.4184072808
 51
360.0
  0
ARC
  5
30B
330
1F
100
AcDbEntity
  8
0
  6
Continuous
 62
     7
370
    25
100
AcDbCircle
 10
2.7217701374
 20
-1.0918958085
 30
0.0
 40
0.0199999999999975
100
AcDbArc
 50
360.0
 51
108.312866946
  0
ARC
  5
30C
330
1F
100
AcDbEntity
  8
0
  6
Continuous
 62
     7
370
    25
100
AcDbCircle
 10
2.5235348433
 20
-0.5861474746
 30
0.0
 40
0.0199999999999974
100
AcDbArc
 50
90.0
 51
180.0
  0
ARC
  5
30D
330
1F
100
AcDbEntity
  8
0
  6
Continuous
 62
     7
370
    25
100
AcDbCircle
 10
2.6864760198
 20
-0.5461474746
 30
0.0
 40
0.0200000000000031
100
AcDbArc
 50
270.0
 51
360.0
  0
ARC
  5
30E
330
1F
100
AcDbEntity
  8
0
  6
Continuous
 62
     7
370
    25
100
AcDbCircle
 10
2.5011819021
 20
-0.360853357
 30
0.0
 40
0.0199999999999974
100
AcDbArc
 50
270.0
 51
0.0
  0
ARC
  5
30F
330
1F
100
AcDbEntity
  8
0
  6
Continuous
 62
     7
370
    25
100
AcDbCircle
 10
2.5011819021
 20
-0.2685004158
 30
0.0
 40
0.0200000000000053
100
AcDbArc
 50
0.0
 51
90.0
  0
ARC
  5
310
330
1F
100
AcDbEntity
  8
0
  6
Continuous
 62
     7
370
    25
100
AcDbCircle
 10
2.4000054315
 20
-0.2685004158
 30
0.0
 40
0.0200000000000009
100
AcDbArc
 50
90.0
 51
180.0
  0
ARC
  5
311
330
1F
100
AcDbEntity
  8
0
  6
Continuous
 62
     7
370
    25
100
AcDbCircle
 10
2.4000054315
 20
-0.360853357
 30
0.0
 40
0.0200000000000018
100
AcDbArc
 50
180.0
 51
270.0
  0
ARC
  5
312
330
1F
100
AcDbEntity
  8
0
  6
Continuous
 62
     7
370
    25
100
AcDbCircle
 10
2.1603516203
 20
-0.49977699
 30
0.0
 40
0.0199999999999965
100
AcDbArc
 50
360.0
 51
90.0
  0
ARC
  5
313
330
1F
100
AcDbEntity
  8
0
  6
Continuous
 62
     7
370
    25
100
AcDbCircle
 10
2.085645738
 20
-0.49977699
 30
0.0
 40
0.0200000000000002
100
AcDbArc
 50
90.0
 51
180.0
  0
ARC
  5
314
330
1F
100
AcDbEntity
  8
0
  6
Continuous
 62
     7
370
    25
100
AcDbCircle
 10
1.8915280909
 20
-0.7982201723
 30
0.0
 40
0.0199999999999947
100
AcDbArc
 50
180.0
 51
219.0089448335
  0
ARC
  5
315
330
1F
100
AcDbEntity
  8
0
  6
Continuous
 62
     7
370
    25
100
AcDbCircle
 10
1.8515280909
 20
-0.49977699
 30
0.0
 40
0.0200000000000007
100
AcDbArc
 50
0.0
 51
90.0
  0
ARC
  5
316
330
1F
100
AcDbEntity
  8
0
  6
Continuous
 62
     7
370
    25
100
AcDbCircle
 10
1.7768222086
 20
-0.49977699
 30
0.0
 40
0.0200000000000009
100
AcDbArc
 50
90.0
 51
180.0
  0
ARC
  5
317
330
1F
100
AcDbEntity
  8
0
  6
Continuous
 62
     7
370
    25
100
AcDbCircle
 10
1.7768222086
 20
-0.9715416958
 30
0.0
 40
0.0200000000000007
100
AcDbArc
 50
180.0
 51
270.0
  0
ARC
  5
318
330
1F
100
AcDbEntity
  8
0
  6
Continuous
 62
     7
370
    25
100
AcDbCircle
 10
1.8515280909
 20
-0.9715416958
 30
0.0
 40
0.0200000000000006
100
AcDbArc
 50
270.0
 51
0.0
  0
ARC
  5
319
330
1F
100
AcDbEntity
  8
0
  6
Continuous
 62
     7
370
    25
100
AcDbCircle
 10
1.8915280909
 20
-0.9663543136
 30
0.0
 40
0.0200000000000009
100
AcDbArc
 50
42.6952767337
 51
180.0
  0
ARC
  5
31A
330
1F
100
AcDbEntity
  8
0
  6
Continuous
 62
     7
370
    25
100
AcDbCircle
 10
1.2738810321
 20
-0.8991134469
 30
0.0
 40
0.020000000000002
100
AcDbArc
 50
180.0
 51
263.2348848092
  0
ARC
  5
31B
330
1F
100
AcDbEntity
  8
0
  6
Continuous
 62
     7
370
    25
100
AcDbCircle
 10
1.2738810321
 20
-0.7909534605
 30
0.0
 40
0.0199999999999962
100
AcDbArc
 50
90.0
 51
180.0
  0
ARC
  5
31C
330
1F
100
AcDbEntity
  8
0
  6
Continuous
 62
     7
370
    25
100
AcDbCircle
 10
1.3485869145
 20
-0.7509534605
 30
0.0
 40
0.0200000000000005
100
AcDbArc
 50
270.0
 51
0.0
  0
ARC
  5
31D
330
1F
100
AcDbEntity
  8
0
  6
Continuous
 62
     7
370
    25
100
AcDbCircle
 10
1.3485869145
 20
-0.7027181664
 30
0.0
 40
0.0199999999999967
100
AcDbArc
 50
360.0
 51
90.0
  0
ARC
  5
31E
330
1F
100
AcDbEntity
  8
0
  6
Continuous
 62
     7
370
    25
100
AcDbCircle
 10
1.1591751498
 20
-0.7027181664
 30
0.0
 40
0.0200000000000005
100
AcDbArc
 50
90.0
 51
179.9999999999
  0
ARC
  5
31F
330
1F
100
AcDbEntity
  8
0
  6
Continuous
 62
     7
370
    25
100
AcDbCircle
 10
1.1591751498
 20
-0.9601344841
 30
0.0
 40
0.0199999999999949
100
AcDbArc
 50
180.0
 51
252.5135213301
  0
ARC
  5
320
330
1F
100
AcDbEntity
  8
0
  6
Continuous
 62
     7
370
    25
100
AcDbCircle
 10
1.1679986792
 20
-0.4207414746
 30
0.0
 40
0.0199999999999967
100
AcDbArc
 50
106.6157765281
 51
180.0
  0
ARC
  5
321
330
1F
100
AcDbEntity
  8
0
  6
Continuous
 62
     7
370
    25
100
AcDbCircle
 10
1.1679986792
 20
-0.474962783
 30
0.0
 40
0.0200000000000009
100
AcDbArc
 50
180.0
 51
289.4126407058
  0
ARC
  5
322
330
1F
100
AcDbEntity
  8
0
  6
Continuous
 62
     7
370
    25
100
AcDbCircle
 10
0.7127116464
 20
-0.9655137666
 30
0.0
 40
0.0200000000000023
100
AcDbArc
 50
51.251698317
 51
152.0125553015
  0
ARC
  5
323
330
1F
100
AcDbEntity
  8
0
  6
Continuous
 62
     7
370
    25
100
AcDbCircle
 10
0.8855370331
 20
-0.9795012705
 30
0.0
 40
0.0199999999999994
100
AcDbArc
 50
275.0134600201
 51
45.0
  0
ARC
  5
324
330
1F
100
AcDbEntity
  8
0
  6
Continuous
 62
     7
370
    25
100
AcDbCircle
 10
0.8626136193
 20
-0.9565778566
 30
0.0
 40
0.0200000000000003
100
AcDbArc
 50
45.0
 51
98.9910168022
  0
ARC
  5
325
330
1F
100
AcDbEntity
  8
0
  6
Continuous
 62
     7
370
    25
100
AcDbCircle
 10
0.844836814
 20
-0.8442255194
 30
0.0
 40
0.0937500000000019
100
AcDbArc
 50
216.0089831978
 51
278.9910168022
  0
ARC
  5
326
330
1F
100
AcDbEntity
  8
0
  6
Continuous
 62
     7
370
    25
100
AcDbCircle
 10
0.7528216148
 20
-0.9111005194
 30
0.0
 40
0.019999999999999
100
AcDbArc
 50
36.0089831978
 51
90.0
  0
ARC
  5
327
330
1F
100
AcDbEntity
  8
0
  6
Continuous
 62
     7
370
    25
100
AcDbCircle
 10
0.5599816888
 20
-0.9111005194
 30
0.0
 40
0.0199999999999984
100
AcDbArc
 50
90.0
 51
172.131801778
  0
ARC
  5
328
330
1F
100
AcDbEntity
  8
0
  6
Continuous
 62
     7
370
    25
100
AcDbCircle
 10
0.552382634
 20
-0.9660881243
 30
0.0
 40
0.0199999999999994
100
AcDbArc
 50
172.131801778
 51
251.7199718351
  0
ARC
  5
329
330
1F
100
AcDbEntity
  8
0
  6
Continuous
 62
     7
370
    25
100
AcDbCircle
 10
0.7444692674
 20
-0.653894637
 30
0.0
 40
0.0199999999999984
100
AcDbArc
 50
180.0
 51
270.0
  0
ARC
  5
32A
330
1F
100
AcDbEntity
  8
0
  6
Continuous
 62
     7
370
    25
100
AcDbCircle
 10
0.9691751498
 20
-0.5729198847
 30
0.0
 40
0.0200000000000016
100
AcDbArc
 50
248.5334433566
 51
360.0
  0
ARC
  5
32B
330
1F
100
AcDbEntity
  8
0
  6
Continuous
 62
     7
370
    25
100
AcDbCircle
 10
0.9691751498
 20
-0.5235119723
 30
0.0
 40
0.0199999999999977
100
AcDbArc
 50
0.0
 51
70.568886733
  0
ARC
  5
32C
330
1F
100
AcDbEntity
  8
0
  6
Continuous
 62
     7
370
    25
100
AcDbCircle
 10
0.6297633851
 20
-0.7773505194
 30
0.0
 40
0.0200000000000016
100
AcDbArc
 50
180.0
 51
270.0
  0
ARC
  5
32D
330
1F
100
AcDbEntity
  8
0
  6
Continuous
 62
     7
370
    25
100
AcDbCircle
 10
0.7528216148
 20
-0.7773505194
 30
0.0
 40
0.0200000000000055
100
AcDbArc
 50
270.0
 51
323.9910168022
  0
ARC
  5
32E
330
1F
100
AcDbEntity
  8
0
  6
Continuous
 62
     7
370
    25
100
AcDbCircle
 10
0.844836814
 20
-0.8442255194
 30
0.0
 40
0.0937499999999994
100
AcDbArc
 50
351.0089831978
 51
143.9910168022
  0
ARC
  5
32F
330
1F
100
AcDbEntity
  8
0
  6
Continuous
 62
     7
370
    25
100
AcDbCircle
 10
0.9571891512
 20
-0.8620023247
 30
0.0
 40
0.0199999999999988
100
AcDbArc
 50
171.0089831978
 51
225.0
  0
ARC
  5
330
330
1F
100
AcDbEntity
  8
0
  6
Continuous
 62
     7
370
    25
100
AcDbCircle
 10
1.0019867063
 20
-0.9067998797
 30
0.0
 40
0.0200000000000024
100
AcDbArc
 50
225.0
 51
334.3497143304
  0
ARC
  5
331
330
1F
100
AcDbEntity
  8
0
  6
Continuous
 62
     7
370
    25
100
AcDbCircle
 10
0.3474104439
 20
-0.5968358135
 30
0.0
 40
0.0199999999999961
100
AcDbArc
 50
90.0
 51
180.0
  0
ARC
  5
332
330
1F
100
AcDbEntity
  8
0
  6
Continuous
 62
     7
370
    25
100
AcDbCircle
 10
0.4309398556
 20
-0.5568358135
 30
0.0
 40
0.0200000000000004
100
AcDbArc
 50
270.0
 51
360.0
  0
ARC
  5
333
330
1F
100
AcDbEntity
  8
0
  6
Continuous
 62
     7
370
    25
100
AcDbCircle
 10
0.4309398556
 20
-0.5086005194
 30
0.0
 40
0.0200000000000005
100
AcDbArc
 50
0.0
 51
90.0
  0
ARC
  5
334
330
1F
100
AcDbEntity
  8
0
  6
Continuous
 62
     7
370
    25
100
AcDbCircle
 10
0.3474104439
 20
-0.4686005194
 30
0.0
 40
0.0200000000000005
100
AcDbArc
 50
180.0
 51
270.0
  0
ARC
  5
335
330
1F
100
AcDbEntity
  8
0
  6
Continuous
 62
     7
370
    25
100
AcDbCircle
 10
0.3074104439
 20
-0.4115416958
 30
0.0
 40
0.0199999999999961
100
AcDbArc
 50
360.0
 51
90.0
  0
ARC
  5
336
330
1F
100
AcDbEntity
  8
0
  6
Continuous
 62
     7
370
    25
100
AcDbCircle
 10
0.2327045615
 20
-0.4115416958
 30
0.0
 40
0.0200000000000006
100
AcDbArc
 50
90.0
 51
180.0
  0
ARC
  5
337
330
1F
100
AcDbEntity
  8
0
  6
Continuous
 62
     7
370
    25
100
AcDbCircle
 10
0.1927045615
 20
-0.4686005194
 30
0.0
 40
0.0199999999999962
100
AcDbArc
 50
270.0
 51
0.0
  0
ARC
  5
338
330
1F
100
AcDbEntity
  8
0
  6
Continuous
 62
     7
370
    25
100
AcDbCircle
 10
0.0121163262
 20
-0.5086005194
 30
0.0
 40
0.0200000000000006
100
AcDbArc
 50
90.0
 51
180.0
  0
ARC
  5
339
330
1F
100
AcDbEntity
  8
0
  6
Continuous
 62
     7
370
    25
100
AcDbCircle
 10
0.0121163262
 20
-0.5568358135
 30
0.0
 40
0.0199999999999969
100
AcDbArc
 50
180.0
 51
270.0
  0
ARC
  5
33A
330
1F
100
AcDbEntity
  8
0
  6
Continuous
 62
     7
370
    25
100
AcDbCircle
 10
0.1927045615
 20
-0.5968358135
 30
0.0
 40
0.0200000000000006
100
AcDbArc
 50
0.0
 51
90.0
  0
ARC
  5
33B
330
1F
100
AcDbEntity
  8
0
  6
Continuous
 62
     7
370
    25
100
AcDbCircle
 10
0.0032927968
 20
-0.9228339007
 30
0.0
 40
0.0200000000000013
100
AcDbArc
 50
81.1224117239
 51
180.0
  0
ARC
  5
33C
330
1F
100
AcDbEntity
  8
0
  6
Continuous
 62
     7
370
    25
100
AcDbCircle
 10
0.0032927968
 20
-0.9682886881
 30
0.0
 40
0.0199999999999955
100
AcDbArc
 50
180.0
 51
260.1656135348
  0
ARC
  5
33D
330
1F
100
AcDbEntity
  8
0
  6
Continuous
 62
     7
370
    25
100
AcDbCircle
 10
-0.4638868501
 20
-0.5112372242
 30
0.0
 40
0.0199999999999992
100
AcDbArc
 50
114.0441807516
 51
225.0
  0
ARC
  5
33E
330
1F
100
AcDbEntity
  8
0
  6
Continuous
 62
     7
370
    25
100
AcDbCircle
 10
-0.3823938859
 20
-0.5927301884
 30
0.0
 40
0.019999999999998
100
AcDbArc
 50
225.0
 51
280.3218804133
  0
ARC
  5
33F
330
1F
100
AcDbEntity
  8
0
  6
Continuous
 62
     7
370
    25
100
AcDbCircle
 10
-0.3564130855
 20
-0.7353836076
 30
0.0
 40
0.1249999999999971
100
AcDbArc
 50
349.6781195867
 51
100.3218804133
  0
ARC
  5
340
330
1F
100
AcDbEntity
  8
0
  6
Continuous
 62
     7
370
    25
100
AcDbCircle
 10
-0.2137596663
 20
-0.7613644079
 30
0.0
 40
0.0200000000000048
100
AcDbArc
 50
169.6781195867
 51
225.0
  0
ARC
  5
341
330
1F
100
AcDbEntity
  8
0
  6
Continuous
 62
     7
370
    25
100
AcDbCircle
 10
-0.145840368
 20
-0.8292837063
 30
0.0
 40
0.0200000000000021
100
AcDbArc
 50
225.0
 51
343.9098214066
  0
ARC
  5
342
330
1F
100
AcDbEntity
  8
0
  6
Continuous
 62
     7
370
    25
100
AcDbCircle
 10
-0.3304322852
 20
-0.8780370268
 30
0.0
 40
0.0199999999999916
100
AcDbArc
 50
45.0
 51
100.3218804133
  0
ARC
  5
343
330
1F
100
AcDbEntity
  8
0
  6
Continuous
 62
     7
370
    25
100
AcDbCircle
 10
-0.3564130855
 20
-0.7353836076
 30
0.0
 40
0.125000000000001
100
AcDbArc
 50
169.6781195867
 51
280.3218804133
  0
ARC
  5
344
330
1F
100
AcDbEntity
  8
0
  6
Continuous
 62
     7
370
    25
100
AcDbCircle
 10
-0.4990665048
 20
-0.7094028073
 30
0.0
 40
0.019999999999984
100
AcDbArc
 50
349.6781195866
 51
45.0
  0
ARC
  5
345
330
1F
100
AcDbEntity
  8
0
  6
Continuous
 62
     7
370
    25
100
AcDbCircle
 10
-0.5729292636
 20
-0.6355400484
 30
0.0
 40
0.0199999999999998
100
AcDbArc
 50
45.0
 51
161.2174065794
  0
ARC
  5
346
330
1F
100
AcDbEntity
  8
0
  6
Continuous
 62
     7
370
    25
100
AcDbCircle
 10
-0.2499946166
 20
-0.9584746955
 30
0.0
 40
0.0199999999999981
100
AcDbArc
 50
295.5859138003
 51
45.0
  0
ARC
  5
347
330
1F
100
AcDbEntity
  8
0
  6
Continuous
 62
     7
370
    25
100
AcDbCircle
 10
-0.8131777914
 20
-0.9715416958
 30
0.0
 40
0.0200000000000006
100
AcDbArc
 50
270.0
 51
0.0
  0
ARC
  5
348
330
1F
100
AcDbEntity
  8
0
  6
Continuous
 62
     7
370
    25
100
AcDbCircle
 10
-0.8131777914
 20
-0.49977699
 30
0.0
 40
0.0200000000000006
100
AcDbArc
 50
0.0
 51
90.0
  0
ARC
  5
349
330
1F
100
AcDbEntity
  8
0
  6
Continuous
 62
     7
370
    25
100
AcDbCircle
 10
-0.8878836738
 20
-0.49977699
 30
0.0
 40
0.0200000000000005
100
AcDbArc
 50
90.0
 51
180.0
  0
ARC
  5
34A
330
1F
100
AcDbEntity
  8
0
  6
Continuous
 62
     7
370
    25
100
AcDbCircle
 10
-0.9278836738
 20
-0.5091407441
 30
0.0
 40
0.0200000000000002
100
AcDbArc
 50
223.4338172744
 51
360.0
  0
ARC
  5
34B
330
1F
100
AcDbEntity
  8
0
  6
Continuous
 62
     7
370
    25
100
AcDbCircle
 10
-1.1702366149
 20
-0.5019649219
 30
0.0
 40
0.0199999999999999
100
AcDbArc
 50
101.1246233998
 51
180.0
  0
ARC
  5
34C
330
1F
100
AcDbEntity
  8
0
  6
Continuous
 62
     7
370
    25
100
AcDbCircle
 10
-1.1702366149
 20
-0.6186005194
 30
0.0
 40
0.0200000000000005
100
AcDbArc
 50
180.0
 51
270.0
  0
ARC
  5
34D
330
1F
100
AcDbEntity
  8
0
  6
Continuous
 62
     7
370
    25
100
AcDbCircle
 10
-1.1131777914
 20
-0.6186005194
 30
0.0
 40
0.0200000000000005
100
AcDbArc
 50
270.0
 51
0.0
  0
ARC
  5
34E
330
1F
100
AcDbEntity
  8
0
  6
Continuous
 62
     7
370
    25
100
AcDbCircle
 10
-1.0731777914
 20
-0.5882667636
 30
0.0
 40
0.020000000000016
100
AcDbArc
 50
92.9694224428
 51
180.0
  0
ARC
  5
34F
330
1F
100
AcDbEntity
  8
0
  6
Continuous
 62
     7
370
    25
100
AcDbCircle
 10
-0.9278836738
 20
-0.6712697591
 30
0.0
 40
0.0200000000000051
100
AcDbArc
 50
0.0
 51
38.0944419372
  0
ARC
  5
350
330
1F
100
AcDbEntity
  8
0
  6
Continuous
 62
     7
370
    25
100
AcDbCircle
 10
-0.8878836738
 20
-0.9715416958
 30
0.0
 40
0.0200000000000004
100
AcDbArc
 50
180.0
 51
270.0
  0
ARC
  5
351
330
1F
100
AcDbEntity
  8
0
  6
Continuous
 62
     7
370
    25
100
AcDbCircle
 10
11.0448174156
 20
4.1039401449
 30
0.0
 40
0.03
100
AcDbArc
 50
296.0849628949
 51
111.4379574509
  0
ARC
  5
352
330
1F
100
AcDbEntity
  8
0
  6
Continuous
 62
     7
370
    25
100
AcDbCircle
 10
11.0448174156
 20
-4.1039401449
 30
0.0
 40
0.0300000000000012
100
AcDbArc
 50
248.5620425491
 51
63.9150371053
  0
ARC
  5
353
330
1F
100
AcDbEntity
  8
0
  6
Continuous
 62
     7
370
    25
100
AcDbCircle
 10
-16.3907282426
 20
5.0688892858
 30
0.0
 40
0.1999999999999957
100
AcDbArc
 50
180.0
 51
298.6606929457
  0
ARC
  5
354
330
1F
100
AcDbEntity
  8
0
  6
Continuous
 62
     7
370
    25
100
AcDbCircle
 10
-17.2630860922
 20
5.5154452711
 30
0.0
 40
0.7000000000000333
100
AcDbArc
 50
16.1552666708
 51
44.7874841801
  0
ARC
  5
355
330
1F
100
AcDbEntity
  8
0
  6
Continuous
 62
     7
370
    25
100
AcDbCircle
 10
-16.1452697818
 20
6.625
 30
0.0
 40
0.8750000000220081
100
AcDbArc
 50
59.8390799051
 51
224.7874841801
  0
ARC
  5
356
330
1F
100
AcDbEntity
  8
0
  6
Continuous
 62
     7
370
    25
100
AcDbCircle
 10
-14.7007825797
 20
9.1107758795
 30
0.0
 40
1.999999999999984
100
AcDbArc
 50
239.8390799051
 51
300.0
  0
ARC
  5
357
330
1F
100
AcDbEntity
  8
0
  6
Continuous
 62
     7
370
    25
100
AcDbCircle
 10
-12.9907282426
 20
7.1
 30
0.0
 40
0.4000000000000057
100
AcDbArc
 50
0.0
 51
90.0
  0
ARC
  5
358
330
1F
100
AcDbEntity
  8
0
  6
Continuous
 62
     7
370
    25
100
AcDbCircle
 10
-12.3907282426
 20
6.7402538247
 30
0.0
 40
0.1999999999999993
100
AcDbArc
 50
180.0
 51
250.0621487139
  0
ARC
  5
359
330
1F
100
AcDbEntity
  8
0
  6
Continuous
 62
     7
370
    25
100
AcDbCircle
 10
15.6758717574
 20
6.7402538247
 30
0.0
 40
0.2000000000000049
100
AcDbArc
 50
289.9378512861
 51
0.0
  0
ARC
  5
35A
330
1F
100
AcDbEntity
  8
0
  6
Continuous
 62
     7
370
    25
100
AcDbCircle
 10
16.2758717574
 20
7.1
 30
0.0
 40
0.4000000000000021
100
AcDbArc
 50
90.0
 51
180.0
  0
ARC
  5
35B
330
1F
100
AcDbEntity
  8
0
  6
Continuous
 62
     7
370
    25
100
AcDbCircle
 10
17.9859260944
 20
9.1107758795
 30
0.0
 40
2.000000000000019
100
AcDbArc
 50
240.0
 51
300.1609200949
  0
ARC
  5
35C
330
1F
100
AcDbEntity
  8
0
  6
Continuous
 62
     7
370
    25
100
AcDbCircle
 10
19.4304132965
 20
6.625
 30
0.0
 40
0.8750000000220057
100
AcDbArc
 50
315.2125158199
 51
120.1609200949
  0
ARC
  5
35D
330
1F
100
AcDbEntity
  8
0
  6
Continuous
 62
     7
370
    25
100
AcDbCircle
 10
20.5482296069
 20
5.5154452711
 30
0.0
 40
0.7000000000001134
100
AcDbArc
 50
135.2125158199
 51
163.8447333292
  0
ARC
  5
35E
330
1F
100
AcDbEntity
  8
0
  6
Continuous
 62
     7
370
    25
100
AcDbCircle
 10
19.6758717574
 20
5.0688892858
 30
0.0
 40
0.2000000000000099
100
AcDbArc
 50
241.3393070543
 51
360.0
  0
ARC
  5
35F
330
1F
100
AcDbEntity
  8
0
  6
Continuous
 62
     7
370
    25
100
AcDbCircle
 10
5.8425717574
 20
0.022381673
 30
0.0
 40
0.199999999999915
100
AcDbArc
 50
125.5527989851
 51
180.0
  0
ARC
  5
360
330
1F
100
AcDbEntity
  8
0
  6
Continuous
 62
     7
370
    25
100
AcDbCircle
 10
5.8425717574
 20
-0.022381673
 30
0.0
 40
0.2000000000001173
100
AcDbArc
 50
180.0
 51
234.4472010148
  0
ARC
  5
361
330
1F
100
AcDbEntity
  8
0
  6
Continuous
 62
     7
370
    25
100
AcDbCircle
 10
19.6758717574
 20
-5.0688892858
 30
0.0
 40
0.2000000000000028
100
AcDbArc
 50
0.0
 51
118.6606929457
  0
ARC
  5
362
330
1F
100
AcDbEntity
  8
0
  6
Continuous
 62
     7
370
    25
100
AcDbCircle
 10
20.5482296069
 20
-5.5154452711
 30
0.0
 40
0.699999999999905
100
AcDbArc
 50
196.1552666708
 51
224.7874841801
  0
ARC
  5
363
330
1F
100
AcDbEntity
  8
0
  6
Continuous
 62
     7
370
    25
100
AcDbCircle
 10
19.4304132965
 20
-6.625
 30
0.0
 40
0.8750000000220074
100
AcDbArc
 50
239.8390799051
 51
44.7874841801
  0
ARC
  5
364
330
1F
100
AcDbEntity
  8
0
  6
Continuous
 62
     7
370
    25
100
AcDbCircle
 10
17.9859260944
 20
-9.1107758795
 30
0.0
 40
1.999999999999998
100
AcDbArc
 50
59.8390799051
 51
120.0
  0
ARC
  5
365
330
1F
100
AcDbEntity
  8
0
  6
Continuous
 62
     7
370
    25
100
AcDbCircle
 10
16.2758717574
 20
-7.1
 30
0.0
 40
0.4000000000000092
100
AcDbArc
 50
180.0
 51
270.0
  0
ARC
  5
366
330
1F
100
AcDbEntity
  8
0
  6
Continuous
 62
     7
370
    25
100
AcDbCircle
 10
15.6758717574
 20
-6.7402538247
 30
0.0
 40
0.1999999999999975
100
AcDbArc
 50
0.0
 51
70.0621487139
  0
ARC
  5
367
330
1F
100
AcDbEntity
  8
0
  6
Continuous
 62
     7
370
    25
100
AcDbCircle
 10
-12.3907282426
 20
-6.7402538247
 30
0.0
 40
0.1999999999999762
100
AcDbArc
 50
109.9378512861
 51
180.0
  0
ARC
  5
368
330
1F
100
AcDbEntity
  8
0
  6
Continuous
 62
     7
370
    25
100
AcDbCircle
 10
-12.9907282426
 20
-7.1
 30
0.0
 40
0.4000000000002109
100
AcDbArc
 50
270.0
 51
360.0
  0
ARC
  5
369
330
1F
100
AcDbEntity
  8
0
  6
Continuous
 62
     7
370
    25
100
AcDbCircle
 10
-14.7007825797
 20
-9.1107758795
 30
0.0
 40
2.000000000000011
100
AcDbArc
 50
60.0
 51
120.1609200949
  0
ARC
  5
36A
330
1F
100
AcDbEntity
  8
0
  6
Continuous
 62
     7
370
    25
100
AcDbCircle
 10
-16.1452697818
 20
-6.625
 30
0.0
 40
0.875000000022007
100
AcDbArc
 50
135.2125158199
 51
300.1609200949
  0
ARC
  5
36B
330
1F
100
AcDbEntity
  8
0
  6
Continuous
 62
     7
370
    25
100
AcDbCircle
 10
-17.2630860922
 20
-5.5154452711
 30
0.0
 40
0.7000000000000253
100
AcDbArc
 50
315.2125158199
 51
343.8447333292
  0
ARC
  5
36C
330
1F
100
AcDbEntity
  8
0
  6
Continuous
 62
     7
370
    25
100
AcDbCircle
 10
-16.3907282426
 20
-5.0688892858
 30
0.0
 40
0.2000000000000001
100
AcDbArc
 50
61.3393070543
 51
180.0
  0
ARC
  5
36D
330
1F
100
AcDbEntity
  8
0
  6
Continuous
 62
     7
370
    25
100
AcDbCircle
 10
-2.5574282426
 20
-0.022381673
 30
0.0
 40
0.1999999999794801
100
AcDbArc
 50
305.5527989808
 51
0.0000000022
  0
ARC
  5
36E
330
1F
100
AcDbEntity
  8
0
  6
Continuous
 62
     7
370
    25
100
AcDbCircle
 10
-2.5574282427
 20
0.0223816729
 30
0.0
 40
0.2000000000211842
100
AcDbArc
 50
0.0000000037
 51
54.4472010126
  0
ARC
  5
36F
330
1F
100
AcDbEntity
  8
0
  6
Continuous
 62
     7
370
    25
100
AcDbCircle
 10
-7.759595211
 20
-4.1039052075
 30
0.0
 40
0.0299999999999986
100
AcDbArc
 50
116.0857556856
 51
291.4376735257
  0
MTEXT
  5
371
330
1F
100
AcDbEntity
  8
0
  6
Continuous
 62
     7
100
AcDbMText
 10
-17.0202697818
 20
-7.5401404091
 30
0.0
 40
0.1903
 41
0.0
 71
     1
 72
     1
  1
SOLIDWORKS Educational Product.
  7
SLDTEXTSTYLE0
 73
     1
 44
1.0
  0
MTEXT
  5
372
330
1F
100
AcDbEntity
  8
0
  6
Continuous
 62
     7
100
AcDbMText
 10
-17.0202697818
 20
-7.8255904091
 30
0.0
 40
0.1903
 41
0.0
 71
     1
 72
     1
  1
For Instructional Use Only.
  7
SLDTEXTSTYLE0
 73
     1
 44
1.0
  0
ENDSEC
  0
SECTION
  2
OBJECTS
  0
DICTIONARY
  5
C
330
0
100
AcDbDictionary
281
     1
  3
ACAD_GROUP
350
D
  3
ACAD_LAYOUT
350
1A
  3
ACAD_MLINESTYLE
350
17
  3
ACAD_PLOTSETTINGS
350
19
  3
ACAD_PLOTSTYLENAME
350
E
  3
ACAD_SCALELIST
350
47
  3
DWGPROPS
350
373
  0
DICTIONARY
  5
D
102
{ACAD_REACTORS
330
C
102
}
330
C
100
AcDbDictionary
281
     1
  0
DICTIONARY
  5
1A
102
{ACAD_REACTORS
330
C
102
}
330
C
100
AcDbDictionary
281
     1
  3
Layout1
350
1E
  3
Layout2
350
26
  3
Model
350
22
  0
DICTIONARY
  5
17
102
{ACAD_REACTORS
330
C
102
}
330
C
100
AcDbDictionary
281
     1
  3
Standard
350
18
  0
DICTIONARY
  5
19
102
{ACAD_REACTORS
330
C
102
}
330
C
100
AcDbDictionary
281
     1
  0
ACDBDICTIONARYWDFLT
  5
E
102
{ACAD_REACTORS
330
C
102
}
330
C
100
AcDbDictionary
281
     1
  3
Normal
350
F
100
AcDbDictionaryWithDefault
340
F
  0
DICTIONARY
  5
47
102
{ACAD_REACTORS
330
C
102
}
330
C
100
AcDbDictionary
281
     1
  3
A0
350
48
  3
A1
350
49
  3
A2
350
4A
  3
A3
350
4B
  3
A4
350
4C
  3
A5
350
4D
  3
A6
350
4E
  3
A7
350
4F
  3
A8
350
50
  3
A9
350
51
  3
B0
350
52
  3
B1
350
53
  3
B2
350
54
  3
B3
350
55
  3
B4
350
56
  3
B5
350
57
  3
B6
350
58
  3
B7
350
59
  3
B8
350
5A
  3
B9
350
5B
  3
C0
350
5C
  3
C1
350
5D
  3
C2
350
5E
  3
C3
350
5F
  3
C4
350
60
  3
C5
350
61
  3
C6
350
62
  3
C7
350
63
  3
C8
350
64
  3
C9
350
65
  3
D0
350
66
  3
D1
350
67
  3
D2
350
68
  0
XRECORD
  5
373
102
{ACAD_REACTORS
330
C
102
}
330
C
100
AcDbXrecord
280
     1
  1
DWGPROPS COOKIE
  2

  3

  4

  6

  7

  8
castr
  9

300
=
301
=
302
=
303
=
304
=
305
=
306
=
307
=
308
=
309
=
 40
0.0
 41
2459551.784098993
 42
2459551.784289306
  1

 90
        0
  0
LAYOUT
  5
1E
102
{ACAD_REACTORS
330
1A
102
}
330
1A
100
AcDbPlotSettings
  1

  2
none_device
  4

  6

 40
0.0
 41
0.0
 42
0.0
 43
0.0
 44
0.0
 45
0.0
 46
0.0
 47
0.0
 48
0.0
 49
0.0
140
0.0
141
0.0
142
1.0
143
1.0
 70
   688
 72
     0
 73
     0
 74
     5
  7

 75
    16
147
1.0
148
0.0
149
0.0
100
AcDbLayout
  1
Layout1
 70
     1
 71
     1
 10
0.0
 20
0.0
 11
12.0
 21
9.0
 12
0.0
 22
0.0
 32
0.0
 14
1.0000000000E+20
 24
1.0000000000E+20
 34
1.0000000000E+20
 15
-1.0000000000E+20
 25
-1.0000000000E+20
 35
-1.0000000000E+20
146
0.0
 13
0.0
 23
0.0
 33
0.0
 16
1.0
 26
0.0
 36
0.0
 17
0.0
 27
1.0
 37
0.0
 76
     0
330
1B
  0
LAYOUT
  5
26
102
{ACAD_REACTORS
330
1A
102
}
330
1A
100
AcDbPlotSettings
  1

  2
none_device
  4

  6

 40
0.0
 41
0.0
 42
0.0
 43
0.0
 44
0.0
 45
0.0
 46
0.0
 47
0.0
 48
0.0
 49
0.0
140
0.0
141
0.0
142
1.0
143
1.0
 70
   688
 72
     0
 73
     0
 74
     5
  7

 75
    16
147
1.0
148
0.0
149
0.0
100
AcDbLayout
  1
Layout2
 70
     1
 71
     2
 10
0.0
 20
0.0
 11
0.0
 21
0.0
 12
0.0
 22
0.0
 32
0.0
 14
0.0
 24
0.0
 34
0.0
 15
0.0
 25
0.0
 35
0.0
146
0.0
 13
0.0
 23
0.0
 33
0.0
 16
1.0
 26
0.0
 36
0.0
 17
0.0
 27
1.0
 37
0.0
 76
     0
330
23
  0
LAYOUT
  5
22
102
{ACAD_REACTORS
330
1A
102
}
330
1A
100
AcDbPlotSettings
  1

  2
none_device
  4
ANSI_A_(11.00_x_8.50_Inches)
  6

 40
6.35
 41
19.05
 42
6.35000508
 43
19.05000254
 44
279.4
 45
215.9
 46
121.177542302
 47
88.89999873
 48
0.0
 49
0.0
140
0.0
141
0.0
142
0.2917562145
143
1.0
 70
  1696
 72
     0
 73
     0
 74
     0
  7

 75
     0
147
0.5913241897
148
-39.4088153714
149
0.0
100
AcDbLayout
  1
Model
 70
     1
 71
     0
 10
0.0
 20
0.0
 11
12.0
 21
9.0
 12
0.0
 22
0.0
 32
0.0
 14
-17.0202697818
 24
-7.5
 34
0.0
 15
20.3054132965
 25
7.5
 35
0.0
146
0.0
 13
0.0
 23
0.0
 33
0.0
 16
1.0
 26
0.0
 36
0.0
 17
0.0
 27
1.0
 37
0.0
 76
     0
330
1F
331
29
  0
MLINESTYLE
  5
18
102
{ACAD_REACTORS
330
17
102
}
330
17
100
AcDbMlineStyle
  2
Standard
 70
     0
  3

 62
   256
 51
90.0
 52
90.0
 71
     2
 49
0.5
 62
   256
  6
BYLAYER
 49
-0.5
 62
   256
  6
BYLAYER
  0
ACDBPLACEHOLDER
  5
F
102
{ACAD_REACTORS
330
E
102
}
330
E
  0
SCALE
  5
48
102
{ACAD_REACTORS
330
47
102
}
330
47
100
AcDbScale
 70
     0
300
1:1
140
1.0
141
1.0
290
     1
  0
SCALE
  5
49
102
{ACAD_REACTORS
330
47
102
}
330
47
100
AcDbScale
 70
     0
300
1:2
140
1.0
141
2.0
290
     0
  0
SCALE
  5
4A
102
{ACAD_REACTORS
330
47
102
}
330
47
100
AcDbScale
 70
     0
300
1:4
140
1.0
141
4.0
290
     0
  0
SCALE
  5
4B
102
{ACAD_REACTORS
330
47
102
}
330
47
100
AcDbScale
 70
     0
300
1:5
140
1.0
141
5.0
290
     0
  0
SCALE
  5
4C
102
{ACAD_REACTORS
330
47
102
}
330
47
100
AcDbScale
 70
     0
300
1:8
140
1.0
141
8.0
290
     0
  0
SCALE
  5
4D
102
{ACAD_REACTORS
330
47
102
}
330
47
100
AcDbScale
 70
     0
300
1:10
140
1.0
141
10.0
290
     0
  0
SCALE
  5
4E
102
{ACAD_REACTORS
330
47
102
}
330
47
100
AcDbScale
 70
     0
300
1:16
140
1.0
141
16.0
290
     0
  0
SCALE
  5
4F
102
{ACAD_REACTORS
330
47
102
}
330
47
100
AcDbScale
 70
     0
300
1:20
140
1.0
141
20.0
290
     0
  0
SCALE
  5
50
102
{ACAD_REACTORS
330
47
102
}
330
47
100
AcDbScale
 70
     0
300
1:30
140
1.0
141
30.0
290
     0
  0
SCALE
  5
51
102
{ACAD_REACTORS
330
47
102
}
330
47
100
AcDbScale
 70
     0
300
1:40
140
1.0
141
40.0
290
     0
  0
SCALE
  5
52
102
{ACAD_REACTORS
330
47
102
}
330
47
100
AcDbScale
 70
     0
300
1:50
140
1.0
141
50.0
290
     0
  0
SCALE
  5
53
102
{ACAD_REACTORS
330
47
102
}
330
47
100
AcDbScale
 70
     0
300
1:100
140
1.0
141
100.0
290
     0
  0
SCALE
  5
54
102
{ACAD_REACTORS
330
47
102
}
330
47
100
AcDbScale
 70
     0
300
2:1
140
2.0
141
1.0
290
     0
  0
SCALE
  5
55
102
{ACAD_REACTORS
330
47
102
}
330
47
100
AcDbScale
 70
     0
300
4:1
140
4.0
141
1.0
290
     0
  0
SCALE
  5
56
102
{ACAD_REACTORS
330
47
102
}
330
47
100
AcDbScale
 70
     0
300
8:1
140
8.0
141
1.0
290
     0
  0
SCALE
  5
57
102
{ACAD_REACTORS
330
47
102
}
330
47
100
AcDbScale
 70
     0
300
10:1
140
10.0
141
1.0
290
     0
  0
SCALE
  5
58
102
{ACAD_REACTORS
330
47
102
}
330
47
100
AcDbScale
 70
     0
300
100:1
140
100.0
141
1.0
290
     0
  0
SCALE
  5
59
102
{ACAD_REACTORS
330
47
102
}
330
47
100
AcDbScale
 70
     0
300
1/128" = 1'-0"
140
0.0078125
141
12.0
290
     0
  0
SCALE
  5
5A
102
{ACAD_REACTORS
330
47
102
}
330
47
100
AcDbScale
 70
     0
300
1/64" = 1'-0"
140
0.015625
141
12.0
290
     0
  0
SCALE
  5
5B
102
{ACAD_REACTORS
330
47
102
}
330
47
100
AcDbScale
 70
     0
300
1/32" = 1'-0"
140
0.03125
141
12.0
290
     0
  0
SCALE
  5
5C
102
{ACAD_REACTORS
330
47
102
}
330
47
100
AcDbScale
 70
     0
300
1/16" = 1'-0"
140
0.0625
141
12.0
290
     0
  0
SCALE
  5
5D
102
{ACAD_REACTORS
330
47
102
}
330
47
100
AcDbScale
 70
     0
300
3/32" = 1'-0"
140
0.09375
141
12.0
290
     0
  0
SCALE
  5
5E
102
{ACAD_REACTORS
330
47
102
}
330
47
100
AcDbScale
 70
     0
300
1/8" = 1'-0"
140
0.125
141
12.0
290
     0
  0
SCALE
  5
5F
102
{ACAD_REACTORS
330
47
102
}
330
47
100
AcDbScale
 70
     0
300
3/16" = 1'-0"
140
0.1875
141
12.0
290
     0
  0
SCALE
  5
60
102
{ACAD_REACTORS
330
47
102
}
330
47
100
AcDbScale
 70
     0
300
1/4" = 1'-0"
140
0.25
141
12.0
290
     0
  0
SCALE
  5
61
102
{ACAD_REACTORS
330
47
102
}
330
47
100
AcDbScale
 70
     0
300
3/8" = 1'-0"
140
0.375
141
12.0
290
     0
  0
SCALE
  5
62
102
{ACAD_REACTORS
330
47
102
}
330
47
100
AcDbScale
 70
     0
300
1/2" = 1'-0"
140
0.5
141
12.0
290
     0
  0
SCALE
  5
63
102
{ACAD_REACTORS
330
47
102
}
330
47
100
AcDbScale
 70
     0
300
3/4" = 1'-0"
140
0.75
141
12.0
290
     0
  0
SCALE
  5
64
102
{ACAD_REACTORS
330
47
102
}
330
47
100
AcDbScale
 70
     0
300
1" = 1'-0"
140
1.0
141
12.0
290
     0
  0
SCALE
  5
65
102
{ACAD_REACTORS
330
47
102
}
330
47
100
AcDbScale
 70
     0
300
1-1/2" = 1'-0"
140
1.5
141
12.0
290
     0
  0
SCALE
  5
66
102
{ACAD_REACTORS
330
47
102
}
330
47
100
AcDbScale
 70
     0
300
3" = 1'-0"
140
3.0
141
12.0
290
     0
  0
SCALE
  5
67
102
{ACAD_REACTORS
330
47
102
}
330
47
100
AcDbScale
 70
     0
300
6" = 1'-0"
140
6.0
141
12.0
290
     0
  0
SCALE
  5
68
102
{ACAD_REACTORS
330
47
102
}
330
47
100
AcDbScale
 70
     0
300
1'-0" = 1'-0"
140
12.0
141
12.0
290
     0
  0
ENDSEC
  0
EOF
